<?xml version="1.0" encoding="UTF-8" standalone="no"?>
<svg
   xmlns:dc="http://purl.org/dc/elements/1.1/"
   xmlns:cc="http://creativecommons.org/ns#"
   xmlns:rdf="http://www.w3.org/1999/02/22-rdf-syntax-ns#"
   xmlns:svg="http://www.w3.org/2000/svg"
   xmlns="http://www.w3.org/2000/svg"
   xmlns:sodipodi="http://sodipodi.sourceforge.net/DTD/sodipodi-0.dtd"
   xmlns:inkscape="http://www.inkscape.org/namespaces/inkscape"
   version="1.1"
   id="svg2"
   xml:space="preserve"
   width="666.66669"
   height="666.66669"
   viewBox="0 0 666.66669 666.66669"
   sodipodi:docname="262904-P54910-534.eps"><metadata
     id="metadata8"><rdf:RDF><cc:Work
         rdf:about=""><dc:format>image/svg+xml</dc:format><dc:type
           rdf:resource="http://purl.org/dc/dcmitype/StillImage" /></cc:Work></rdf:RDF></metadata><defs
     id="defs6" /><sodipodi:namedview
     pagecolor="#ffffff"
     bordercolor="#666666"
     borderopacity="1"
     objecttolerance="10"
     gridtolerance="10"
     guidetolerance="10"
     inkscape:pageopacity="0"
     inkscape:pageshadow="2"
     inkscape:window-width="640"
     inkscape:window-height="480"
     id="namedview4" /><g
     id="g10"
     inkscape:groupmode="layer"
     inkscape:label="ink_ext_XXXXXX"
     transform="matrix(1.3333333,0,0,-1.3333333,0,666.66667)"><g
       id="g12"
       transform="scale(0.1)"><path
         d="M 0,0 H 5000 V 5000 H 0 Z"
         style="fill:#ffffff;fill-opacity:1;fill-rule:nonzero;stroke:none"
         id="path14" /><path
         d="m 1549.22,3250.66 c 0,-28.67 -250.98,-51.92 -560.587,-51.92 -309.602,0 -560.582,23.25 -560.582,51.92 0,28.67 250.98,51.92 560.582,51.92 309.607,0 560.587,-23.25 560.587,-51.92"
         style="fill:#cbecec;fill-opacity:1;fill-rule:nonzero;stroke:none"
         id="path16" /><path
         d="M 1446.44,3250.66 H 530.828 v 652.75 h 915.612 v -652.75"
         style="fill:#e68d21;fill-opacity:1;fill-rule:nonzero;stroke:none"
         id="path18" /><path
         d="M 1283.25,4014.92 H 694.02 L 530.828,3903.41 h 915.612 l -163.19,111.51"
         style="fill:#f8a33f;fill-opacity:1;fill-rule:nonzero;stroke:none"
         id="path20" /><path
         d="m 3060.59,3250.66 c 0,-28.67 -250.99,-51.92 -560.59,-51.92 -309.6,0 -560.59,23.25 -560.59,51.92 0,28.67 250.99,51.92 560.59,51.92 309.6,0 560.59,-23.25 560.59,-51.92"
         style="fill:#cbecec;fill-opacity:1;fill-rule:nonzero;stroke:none"
         id="path22" /><path
         d="m 2309.55,3967.88 653.11,-39.83 v -672.91 l -653.11,39.82 v 672.92"
         style="fill:#c1671d;fill-opacity:1;fill-rule:nonzero;stroke:none"
         id="path24" /><path
         d="m 2309.55,3967.88 -264.66,-39.83 v -672.91 l 264.66,39.82 v 672.92"
         style="fill:#d6711b;fill-opacity:1;fill-rule:nonzero;stroke:none"
         id="path26" /><path
         d="m 2698,3215.31 -653.11,39.83 v 672.91 L 2698,3888.23 v -672.92"
         style="fill:#e68d21;fill-opacity:1;fill-rule:nonzero;stroke:none"
         id="path28" /><path
         d="m 2698,3215.31 264.66,39.83 v 672.91 L 2698,3888.23 v -672.92"
         style="fill:#d6711b;fill-opacity:1;fill-rule:nonzero;stroke:none"
         id="path30" /><path
         d="m 2698,3789 -653.11,39.82 v 99.23 L 2698,3888.23 V 3789"
         style="fill:#e1791c;fill-opacity:1;fill-rule:nonzero;stroke:none"
         id="path32" /><path
         d="m 2698,3789 v 0 99.23 l 264.66,39.82 v -99.23 L 2698,3789"
         style="fill:#d15c1e;fill-opacity:1;fill-rule:nonzero;stroke:none"
         id="path34" /><path
         d="m 2300.97,4048.26 -281.11,-42.3 v -147.69 l 281.11,42.3 v 147.69"
         style="fill:#d6711b;fill-opacity:1;fill-rule:nonzero;stroke:none"
         id="path36" /><path
         d="m 2300.97,4048.26 677.76,-42.3 v -147.69 l -677.76,42.3 v 147.69"
         style="fill:#c1671d;fill-opacity:1;fill-rule:nonzero;stroke:none"
         id="path38" /><path
         d="m 2697.62,3815.97 -677.76,42.3 v 147.69 l 677.76,-42.29 v -147.7"
         style="fill:#e68d21;fill-opacity:1;fill-rule:nonzero;stroke:none"
         id="path40" /><path
         d="m 2697.62,3815.97 281.11,42.3 v 147.69 l -281.11,-42.29 v -147.7"
         style="fill:#d6711b;fill-opacity:1;fill-rule:nonzero;stroke:none"
         id="path42" /><path
         d="m 2019.86,4005.96 281.11,42.3 677.76,-42.3 -281.11,-42.29 -677.76,42.29"
         style="fill:#f8a33f;fill-opacity:1;fill-rule:nonzero;stroke:none"
         id="path44" /><path
         d="m 2865.3,634.672 c 0,-98.82 -248.82,-178.922 -555.75,-178.922 -306.94,0 -555.76,80.102 -555.76,178.922 0,98.808 248.82,178.91 555.76,178.91 306.93,0 555.75,-80.102 555.75,-178.91"
         style="fill:#cbecec;fill-opacity:1;fill-rule:nonzero;stroke:none"
         id="path46" /><path
         d="m 2290.24,1205.38 543.08,-173.4 V 673.039 l -543.08,173.41 v 358.931"
         style="fill:#af5d1e;fill-opacity:1;fill-rule:nonzero;stroke:none"
         id="path48" /><path
         d="m 2290.24,1205.38 543.08,-173.4 247.55,442.74 -543.09,173.4 -247.54,-442.74"
         style="fill:#c1671d;fill-opacity:1;fill-rule:nonzero;stroke:none"
         id="path50" /><path
         d="m 2462.03,1632.75 543.08,-173.39 75.76,15.36 -543.09,173.4 -75.75,-15.37"
         style="fill:#e68d21;fill-opacity:1;fill-rule:nonzero;stroke:none"
         id="path52" /><path
         d="m 2290.24,1205.38 -499.81,-173.4 V 673.039 l 499.81,173.41 v 358.931"
         style="fill:#c1671d;fill-opacity:1;fill-rule:nonzero;stroke:none"
         id="path54" /><path
         d="m 2290.24,1205.38 -499.81,-173.4 h 76.72 l 499.82,173.4 h -76.73"
         style="fill:#f8a33f;fill-opacity:1;fill-rule:nonzero;stroke:none"
         id="path56" /><path
         d="M 2333.51,500.82 1790.43,674.219 V 1033.16 L 2333.51,859.77 V 500.82"
         style="fill:#e68d21;fill-opacity:1;fill-rule:nonzero;stroke:none"
         id="path58" /><path
         d="m 2333.51,500.82 499.81,173.399 V 1033.16 L 2333.51,859.77 V 500.82"
         style="fill:#d6711b;fill-opacity:1;fill-rule:nonzero;stroke:none"
         id="path60" /><path
         d="m 2290.09,911.609 499.82,173.411 43.41,-51.86 -499.81,-173.39 -43.42,51.839"
         style="fill:#f8a33f;fill-opacity:1;fill-rule:nonzero;stroke:none"
         id="path62" /><path
         d="m 1549.22,1945.55 c 0,-28.68 -250.98,-51.93 -560.587,-51.93 -309.602,0 -560.582,23.25 -560.582,51.93 0,28.67 250.98,51.91 560.582,51.91 309.607,0 560.587,-23.24 560.587,-51.91"
         style="fill:#cbecec;fill-opacity:1;fill-rule:nonzero;stroke:none"
         id="path64" /><path
         d="m 819.641,2730.13 629.999,-50 v -734.58 l -629.999,50 v 734.58"
         style="fill:#c1671d;fill-opacity:1;fill-rule:nonzero;stroke:none"
         id="path66" /><path
         d="m 819.641,2730.13 629.999,-50 119.13,129.87 -629.997,50 -119.132,-129.87"
         style="fill:#d6711b;fill-opacity:1;fill-rule:nonzero;stroke:none"
         id="path68" /><path
         d="m 819.641,2730.13 -332.293,-50 v -734.58 l 332.293,50 v 734.58"
         style="fill:#d6711b;fill-opacity:1;fill-rule:nonzero;stroke:none"
         id="path70" /><path
         d="m 819.641,2730.13 -332.293,-50 -134.2,89.94 332.297,50 134.196,-89.94"
         style="fill:#e68d21;fill-opacity:1;fill-rule:nonzero;stroke:none"
         id="path72" /><path
         d="m 1117.35,1895.55 -630.002,50 v 734.58 l 630.002,-50 v -734.58"
         style="fill:#e68d21;fill-opacity:1;fill-rule:nonzero;stroke:none"
         id="path74" /><path
         d="m 968.496,2500 -630,50 148.852,130.13 630.002,-50 L 968.496,2500"
         style="fill:#f8a33f;fill-opacity:1;fill-rule:nonzero;stroke:none"
         id="path76" /><path
         d="m 1117.35,1895.55 332.29,50 v 734.58 l -332.29,-50 v -734.58"
         style="fill:#d6711b;fill-opacity:1;fill-rule:nonzero;stroke:none"
         id="path78" /><path
         d="m 1306.48,2590.07 332.29,50 -189.13,40.06 -332.29,-50 189.13,-40.06"
         style="fill:#e68d21;fill-opacity:1;fill-rule:nonzero;stroke:none"
         id="path80" /><path
         d="m 4696.09,3271.49 c 0,-40.18 -325.4,-72.75 -726.79,-72.75 -401.4,0 -726.79,32.57 -726.79,72.75 0,40.18 325.39,72.75 726.79,72.75 401.39,0 726.79,-32.57 726.79,-72.75"
         style="fill:#cbecec;fill-opacity:1;fill-rule:nonzero;stroke:none"
         id="path82" /><path
         d="m 3590.66,3605.14 774.51,-50 v -294.58 l -774.51,50 v 294.58"
         style="fill:#c1671d;fill-opacity:1;fill-rule:nonzero;stroke:none"
         id="path84" /><path
         d="m 3590.66,3605.14 -313.84,-50 v -294.58 l 313.84,50 v 294.58"
         style="fill:#d6711b;fill-opacity:1;fill-rule:nonzero;stroke:none"
         id="path86" /><path
         d="m 4051.32,3210.56 -774.5,50 v 294.58 l 774.5,-50 v -294.58"
         style="fill:#e68d21;fill-opacity:1;fill-rule:nonzero;stroke:none"
         id="path88" /><path
         d="m 4051.32,3210.56 313.85,50 v 294.58 l -313.85,-50 v -294.58"
         style="fill:#d6711b;fill-opacity:1;fill-rule:nonzero;stroke:none"
         id="path90" /><path
         d="m 4310.04,3251.77 h -0.01 l 55.14,8.79 v 71.95 -71.96 l -55.13,-8.78"
         style="fill:#c4e8e9;fill-opacity:1;fill-rule:nonzero;stroke:none"
         id="path92" /><path
         d="m 4051.32,3387.9 -249.04,133.32 249.04,-16.08 V 3387.9"
         style="fill:#e1791c;fill-opacity:1;fill-rule:nonzero;stroke:none"
         id="path94" /><path
         d="m 4310.03,3251.77 -9.16,2.55 -249.55,133.58 v 117.24 l 250.75,39.95 63.1,-33.78 v -178.8 -71.95 l -55.14,-8.79"
         style="fill:#d15c1e;fill-opacity:1;fill-rule:nonzero;stroke:none"
         id="path96" /><path
         d="m 3977.43,3768.88 -326.08,90.53 -69.14,-170.38 326.08,-90.53 69.14,170.38"
         style="fill:#d6711b;fill-opacity:1;fill-rule:nonzero;stroke:none"
         id="path98" /><path
         d="m 3977.43,3768.88 718.66,-384.71 -69.14,-170.38 -718.66,384.71 69.14,170.38"
         style="fill:#c1671d;fill-opacity:1;fill-rule:nonzero;stroke:none"
         id="path100" /><path
         d="m 4300.87,3304.32 -718.66,384.71 69.14,170.38 718.66,-384.72 -69.14,-170.37"
         style="fill:#e68d21;fill-opacity:1;fill-rule:nonzero;stroke:none"
         id="path102" /><path
         d="m 4300.87,3304.32 326.08,-90.53 69.14,170.38 -326.08,90.52 -69.14,-170.37"
         style="fill:#d6711b;fill-opacity:1;fill-rule:nonzero;stroke:none"
         id="path104" /><path
         d="m 3651.35,3859.41 326.08,-90.53 718.66,-384.71 -326.08,90.52 -718.66,384.72"
         style="fill:#f8a33f;fill-opacity:1;fill-rule:nonzero;stroke:none"
         id="path106" /><path
         d="m 3060.59,1895.55 c 0,-28.68 -250.99,-51.93 -560.59,-51.93 -309.6,0 -560.59,23.25 -560.59,51.93 0,28.67 250.99,51.91 560.59,51.91 309.6,0 560.59,-23.24 560.59,-51.91"
         style="fill:#cbecec;fill-opacity:1;fill-rule:nonzero;stroke:none"
         id="path108" /><path
         d="m 2085.65,1895.55 h 820 v 584.59 h -820 z"
         style="fill:#e68d21;fill-opacity:1;fill-rule:nonzero;stroke:none"
         id="path110" /><path
         d="m 2085.65,2416.8 h 820 v 63.3398 h -820 z"
         style="fill:#e2811d;fill-opacity:1;fill-rule:nonzero;stroke:none"
         id="path112" /><path
         d="M 2861.41,2800.2 H 2129.9 v -320.06 h 731.51 v 320.06"
         style="fill:#c1671d;fill-opacity:1;fill-rule:nonzero;stroke:none"
         id="path114" /><path
         d="m 2861.41,2640.17 72.89,111.1 54.15,-111.1 -82.8,-160.03 -44.24,160.03"
         style="fill:#c1671d;fill-opacity:1;fill-rule:nonzero;stroke:none"
         id="path116" /><path
         d="m 2129.9,2640.17 -72.9,111.1 -54.14,-111.1 82.79,-160.03 44.25,160.03"
         style="fill:#c1671d;fill-opacity:1;fill-rule:nonzero;stroke:none"
         id="path118" /><path
         d="m 2955.65,2685.13 h -920 l 50,-204.99 h 820 l 50,204.99"
         style="fill:#d6711b;fill-opacity:1;fill-rule:nonzero;stroke:none"
         id="path120" /><path
         d="m 4641.9,1895.55 c 0,-28.68 -250.98,-51.93 -560.58,-51.93 -309.6,0 -560.59,23.25 -560.59,51.93 0,28.67 250.99,51.91 560.59,51.91 309.6,0 560.58,-23.24 560.58,-51.91"
         style="fill:#cbecec;fill-opacity:1;fill-rule:nonzero;stroke:none"
         id="path122" /><path
         d="m 3999.87,2690.13 570,-50 v -754.59 l -570,50 v 754.59"
         style="fill:#c1671d;fill-opacity:1;fill-rule:nonzero;stroke:none"
         id="path124" /><path
         d="m 3999.87,2690.13 -332.28,-50 v -754.59 l 332.28,50 v 754.59"
         style="fill:#d6711b;fill-opacity:1;fill-rule:nonzero;stroke:none"
         id="path126" /><path
         d="m 4177.59,1835.54 -510,50 v 754.59 l 510,-50 v -754.59"
         style="fill:#e68d21;fill-opacity:1;fill-rule:nonzero;stroke:none"
         id="path128" /><path
         d="m 4177.59,1835.54 392.28,50 v 754.59 l -392.28,-50 v -754.59"
         style="fill:#d6711b;fill-opacity:1;fill-rule:nonzero;stroke:none"
         id="path130" /><path
         d="m 4043.03,2603.32 -43.16,4.23 v 0 l 43.17,-4.23 h -0.01"
         style="fill:#b8551e;fill-opacity:1;fill-rule:nonzero;stroke:none"
         id="path132" /><path
         d="m 3999.87,2607.55 -297.06,29.12 v 0 l 297.06,-29.12 v 0"
         style="fill:#d15c1e;fill-opacity:1;fill-rule:nonzero;stroke:none"
         id="path134" /><path
         d="m 3667.59,2358.99 v 253.91 l 7.48,7.29 27.74,16.48 297.06,-29.12 43.16,-4.23 -74.19,-69.38 -301.25,-174.95"
         style="fill:#e1791c;fill-opacity:1;fill-rule:nonzero;stroke:none"
         id="path136" /><path
         d="m 3655.07,2650.2 -255.41,-249.32 79.14,-109.91 255.4,249.31 -79.13,109.92"
         style="fill:#d6711b;fill-opacity:1;fill-rule:nonzero;stroke:none"
         id="path138" /><path
         d="m 3655.07,2650.2 518.73,308.02 79.13,-109.91 -518.73,-308.03 -79.13,109.92"
         style="fill:#c1671d;fill-opacity:1;fill-rule:nonzero;stroke:none"
         id="path140" /><path
         d="m 3948.84,2563.94 -470.04,-272.97 -79.14,109.91 470.05,272.97 79.13,-109.91"
         style="fill:#e68d21;fill-opacity:1;fill-rule:nonzero;stroke:none"
         id="path142" /><path
         d="m 3948.84,2563.94 304.09,284.37 -79.13,109.91 -304.09,-284.37 79.13,-109.91"
         style="fill:#d6711b;fill-opacity:1;fill-rule:nonzero;stroke:none"
         id="path144" /><path
         d="m 3399.66,2400.88 255.41,249.32 518.73,308.02 -304.09,-284.37 -470.05,-272.97"
         style="fill:#f8a33f;fill-opacity:1;fill-rule:nonzero;stroke:none"
         id="path146" /><path
         d="m 1559.22,634.672 c 0,-98.82 -248.82,-178.922 -555.75,-178.922 -306.943,0 -555.759,80.102 -555.759,178.922 0,98.808 248.816,178.91 555.759,178.91 306.93,0 555.75,-80.102 555.75,-178.91"
         style="fill:#cbecec;fill-opacity:1;fill-rule:nonzero;stroke:none"
         id="path148" /><path
         d="M 972.906,1500.91 1457.63,1346.13 V 635.559 L 972.906,790.332 v 710.578"
         style="fill:#af5d1e;fill-opacity:1;fill-rule:nonzero;stroke:none"
         id="path150" /><path
         d="M 972.906,1500.91 526.793,1346.13 V 635.559 l 446.113,154.773 v 710.578"
         style="fill:#c1671d;fill-opacity:1;fill-rule:nonzero;stroke:none"
         id="path152" /><path
         d="M 1011.52,481.852 526.793,636.609 V 1347.19 L 1011.52,1192.42 V 481.852"
         style="fill:#e68d21;fill-opacity:1;fill-rule:nonzero;stroke:none"
         id="path154" /><path
         d="m 952.672,906.23 -425.879,135.99 v 206.08 l 20.234,64.41 464.493,-120.29 v -98.88 L 952.672,906.23"
         style="fill:#e1791c;fill-opacity:1;fill-rule:nonzero;stroke:none"
         id="path156" /><path
         d="m 1011.52,481.852 446.11,154.757 V 1347.19 L 1011.52,1192.42 V 481.852"
         style="fill:#d6711b;fill-opacity:1;fill-rule:nonzero;stroke:none"
         id="path158" /><path
         d="m 1011.52,1192.42 419.57,145.57 v -0.01 l -419.57,-145.56"
         style="fill:#a44e1e;fill-opacity:1;fill-rule:nonzero;stroke:none"
         id="path160" /><path
         d="m 1065.71,921.93 -54.19,175.39 v 95.1 l 419.57,145.56 26.54,-85.89 V 1057.9 L 1065.71,921.93"
         style="fill:#d15c1e;fill-opacity:1;fill-rule:nonzero;stroke:none"
         id="path162" /><path
         d="m 1083.45,954.441 446.11,154.779 -71.93,237.97 -446.11,-154.77 71.93,-237.979"
         style="fill:#e68d21;fill-opacity:1;fill-rule:nonzero;stroke:none"
         id="path164" /><path
         d="m 932.438,940.719 -484.727,154.771 79.082,251.7 484.727,-154.77 -79.082,-251.701"
         style="fill:#f8a33f;fill-opacity:1;fill-rule:nonzero;stroke:none"
         id="path166" /><path
         d="m 4514.05,673.039 c 0,-98.809 -248.83,-178.91 -555.76,-178.91 -306.93,0 -555.75,80.101 -555.75,178.91 0,98.82 248.82,178.91 555.75,178.91 306.93,0 555.76,-80.09 555.76,-178.91"
         style="fill:#cbecec;fill-opacity:1;fill-rule:nonzero;stroke:none"
         id="path168" /><path
         d="m 3968.53,1470.91 440.85,-140.77 V 791.422 L 3968.53,932.18 v 538.73"
         style="fill:#af5d1e;fill-opacity:1;fill-rule:nonzero;stroke:none"
         id="path170" /><path
         d="M 3968.53,1470.91 3562.79,1330.14 V 791.422 l 405.74,140.758 v 538.73"
         style="fill:#c1671d;fill-opacity:1;fill-rule:nonzero;stroke:none"
         id="path172" /><path
         d="M 4003.65,651.609 3562.79,792.371 V 1331.1 l 440.86,-140.76 V 651.609"
         style="fill:#e68d21;fill-opacity:1;fill-rule:nonzero;stroke:none"
         id="path174" /><path
         d="M 4003.65,651.609 3562.79,792.371 3324.8,637.039 3765.66,496.281 4003.65,651.609"
         style="fill:#f89e3c;fill-opacity:1;fill-rule:nonzero;stroke:none"
         id="path176" /><path
         d="m 4003.65,651.609 405.73,140.762 V 1331.1 L 4003.65,1190.34 V 651.609"
         style="fill:#d6711b;fill-opacity:1;fill-rule:nonzero;stroke:none"
         id="path178" /><path
         d="m 3562.79,1331.1 405.74,139.81 440.85,-139.81 -405.73,-140.76 -440.86,140.76"
         style="fill:#f8a33f;fill-opacity:1;fill-rule:nonzero;stroke:none"
         id="path180" /><path
         d="m 4213.8,1393.13 -44.95,14.25 45.65,-14.01 -0.7,-0.24"
         style="fill:#ffffff;fill-opacity:1;fill-rule:nonzero;stroke:none"
         id="path182" /><path
         d="m 3768.41,1265.45 -44.1,14.04 0.06,0.02 44.04,-14.06"
         style="fill:#e89e3c;fill-opacity:1;fill-rule:nonzero;stroke:none"
         id="path184" /><path
         d="m 3808.76,1252.61 -40.35,12.84 -44.04,14.06 405.67,139.79 38.81,-11.92 44.95,-14.25 -405.04,-140.52"
         style="fill:#f9b056;fill-opacity:1;fill-rule:nonzero;stroke:none"
         id="path186" /><path
         d="M 4409.38,792.441 4003.65,651.68 4218.99,511.879 4624.73,652.652 4409.38,792.441"
         style="fill:#e68d21;fill-opacity:1;fill-rule:nonzero;stroke:none"
         id="path188" /><path
         d="m 3562.79,792.371 -177.47,46.199 177.47,73.942 z"
         style="fill:#d6711b;fill-opacity:1;fill-rule:nonzero;stroke:none"
         id="path190" /><path
         d="m 4409.38,791.422 h 169.64 l -169.64,61.019 z"
         style="fill:#af5d1e;fill-opacity:1;fill-rule:nonzero;stroke:none"
         id="path192" /><path
         d="m 3319.57,4464.57 c 4.19,-8.97 3.51,-19.47 -1.82,-27.82 -5.31,-8.36 -14.53,-13.41 -24.43,-13.41 H 1720.39 c -9.88,0 -19.08,5.03 -24.4,13.35 -5.33,8.32 -6.04,18.78 -1.91,27.75 l 40.64,88.06 c 8.05,17.45 8.05,37.55 0,55 l -40.64,88.06 c -4.13,8.97 -3.42,19.43 1.91,27.75 5.32,8.32 14.52,13.35 24.4,13.35 h 1572.93 c 9.9,0 19.12,-5.05 24.43,-13.41 5.33,-8.35 6.01,-18.85 1.82,-27.82 l -40.95,-87.65 c -8.22,-17.61 -8.22,-37.95 0,-55.56 l 40.95,-87.65"
         style="fill:#86b1b8;fill-opacity:1;fill-rule:nonzero;stroke:none"
         id="path194" /><g
         id="g196"
         transform="scale(10)"><text
           transform="matrix(1,0,0,-1,187.575,452.516)"
           style="font-variant:normal;font-weight:normal;font-size:16.173px;font-family:'Bree Serif';-inkscape-font-specification:BreeSerif-Regular;writing-mode:lr-tb;fill:#ffffff;fill-opacity:1;fill-rule:nonzero;stroke:none"
           id="text200"><tspan
             x="0 9.736146 20.442673 30.566971 41.322014 51.058163 61.311562 72.018089 82.143089 92.89814 96.132736 105.86808 116.20309"
             y="0"
             sodipodi:role="line"
             id="tspan198">CARDBOARD BOX</tspan></text></g><path
         d="m 1722.84,179.371 c 0,-4.68 0.72,-8.672 2.18,-11.973 1.46,-3.289 3.45,-5.757 5.98,-7.429 2.54,-1.66 5.3,-2.508 8.3,-2.508 3.03,0 5.81,0.789 8.32,2.379 2.51,1.582 4.51,4.019 6.01,7.281 1.5,3.27 2.25,7.371 2.25,12.25 0,4.598 -0.75,8.559 -2.25,11.879 -1.5,3.309 -3.52,5.84 -6.07,7.602 -2.56,1.738 -5.35,2.609 -8.39,2.609 -3.16,0 -5.99,-0.902 -8.48,-2.68 -2.49,-1.801 -4.42,-4.371 -5.79,-7.73 -1.38,-3.34 -2.06,-7.242 -2.06,-11.68 z m 33.99,-25.391 v 1.719 c -2.32,-2.648 -4.61,-4.82 -6.87,-6.48 -2.25,-1.68 -4.7,-2.938 -7.34,-3.797 -2.64,-0.891 -5.52,-1.301 -8.64,-1.301 -4.14,0 -7.97,0.867 -11.49,2.621 -3.53,1.758 -6.57,4.258 -9.15,7.508 -2.57,3.238 -4.53,7.051 -5.85,11.449 -1.33,4.391 -2,9.141 -2,14.242 0,10.801 2.64,19.231 7.92,25.27 5.27,6.019 12.22,9.051 20.82,9.051 4.98,0 9.18,-0.864 12.6,-2.571 3.42,-1.703 6.75,-4.351 10,-7.871 v 25.5 c 0,3.551 0.7,6.219 2.13,8.039 1.4,1.813 3.42,2.723 6.04,2.723 2.61,0 4.62,-0.832 6.04,-2.5 1.42,-1.684 2.12,-4.121 2.12,-7.371 V 153.98 c 0,-3.289 -0.75,-5.75 -2.28,-7.398 -1.51,-1.641 -3.47,-2.461 -5.88,-2.461 -2.37,0 -4.32,0.84 -5.86,2.551 -1.54,1.719 -2.31,4.148 -2.31,7.308"
         style="fill:#86b1b8;fill-opacity:1;fill-rule:nonzero;stroke:none"
         id="path202" /><path
         d="m 1799.23,184.809 h 31.34 c -0.41,5.91 -2.02,10.343 -4.78,13.273 -2.77,2.938 -6.4,4.387 -10.92,4.387 -4.3,0 -7.84,-1.477 -10.6,-4.438 -2.77,-2.992 -4.44,-7.39 -5.04,-13.222 z m 33.8,-9.809 h -33.8 c 0.05,-3.93 0.83,-7.379 2.38,-10.379 1.53,-2.992 3.59,-5.25 6.14,-6.769 2.55,-1.52 5.37,-2.27 8.45,-2.27 2.07,0 3.95,0.227 5.67,0.707 1.71,0.5 3.36,1.25 4.97,2.293 1.6,1.027 3.08,2.129 4.42,3.316 1.35,1.192 3.1,2.801 5.26,4.821 0.88,0.75 2.15,1.14 3.8,1.14 1.77,0 3.21,-0.5 4.3,-1.468 1.1,-0.981 1.65,-2.332 1.65,-4.11 0,-1.57 -0.62,-3.371 -1.83,-5.472 -1.24,-2.09 -3.08,-4.098 -5.54,-6.008 -2.48,-1.93 -5.57,-3.512 -9.32,-4.781 -3.73,-1.27 -8.02,-1.899 -12.88,-1.899 -11.09,0 -19.72,3.168 -25.88,9.488 -6.17,6.321 -9.24,14.922 -9.24,25.762 0,5.109 0.75,9.848 2.27,14.211 1.53,4.379 3.74,8.109 6.65,11.227 2.91,3.132 6.5,5.531 10.76,7.191 4.26,1.672 8.99,2.5 14.18,2.5 6.75,0 12.54,-1.41 17.37,-4.27 4.84,-2.851 8.46,-6.531 10.86,-11.031 2.4,-4.519 3.61,-9.129 3.61,-13.801 0,-4.359 -1.24,-7.179 -3.73,-8.468 -2.49,-1.289 -6,-1.93 -10.52,-1.93"
         style="fill:#86b1b8;fill-opacity:1;fill-rule:nonzero;stroke:none"
         id="path204" /><path
         d="m 1911.78,166.719 c 0,-4.77 -1.16,-8.86 -3.48,-12.25 -2.32,-3.399 -5.75,-5.969 -10.29,-7.727 -4.53,-1.754 -10.06,-2.621 -16.55,-2.621 -6.21,0 -11.52,0.949 -15.96,2.848 -4.43,1.89 -7.7,4.269 -9.8,7.113 -2.12,2.859 -3.17,5.707 -3.17,8.59 0,1.898 0.67,3.508 2.03,4.867 1.34,1.34 3.06,2.012 5.13,2.012 1.8,0 3.2,-0.442 4.17,-1.332 0.97,-0.879 1.9,-2.129 2.78,-3.719 1.77,-3.09 3.9,-5.371 6.37,-6.91 2.46,-1.508 5.83,-2.281 10.1,-2.281 3.46,0 6.29,0.781 8.51,2.32 2.21,1.551 3.32,3.312 3.32,5.293 0,3.047 -1.15,5.238 -3.45,6.629 -2.3,1.398 -6.09,2.738 -11.36,4 -5.95,1.469 -10.79,3.031 -14.53,4.66 -3.73,1.609 -6.72,3.758 -8.95,6.418 -2.24,2.66 -3.36,5.941 -3.36,9.812 0,3.45 1.03,6.731 3.1,9.821 2.07,3.07 5.12,5.527 9.15,7.359 4.03,1.84 8.89,2.758 14.59,2.758 4.47,0 8.49,-0.457 12.05,-1.399 3.57,-0.91 6.56,-2.171 8.93,-3.73 2.39,-1.551 4.2,-3.281 5.44,-5.191 1.25,-1.899 1.87,-3.75 1.87,-5.559 0,-1.988 -0.67,-3.621 -1.99,-4.891 -1.33,-1.25 -3.22,-1.898 -5.67,-1.898 -1.77,0 -3.28,0.508 -4.52,1.531 -1.24,1.008 -2.67,2.528 -4.28,4.547 -1.3,1.691 -2.83,3.043 -4.61,4.063 -1.78,1.007 -4.18,1.507 -7.22,1.507 -3.13,0 -5.72,-0.648 -7.79,-1.988 -2.07,-1.332 -3.1,-2.98 -3.1,-4.961 0,-1.82 0.76,-3.301 2.27,-4.469 1.53,-1.171 3.57,-2.14 6.15,-2.89 2.57,-0.75 6.11,-1.68 10.64,-2.77 5.35,-1.312 9.73,-2.871 13.13,-4.691 3.39,-1.801 5.97,-3.949 7.73,-6.418 1.74,-2.473 2.62,-5.293 2.62,-8.453"
         style="fill:#86b1b8;fill-opacity:1;fill-rule:nonzero;stroke:none"
         id="path206" /><path
         d="m 1937.98,204.57 v -49.941 c 0,-3.469 -0.82,-6.09 -2.47,-7.848 -1.65,-1.781 -3.73,-2.66 -6.27,-2.66 -2.53,0 -4.59,0.899 -6.17,2.719 -1.59,1.808 -2.37,4.41 -2.37,7.789 v 49.43 c 0,3.41 0.78,5.992 2.37,7.73 1.58,1.731 3.64,2.59 6.17,2.59 2.54,0 4.62,-0.859 6.27,-2.59 1.65,-1.738 2.47,-4.137 2.47,-7.219 z m -8.55,17.852 c -2.4,0 -4.46,0.726 -6.17,2.207 -1.71,1.473 -2.56,3.562 -2.56,6.281 0,2.442 0.87,4.442 2.63,6.031 1.74,1.598 3.78,2.391 6.1,2.391 2.24,0 4.22,-0.723 5.95,-2.16 1.73,-1.442 2.6,-3.524 2.6,-6.262 0,-2.68 -0.85,-4.75 -2.54,-6.238 -1.69,-1.5 -3.69,-2.25 -6.01,-2.25"
         style="fill:#86b1b8;fill-opacity:1;fill-rule:nonzero;stroke:none"
         id="path208" /><path
         d="m 1963.61,179.809 c 0,-7 1.53,-12.297 4.59,-15.868 3.05,-3.601 7.01,-5.402 11.87,-5.402 2.86,0 5.57,0.793 8.13,2.32 2.56,1.532 4.63,3.871 6.24,6.961 1.6,3.102 2.41,6.871 2.41,11.301 0,7.039 -1.56,12.539 -4.66,16.461 -3.1,3.91 -7.19,5.879 -12.25,5.879 -4.94,0 -8.9,-1.871 -11.87,-5.641 -2.97,-3.75 -4.46,-9.078 -4.46,-16.011 z m 50.08,21.91 V 151.52 c 0,-5.739 -0.62,-10.68 -1.85,-14.821 -1.21,-4.129 -3.18,-7.551 -5.88,-10.238 -2.71,-2.699 -6.24,-4.719 -10.6,-6.02 -4.37,-1.312 -9.8,-1.961 -16.31,-1.961 -5.94,0 -11.26,0.829 -15.95,2.5 -4.68,1.68 -8.29,3.821 -10.82,6.45 -2.53,2.652 -3.8,5.351 -3.8,8.14 0,2.11 0.71,3.828 2.15,5.149 1.44,1.34 3.17,2 5.19,2 2.53,0 4.75,-1.11 6.65,-3.348 0.92,-1.141 1.88,-2.289 2.88,-3.449 0.99,-1.172 2.09,-2.16 3.29,-2.981 1.2,-0.82 2.65,-1.441 4.33,-1.839 1.69,-0.391 3.64,-0.59 5.83,-0.59 4.47,0 7.95,0.617 10.41,1.867 2.47,1.23 4.21,2.98 5.19,5.223 1,2.218 1.58,4.617 1.75,7.187 0.17,2.543 0.29,6.652 0.37,12.313 -2.66,-3.723 -5.72,-6.551 -9.21,-8.493 -3.48,-1.937 -7.63,-2.918 -12.43,-2.918 -5.78,0 -10.84,1.489 -15.17,4.45 -4.32,2.949 -7.64,7.078 -9.96,12.398 -2.32,5.32 -3.48,11.449 -3.48,18.422 0,5.18 0.7,9.879 2.11,14.039 1.42,4.199 3.44,7.711 6.05,10.59 2.62,2.859 5.63,5.031 9.05,6.48 3.42,1.461 7.17,2.192 11.27,2.192 4.89,0 9.14,-0.961 12.73,-2.813 3.58,-1.89 6.91,-4.84 10,-8.84 v 2.34 c 0,2.992 0.73,5.313 2.21,6.961 1.48,1.641 3.38,2.469 5.7,2.469 3.33,0 5.54,-1.09 6.64,-3.258 1.1,-2.172 1.66,-5.312 1.66,-9.402"
         style="fill:#86b1b8;fill-opacity:1;fill-rule:nonzero;stroke:none"
         id="path210" /><path
         d="m 2041.15,204.809 v -2.079 c 3.03,4.02 6.35,6.961 9.96,8.829 3.61,1.882 7.76,2.82 12.44,2.82 4.56,0 8.63,-1 12.22,-2.969 3.59,-2 6.27,-4.801 8.04,-8.41 1.14,-2.129 1.88,-4.41 2.22,-6.852 0.33,-2.449 0.51,-5.566 0.51,-9.367 v -32.152 c 0,-3.469 -0.8,-6.09 -2.38,-7.848 -1.58,-1.781 -3.64,-2.66 -6.17,-2.66 -2.58,0 -4.66,0.899 -6.27,2.719 -1.61,1.808 -2.4,4.41 -2.4,7.789 v 28.801 c 0,5.691 -0.8,10.05 -2.38,13.07 -1.58,3.012 -4.73,4.531 -9.46,4.531 -3.08,0 -5.89,-0.922 -8.42,-2.761 -2.53,-1.829 -4.39,-4.36 -5.57,-7.571 -0.84,-2.578 -1.27,-7.367 -1.27,-14.429 v -21.641 c 0,-3.508 -0.81,-6.129 -2.43,-7.887 -1.63,-1.754 -3.73,-2.621 -6.3,-2.621 -2.49,0 -4.53,0.899 -6.15,2.719 -1.59,1.808 -2.4,4.41 -2.4,7.789 v 49.941 c 0,3.289 0.72,5.75 2.15,7.379 1.44,1.61 3.4,2.43 5.88,2.43 1.53,0 2.9,-0.359 4.13,-1.078 1.22,-0.719 2.2,-1.789 2.94,-3.219 0.74,-1.441 1.11,-3.203 1.11,-5.273"
         style="fill:#86b1b8;fill-opacity:1;fill-rule:nonzero;stroke:none"
         id="path212" /><path
         d="m 2112.48,184.809 h 31.33 c -0.42,5.91 -2.01,10.343 -4.78,13.273 -2.76,2.938 -6.4,4.387 -10.91,4.387 -4.31,0 -7.85,-1.477 -10.61,-4.438 -2.77,-2.992 -4.44,-7.39 -5.03,-13.222 z m 33.8,-9.809 h -33.8 c 0.04,-3.93 0.83,-7.379 2.38,-10.379 1.54,-2.992 3.58,-5.25 6.14,-6.769 2.54,-1.52 5.36,-2.27 8.44,-2.27 2.07,0 3.96,0.227 5.67,0.707 1.71,0.5 3.36,1.25 4.97,2.293 1.6,1.027 3.07,2.129 4.44,3.316 1.34,1.192 3.09,2.801 5.25,4.821 0.88,0.75 2.14,1.14 3.79,1.14 1.78,0 3.21,-0.5 4.31,-1.468 1.09,-0.981 1.64,-2.332 1.64,-4.11 0,-1.57 -0.61,-3.371 -1.83,-5.472 -1.23,-2.09 -3.08,-4.098 -5.55,-6.008 -2.47,-1.93 -5.56,-3.512 -9.3,-4.781 -3.73,-1.27 -8.03,-1.899 -12.88,-1.899 -11.1,0 -19.73,3.168 -25.89,9.488 -6.16,6.321 -9.25,14.922 -9.25,25.762 0,5.109 0.77,9.848 2.28,14.211 1.52,4.379 3.74,8.109 6.66,11.227 2.91,3.132 6.49,5.531 10.76,7.191 4.25,1.672 8.99,2.5 14.18,2.5 6.74,0 12.53,-1.41 17.36,-4.27 4.84,-2.851 8.46,-6.531 10.87,-11.031 2.4,-4.519 3.61,-9.129 3.61,-13.801 0,-4.359 -1.25,-7.179 -3.74,-8.468 -2.48,-1.289 -5.99,-1.93 -10.51,-1.93"
         style="fill:#86b1b8;fill-opacity:1;fill-rule:nonzero;stroke:none"
         id="path214" /><path
         d="m 2182.73,179.371 c 0,-4.68 0.73,-8.672 2.19,-11.973 1.45,-3.289 3.44,-5.757 5.98,-7.429 2.53,-1.66 5.3,-2.508 8.29,-2.508 3.04,0 5.82,0.789 8.32,2.379 2.51,1.582 4.53,4.019 6.02,7.281 1.5,3.27 2.25,7.371 2.25,12.25 0,4.598 -0.75,8.559 -2.25,11.879 -1.49,3.309 -3.52,5.84 -6.08,7.602 -2.56,1.738 -5.35,2.609 -8.39,2.609 -3.16,0 -5.99,-0.902 -8.48,-2.68 -2.48,-1.801 -4.42,-4.371 -5.79,-7.73 -1.37,-3.34 -2.06,-7.242 -2.06,-11.68 z m 33.99,-25.391 v 1.719 c -2.32,-2.648 -4.61,-4.82 -6.86,-6.48 -2.26,-1.68 -4.7,-2.938 -7.35,-3.797 -2.63,-0.891 -5.51,-1.301 -8.63,-1.301 -4.14,0 -7.97,0.867 -11.49,2.621 -3.53,1.758 -6.57,4.258 -9.15,7.508 -2.58,3.238 -4.52,7.051 -5.85,11.449 -1.34,4.391 -2,9.141 -2,14.242 0,10.801 2.64,19.231 7.91,25.27 5.28,6.019 12.22,9.051 20.83,9.051 4.98,0 9.18,-0.864 12.6,-2.571 3.42,-1.703 6.75,-4.351 9.99,-7.871 v 25.5 c 0,3.551 0.71,6.219 2.13,8.039 1.41,1.813 3.43,2.723 6.05,2.723 2.61,0 4.62,-0.832 6.04,-2.5 1.41,-1.684 2.12,-4.121 2.12,-7.371 V 153.98 c 0,-3.289 -0.76,-5.75 -2.28,-7.398 -1.52,-1.641 -3.48,-2.461 -5.88,-2.461 -2.37,0 -4.32,0.84 -5.86,2.551 -1.54,1.719 -2.32,4.148 -2.32,7.308"
         style="fill:#86b1b8;fill-opacity:1;fill-rule:nonzero;stroke:none"
         id="path216" /><path
         d="m 2288.18,178.859 c 0,-6.867 1.58,-12.16 4.72,-15.839 3.14,-3.688 7.27,-5.559 12.37,-5.559 4.35,0 8.09,1.891 11.24,5.668 3.14,3.781 4.71,9.191 4.71,16.242 0,4.559 -0.64,8.488 -1.96,11.777 -1.31,3.293 -3.16,5.832 -5.56,7.633 -2.41,1.778 -5.22,2.68 -8.43,2.68 -3.29,0 -6.23,-0.902 -8.8,-2.68 -2.57,-1.801 -4.59,-4.39 -6.07,-7.781 -1.48,-3.398 -2.22,-7.461 -2.22,-12.141 z m -0.82,51.352 V 203.82 c 3.25,3.371 6.56,5.961 9.93,7.739 3.38,1.8 7.56,2.703 12.54,2.703 5.74,0 10.77,-1.371 15.1,-4.071 4.32,-2.742 7.68,-6.679 10.07,-11.851 2.38,-5.18 3.57,-11.301 3.57,-18.399 0,-5.23 -0.66,-10.019 -1.99,-14.39 -1.33,-4.379 -3.26,-8.172 -5.79,-11.371 -2.54,-3.2 -5.61,-5.68 -9.21,-7.438 -3.62,-1.754 -7.59,-2.621 -11.94,-2.621 -2.66,0 -5.16,0.309 -7.5,0.949 -2.35,0.621 -4.34,1.45 -5.98,2.5 -1.64,1.02 -3.05,2.102 -4.21,3.192 -1.16,1.097 -2.7,2.75 -4.59,4.937 v -1.719 c 0,-3.238 -0.78,-5.699 -2.35,-7.378 -1.55,-1.661 -3.54,-2.481 -5.94,-2.481 -2.45,0 -4.4,0.82 -5.86,2.481 -1.46,1.679 -2.18,4.14 -2.18,7.378 v 75.461 c 0,3.508 0.7,6.168 2.11,7.938 1.42,1.801 3.4,2.703 5.93,2.703 2.66,0 4.7,-0.863 6.14,-2.562 1.43,-1.719 2.15,-4.141 2.15,-7.309"
         style="fill:#86b1b8;fill-opacity:1;fill-rule:nonzero;stroke:none"
         id="path218" /><path
         d="m 2360.98,141.961 1.58,3.859 -21.27,53.551 c -1.3,3.078 -1.97,5.328 -1.97,6.719 0,1.48 0.39,2.851 1.14,4.109 0.77,1.262 1.81,2.281 3.13,3.043 1.34,0.758 2.72,1.137 4.15,1.137 2.49,0 4.37,-0.789 5.64,-2.379 1.27,-1.57 2.38,-3.84 3.35,-6.789 l 14.63,-42.539 13.86,39.558 c 1.09,3.2 2.08,5.711 2.97,7.54 0.89,1.8 1.83,3.019 2.82,3.652 0.99,0.637 2.39,0.957 4.21,0.957 1.31,0 2.56,-0.348 3.77,-1.047 1.2,-0.691 2.13,-1.633 2.78,-2.812 0.65,-1.18 0.99,-2.418 0.99,-3.731 -0.18,-0.797 -0.45,-1.949 -0.83,-3.43 -0.38,-1.48 -0.84,-2.98 -1.39,-4.488 l -22.53,-59 c -1.95,-5.191 -3.85,-9.25 -5.71,-12.199 -1.86,-2.961 -4.31,-5.242 -7.37,-6.813 -3.06,-1.589 -7.19,-2.379 -12.38,-2.379 -5.05,0 -8.86,0.54 -11.38,1.641 -2.54,1.098 -3.8,3.098 -3.8,6.02 0,1.98 0.59,3.519 1.8,4.578 1.2,1.09 2.99,1.633 5.34,1.633 0.93,0 1.84,-0.122 2.73,-0.391 1.09,-0.242 2.04,-0.379 2.84,-0.379 1.99,0 3.55,0.289 4.7,0.887 1.13,0.59 2.15,1.613 3.06,3.07 0.91,1.441 1.95,3.59 3.14,6.422"
         style="fill:#86b1b8;fill-opacity:1;fill-rule:nonzero;stroke:none"
         id="path220" /><path
         d="m 2611.32,212.891 h 4.13 v 5.179 c 0,5.43 0.66,9.711 2.04,12.922 1.36,3.18 3.7,5.488 6.97,6.957 3.27,1.442 7.76,2.172 13.44,2.172 10.13,0 15.16,-2.441 15.16,-7.422 0,-1.59 -0.54,-2.957 -1.6,-4.097 -1.04,-1.133 -2.3,-1.711 -3.74,-1.711 -0.66,0 -1.84,0.121 -3.5,0.398 -1.58,0.223 -3.01,0.383 -4.16,0.383 -3.11,0 -5.1,-0.942 -6.03,-2.781 -0.84,-1.832 -1.3,-4.45 -1.3,-7.891 v -4.109 h 4.22 c 6.6,0 9.87,-1.981 9.87,-5.981 0,-2.781 -0.85,-4.601 -2.62,-5.359 -1.74,-0.762 -4.15,-1.129 -7.25,-1.129 h -4.22 v -45.793 c 0,-3.418 -0.81,-6.008 -2.46,-7.789 -1.61,-1.82 -3.7,-2.711 -6.29,-2.711 -2.44,0 -4.46,0.891 -6.11,2.711 -1.63,1.781 -2.42,4.371 -2.42,7.789 v 45.793 h -4.77 c -2.58,0 -4.54,0.558 -5.94,1.738 -1.4,1.129 -2.1,2.649 -2.1,4.52 0,4.152 2.89,6.211 8.68,6.211"
         style="fill:#86b1b8;fill-opacity:1;fill-rule:nonzero;stroke:none"
         id="path222" /><path
         d="m 2667.9,169.07 v -14.441 c 0,-3.5 -0.88,-6.129 -2.49,-7.867 -1.64,-1.774 -3.73,-2.633 -6.25,-2.633 -2.54,0 -4.58,0.871 -6.17,2.672 -1.57,1.75 -2.41,4.371 -2.41,7.828 v 48.133 c 0,7.777 2.8,11.648 8.4,11.648 2.9,0 4.96,-0.89 6.23,-2.719 1.26,-1.82 1.97,-4.492 2.1,-8.05 2.07,3.558 4.17,6.23 6.33,8.05 2.22,1.829 5.08,2.719 8.72,2.719 3.67,0 7.15,-0.89 10.58,-2.719 3.44,-1.82 5.14,-4.242 5.14,-7.23 0,-2.09 -0.75,-3.859 -2.17,-5.199 -1.48,-1.391 -3.04,-2.082 -4.72,-2.082 -0.66,0 -2.2,0.422 -4.61,1.199 -2.43,0.75 -4.59,1.152 -6.41,1.152 -2.54,0 -4.62,-0.679 -6.21,-1.992 -1.62,-1.367 -2.88,-3.297 -3.76,-5.91 -0.86,-2.629 -1.46,-5.758 -1.83,-9.348 -0.32,-3.621 -0.47,-8.019 -0.47,-13.211"
         style="fill:#86b1b8;fill-opacity:1;fill-rule:nonzero;stroke:none"
         id="path224" /><path
         d="m 2713.53,184.852 h 31.33 c -0.42,5.89 -1.98,10.328 -4.75,13.238 -2.79,2.941 -6.39,4.398 -10.93,4.398 -4.32,0 -7.85,-1.468 -10.62,-4.457 -2.75,-2.972 -4.45,-7.371 -5.03,-13.179 m 33.81,-9.832 h -33.81 c 0.06,-3.918 0.84,-7.399 2.37,-10.379 1.56,-2.993 3.59,-5.262 6.16,-6.789 2.56,-1.512 5.36,-2.262 8.46,-2.262 2.07,0 3.94,0.219 5.66,0.742 1.69,0.469 3.36,1.238 4.96,2.27 1.61,1.019 3.07,2.128 4.43,3.339 1.34,1.161 3.1,2.778 5.27,4.789 0.9,0.75 2.16,1.161 3.79,1.161 1.78,0 3.19,-0.5 4.32,-1.481 1.1,-0.98 1.63,-2.34 1.63,-4.121 0,-1.559 -0.61,-3.379 -1.79,-5.449 -1.25,-2.121 -3.09,-4.121 -5.57,-6.039 -2.5,-1.899 -5.6,-3.512 -9.32,-4.762 -3.72,-1.269 -8.03,-1.91 -12.87,-1.91 -11.14,0 -19.75,3.16 -25.91,9.48 -6.16,6.34 -9.27,14.942 -9.27,25.77 0,5.121 0.78,9.863 2.32,14.23 1.5,4.391 3.71,8.11 6.65,11.243 2.9,3.148 6.47,5.519 10.76,7.187 4.23,1.672 8.96,2.5 14.17,2.5 6.74,0 12.54,-1.43 17.38,-4.309 4.81,-2.808 8.49,-6.511 10.85,-11.019 2.41,-4.531 3.61,-9.109 3.61,-13.832 0,-4.32 -1.25,-7.129 -3.74,-8.43 -2.48,-1.289 -5.98,-1.929 -10.51,-1.929"
         style="fill:#86b1b8;fill-opacity:1;fill-rule:nonzero;stroke:none"
         id="path226" /><path
         d="m 2785.44,184.852 h 31.33 c -0.43,5.89 -2.03,10.328 -4.77,13.238 -2.81,2.941 -6.41,4.398 -10.95,4.398 -4.3,0 -7.83,-1.468 -10.61,-4.457 -2.75,-2.972 -4.44,-7.371 -5,-13.179 m 33.8,-9.832 h -33.8 c 0.04,-3.918 0.83,-7.399 2.35,-10.379 1.56,-2.993 3.6,-5.262 6.15,-6.789 2.54,-1.512 5.36,-2.262 8.47,-2.262 2.04,0 3.95,0.219 5.63,0.742 1.73,0.469 3.37,1.238 5,2.27 1.61,1.019 3.06,2.128 4.42,3.339 1.33,1.161 3.1,2.778 5.25,4.789 0.9,0.75 2.18,1.161 3.79,1.161 1.79,0 3.22,-0.5 4.34,-1.481 1.09,-0.98 1.6,-2.34 1.6,-4.121 0,-1.559 -0.58,-3.379 -1.82,-5.449 -1.19,-2.121 -3.03,-4.121 -5.53,-6.039 -2.47,-1.899 -5.6,-3.512 -9.31,-4.762 -3.71,-1.269 -8.05,-1.91 -12.89,-1.91 -11.11,0 -19.72,3.16 -25.9,9.48 -6.16,6.34 -9.26,14.942 -9.26,25.77 0,5.121 0.78,9.863 2.32,14.23 1.51,4.391 3.72,8.11 6.64,11.243 2.9,3.148 6.48,5.519 10.75,7.187 4.26,1.672 9.01,2.5 14.19,2.5 6.73,0 12.52,-1.43 17.41,-4.309 4.81,-2.808 8.44,-6.511 10.81,-11.019 2.4,-4.531 3.64,-9.109 3.64,-13.832 0,-4.32 -1.28,-7.129 -3.74,-8.43 -2.5,-1.289 -6,-1.929 -10.51,-1.929"
         style="fill:#86b1b8;fill-opacity:1;fill-rule:nonzero;stroke:none"
         id="path228" /><path
         d="m 2890.98,179.582 c 0,4.566 -0.71,8.488 -2.09,11.75 -1.4,3.277 -3.32,5.777 -5.77,7.52 -2.46,1.75 -5.22,2.628 -8.22,2.628 -4.76,0 -8.79,-1.878 -12.05,-5.621 -3.28,-3.769 -4.93,-9.289 -4.93,-16.609 0,-6.852 1.62,-12.219 4.9,-16.039 3.24,-3.832 7.24,-5.723 12.08,-5.723 2.85,0 5.54,0.844 7.98,2.481 2.47,1.679 4.42,4.179 5.89,7.511 1.46,3.352 2.21,7.379 2.21,12.102 m -33.88,25.109 v -2.07 c 3.23,4.008 6.62,6.949 10.17,8.828 3.44,1.891 7.44,2.852 11.86,2.852 5.3,0 10.24,-1.403 14.71,-4.11 4.48,-2.769 8,-6.781 10.59,-12.05 2.6,-5.301 3.91,-11.532 3.91,-18.762 0,-5.297 -0.75,-10.199 -2.24,-14.66 -1.49,-4.457 -3.58,-8.188 -6.19,-11.199 -2.62,-2.989 -5.7,-5.34 -9.26,-6.969 -3.62,-1.61 -7.41,-2.422 -11.52,-2.422 -4.92,0 -9.08,0.992 -12.43,2.98 -3.34,1.942 -6.54,4.883 -9.6,8.7 v -25.95 c 0,-7.558 -2.77,-11.379 -8.3,-11.379 -3.26,0 -5.38,0.969 -6.47,2.93 -1.01,1.988 -1.56,4.809 -1.56,8.602 v 74.597 c 0,3.289 0.71,5.731 2.14,7.383 1.43,1.578 3.41,2.418 5.89,2.418 2.46,0 4.44,-0.84 5.98,-2.488 1.56,-1.692 2.32,-4.07 2.32,-7.231"
         style="fill:#86b1b8;fill-opacity:1;fill-rule:nonzero;stroke:none"
         id="path230" /><path
         d="m 2934.3,204.609 v -50 c 0,-3.437 -0.82,-6.058 -2.46,-7.808 -1.66,-1.801 -3.73,-2.672 -6.27,-2.672 -2.54,0 -4.57,0.891 -6.19,2.711 -1.56,1.832 -2.37,4.43 -2.37,7.769 v 49.5 c 0,3.403 0.81,5.973 2.37,7.7 1.62,1.75 3.65,2.601 6.19,2.601 2.54,0 4.61,-0.851 6.27,-2.601 1.64,-1.727 2.46,-4.149 2.46,-7.2 m -8.56,17.84 c -2.41,0 -4.46,0.77 -6.15,2.25 -1.73,1.481 -2.58,3.531 -2.58,6.231 0,2.461 0.87,4.461 2.65,6.062 1.74,1.559 3.77,2.379 6.08,2.379 2.27,0 4.24,-0.711 5.96,-2.121 1.73,-1.469 2.6,-3.578 2.6,-6.32 0,-2.66 -0.84,-4.739 -2.51,-6.231 -1.69,-1.48 -3.7,-2.25 -6.05,-2.25"
         style="fill:#86b1b8;fill-opacity:1;fill-rule:nonzero;stroke:none"
         id="path232" /><path
         d="m 2990.01,152.02 -15.22,25.101 -9.38,-8.859 v -13.77 c 0,-3.32 -0.89,-5.871 -2.65,-7.652 -1.72,-1.82 -3.77,-2.711 -6.03,-2.711 -2.66,0 -4.77,0.871 -6.28,2.672 -1.5,1.75 -2.29,4.371 -2.29,7.828 v 73.723 c 0,3.828 0.77,6.75 2.21,8.757 1.49,2.032 3.63,3.012 6.36,3.012 2.65,0 4.74,-0.91 6.33,-2.742 1.56,-1.797 2.35,-4.488 2.35,-8.008 V 187.43 l 19.43,20.41 c 2.42,2.512 4.22,4.269 5.51,5.191 1.26,0.93 2.79,1.379 4.59,1.379 2.18,0 3.97,-0.691 5.45,-2.058 1.41,-1.36 2.13,-3.09 2.13,-5.153 0,-2.519 -2.35,-5.918 -7.03,-10.14 l -9.17,-8.411 17.71,-27.878 c 1.29,-2.09 2.27,-3.622 2.83,-4.711 0.55,-1.059 0.86,-2.118 0.86,-3.067 0,-2.762 -0.76,-4.902 -2.27,-6.512 -1.49,-1.57 -3.49,-2.351 -5.9,-2.351 -2.11,0 -3.76,0.543 -4.89,1.711 -1.13,1.14 -2.71,3.211 -4.65,6.18"
         style="fill:#86b1b8;fill-opacity:1;fill-rule:nonzero;stroke:none"
         id="path234" /><path
         d="m 3027.58,144.129 c -2.62,0 -4.86,0.832 -6.76,2.543 -1.89,1.648 -2.86,4.027 -2.86,7.098 0,2.562 0.93,4.781 2.73,6.621 1.84,1.871 4.06,2.8 6.72,2.8 2.66,0 4.9,-0.929 6.82,-2.75 1.86,-1.839 2.81,-4.082 2.81,-6.671 0,-3.028 -0.95,-5.391 -2.81,-7.071 -1.92,-1.738 -4.12,-2.57 -6.65,-2.57"
         style="fill:#86b1b8;fill-opacity:1;fill-rule:nonzero;stroke:none"
         id="path236" /><path
         d="m 3113.54,165.52 c 0,-2.129 -0.65,-4.461 -1.94,-6.891 -1.27,-2.469 -3.25,-4.777 -5.91,-7 -2.62,-2.219 -5.93,-4.008 -9.96,-5.348 -4,-1.359 -8.53,-2.039 -13.53,-2.039 -10.7,0 -19.05,3.117 -25.04,9.328 -5.97,6.231 -8.98,14.59 -8.98,25.051 0,7.129 1.37,13.371 4.13,18.828 2.72,5.43 6.69,9.653 11.87,12.633 5.2,2.977 11.45,4.457 18.63,4.457 4.49,0 8.58,-0.648 12.34,-1.957 3.74,-1.312 6.89,-3.012 9.51,-5.07 2.57,-2.09 4.56,-4.282 5.92,-6.614 1.37,-2.347 2.06,-4.527 2.06,-6.566 0,-2.062 -0.76,-3.82 -2.3,-5.25 -1.56,-1.43 -3.44,-2.16 -5.58,-2.16 -1.46,0 -2.66,0.367 -3.61,1.109 -0.96,0.739 -2.03,1.918 -3.19,3.598 -2.12,3.191 -4.31,5.621 -6.63,7.203 -2.3,1.609 -5.22,2.406 -8.77,2.406 -5.07,0 -9.21,-1.976 -12.35,-5.976 -3.11,-3.973 -4.68,-9.461 -4.68,-16.36 0,-3.261 0.41,-6.261 1.22,-8.98 0.78,-2.711 1.94,-5.043 3.46,-6.953 1.54,-1.918 3.35,-3.367 5.5,-4.367 2.17,-1.02 4.55,-1.5 7.1,-1.5 3.48,0 6.45,0.796 8.91,2.398 2.51,1.602 4.68,4.051 6.57,7.352 1.06,1.937 2.19,3.437 3.4,4.558 1.21,1.09 2.71,1.66 4.5,1.66 2.11,0 3.87,-0.82 5.24,-2.429 1.4,-1.602 2.11,-3.321 2.11,-5.121"
         style="fill:#86b1b8;fill-opacity:1;fill-rule:nonzero;stroke:none"
         id="path238" /><path
         d="m 3170.77,179.25 c 0,7.059 -1.56,12.539 -4.65,16.449 -3.08,3.981 -7.26,5.93 -12.5,5.93 -3.39,0 -6.36,-0.887 -8.94,-2.629 -2.58,-1.738 -4.54,-4.32 -5.94,-7.762 -1.39,-3.418 -2.09,-7.418 -2.09,-11.988 0,-4.508 0.67,-8.449 2.05,-11.82 1.4,-3.399 3.35,-5.969 5.92,-7.77 2.56,-1.769 5.56,-2.699 9,-2.699 5.24,0 9.42,1.988 12.5,5.961 3.09,3.93 4.65,9.387 4.65,16.328 m 17.35,0 c 0,-5.129 -0.81,-9.891 -2.37,-14.25 -1.64,-4.352 -3.94,-8.09 -6.99,-11.18 -3.04,-3.129 -6.68,-5.519 -10.88,-7.199 -4.26,-1.66 -8.99,-2.5 -14.26,-2.5 -5.23,0 -9.94,0.84 -14.14,2.551 -4.15,1.648 -7.79,4.09 -10.83,7.219 -3.06,3.168 -5.38,6.879 -7.01,11.16 -1.52,4.301 -2.33,9.031 -2.33,14.199 0,5.25 0.82,10.039 2.38,14.379 1.62,4.371 3.94,8.09 6.92,11.16 3.01,3.07 6.63,5.441 10.87,7.133 4.3,1.648 9.01,2.488 14.14,2.488 5.24,0 9.98,-0.84 14.26,-2.539 4.26,-1.672 7.88,-4.101 10.96,-7.191 3.04,-3.168 5.35,-6.871 6.92,-11.141 1.56,-4.34 2.36,-9.07 2.36,-14.289"
         style="fill:#86b1b8;fill-opacity:1;fill-rule:nonzero;stroke:none"
         id="path240" /><path
         d="M 3254.05,177.992 V 155.02 c 0,-3.649 -0.81,-6.348 -2.46,-8.18 -1.67,-1.82 -3.82,-2.719 -6.52,-2.719 -2.62,0 -4.76,0.899 -6.34,2.719 -1.64,1.832 -2.47,4.531 -2.47,8.18 v 27.531 c 0,4.347 -0.15,7.738 -0.43,10.16 -0.3,2.359 -1.12,4.359 -2.41,5.879 -1.32,1.57 -3.4,2.351 -6.21,2.351 -5.67,0 -9.38,-1.941 -11.17,-5.871 -1.78,-3.84 -2.71,-9.429 -2.71,-16.718 V 155.02 c 0,-3.579 -0.82,-6.309 -2.4,-8.149 -1.67,-1.832 -3.79,-2.75 -6.44,-2.75 -2.63,0 -4.77,0.918 -6.44,2.75 -1.68,1.84 -2.51,4.57 -2.51,8.149 v 49.441 c 0,3.258 0.74,5.738 2.23,7.41 1.53,1.699 3.51,2.539 5.93,2.539 2.38,0 4.35,-0.82 5.95,-2.371 1.57,-1.59 2.35,-3.769 2.35,-6.559 v -1.621 c 3.03,3.563 6.24,6.211 9.64,7.86 3.44,1.73 7.21,2.582 11.42,2.582 4.33,0 8.06,-0.879 11.18,-2.61 3.12,-1.73 5.68,-4.359 7.72,-7.832 2.93,3.512 6.06,6.141 9.41,7.86 3.33,1.722 7.01,2.582 11.07,2.582 4.7,0 8.8,-0.961 12.23,-2.813 3.4,-1.84 5.95,-4.527 7.63,-7.957 1.48,-3.152 2.21,-8.062 2.21,-14.769 V 155.02 c 0,-3.649 -0.81,-6.348 -2.45,-8.18 -1.64,-1.82 -3.83,-2.719 -6.52,-2.719 -2.63,0 -4.77,0.918 -6.43,2.75 -1.67,1.84 -2.52,4.57 -2.52,8.149 v 29.062 c 0,3.719 -0.15,6.688 -0.45,8.918 -0.31,2.25 -1.19,4.141 -2.56,5.648 -1.41,1.512 -3.53,2.293 -6.34,2.293 -2.28,0 -4.45,-0.722 -6.5,-2.05 -2.04,-1.321 -3.64,-3.192 -4.8,-5.422 -1.24,-2.918 -1.89,-8.09 -1.89,-15.477"
         style="fill:#86b1b8;fill-opacity:1;fill-rule:nonzero;stroke:none"
         id="path242" /><path
         d="m 2449.58,183.449 -0.01,0.11 0.01,-0.11"
         style="fill:#86b1b8;fill-opacity:1;fill-rule:nonzero;stroke:none"
         id="path244" /><path
         d="m 2450.45,177.91 h 0.02 c -0.33,1.57 -0.58,3.129 -0.79,4.692 0.21,-1.563 0.46,-3.133 0.77,-4.692"
         style="fill:#86b1b8;fill-opacity:1;fill-rule:nonzero;stroke:none"
         id="path246" /><path
         d="m 2456.18,161.871 -0.12,0.231 0.12,-0.231"
         style="fill:#86b1b8;fill-opacity:1;fill-rule:nonzero;stroke:none"
         id="path248" /><path
         d="m 2455.63,162.941 -0.43,0.899 0.43,-0.899"
         style="fill:#86b1b8;fill-opacity:1;fill-rule:nonzero;stroke:none"
         id="path250" /><path
         d="m 2452.07,171.742 c 0.84,-2.672 1.86,-5.262 3.04,-7.722 -1.2,2.511 -2.2,5.101 -3.03,7.722 h -0.01"
         style="fill:#86b1b8;fill-opacity:1;fill-rule:nonzero;stroke:none"
         id="path252" /><path
         d="m 2516.47,249.66 c 3.35,0 5.82,-0.262 8.64,-0.738 l 0.81,5.09 c 0,0 -7.81,2.398 -18.07,1.57 l -0.81,2.75 c 3.19,0.668 5.59,3.52 5.59,6.898 0,3.879 -3.17,7.02 -7.05,7.02 -3.89,0 -7.04,-3.141 -7.04,-7.02 0,-3.378 2.39,-6.23 5.57,-6.898 l 0.9,-3.094 c -10.89,-1.488 -19.57,-5.738 -19.57,-5.738 l 1.54,-4.699 c 6.59,2.191 12.31,3.531 17.49,4.101 5.08,0.52 8.9,0.758 12,0.758"
         style="fill:#86b1b8;fill-opacity:1;fill-rule:nonzero;stroke:none"
         id="path254" /><path
         d="m 2456.04,223.961 0.04,0.039 0.76,0.949 -2.08,1.512 -3.26,2.379 c -0.18,-0.27 -5.29,-4.961 -9.34,-13.66 l -0.6,0.8 c -1.21,1.321 -2.9,2 -5.05,1.961 h -0.1 c -1.33,0 -2.24,0.438 -2.84,0.981 0.6,0.75 0.95,1.699 0.95,2.75 0,2.449 -2,4.449 -4.46,4.449 -2.46,0 -4.45,-2 -4.45,-4.449 0,-2.473 1.99,-4.461 4.45,-4.461 l 1.11,0.141 c 1.1,-1.223 2.84,-2.27 5.39,-2.223 1.31,0.012 2.27,-0.328 2.91,-1.047 l 1.07,-2.852 -0.02,-0.019 c -2.91,-7.93 -2.08,-17.789 -2.08,-17.789 l 7.05,-0.301 c 0.14,3.598 0.66,9.891 2.47,14.879 3.51,9.66 7.91,15.691 8.08,15.961"
         style="fill:#86b1b8;fill-opacity:1;fill-rule:nonzero;stroke:none"
         id="path256" /><path
         d="m 2577.78,243.781 c -2.44,0 -4.44,-1.992 -4.44,-4.461 l 0.16,-1.101 c -1.23,-1.11 -2.3,-2.848 -2.26,-5.399 0.03,-1.32 -0.31,-2.261 -1.03,-2.922 l -1.97,-0.937 c -5.24,7.359 -11.7,11.84 -11.7,11.84 l -5.06,-5.422 c 3.83,-3.481 7.73,-7.828 11.52,-13.258 2.63,-3.762 5.32,-8.601 7.58,-13.441 l 6.82,3.242 c 0,0 -3.11,7.707 -7.5,14.609 l 2.2,1.289 c 1.34,1.192 1.99,2.899 1.95,5.051 -0.01,1.379 0.44,2.32 0.99,2.938 0.77,-0.59 1.72,-0.95 2.74,-0.95 2.48,0 4.48,2 4.48,4.461 0,2.469 -2,4.461 -4.48,4.461"
         style="fill:#86b1b8;fill-opacity:1;fill-rule:nonzero;stroke:none"
         id="path258" /><path
         d="m 2560.09,182.441 c -9.41,-4.57 -24.86,-10.621 -45.2,-13.461 -7.99,-1.109 -15.73,-1.511 -22.85,-1.511 -9.27,0 -17.46,0.691 -23.74,1.492 -7.18,0.891 -12.78,2 -16.22,2.781 0.83,-2.621 1.83,-5.211 3.03,-7.722 l 0.09,-0.18 0.43,-0.899 0.43,-0.839 0.12,-0.231 c 2.01,-3.789 4.44,-7.289 7.2,-10.32 9.59,-10.492 19.37,-12.16 19.47,-12.172 l 0.15,-0.008 0.14,-0.051 c 0.09,-0.039 8.76,-2.851 21.93,-2.851 12.97,0 25.7,2.621 37.82,7.793 8.99,4.597 17.48,11.57 21.69,17.797 3.25,4.812 5.61,9.941 7,15.281 0.74,2.84 1.33,7.379 0.98,12.172 -2.65,-1.793 -6.83,-4.301 -12.47,-7.071"
         style="fill:#86b1b8;fill-opacity:1;fill-rule:nonzero;stroke:none"
         id="path260" /><path
         d="m 2485.91,226.629 c 10.37,0 18.77,-8.41 18.77,-18.777 0,-10.364 -8.4,-18.762 -18.77,-18.762 -10.36,0 -18.77,8.398 -18.77,18.762 0,10.367 8.41,18.777 18.77,18.777 z m 54.92,-0.469 c 6.41,0 11.63,-5.199 11.63,-11.609 0,-6.422 -5.22,-11.621 -11.63,-11.621 -6.41,0 -11.61,5.199 -11.61,11.621 0,6.41 5.2,11.609 11.61,11.609 z m -81.77,-4.43 c -0.27,-0.398 -4.34,-6.171 -7.56,-15.019 -2.41,-6.629 -2.31,-16.289 -2.31,-16.402 v -0.02 c 0,-2.258 0.13,-4.5 0.38,-6.73 l 0.01,-0.11 0.1,-0.847 c 0.21,-1.563 0.46,-3.122 0.79,-4.692 4.67,-1.18 32.52,-7.68 63.64,-3.34 19.51,2.719 34.33,8.489 43.32,12.84 7.47,3.629 12.28,6.91 14.12,8.25 -1.84,6.852 -6.93,17.602 -11.61,24.309 -13.37,19.09 -27.77,23.992 -35.17,25.222 -2.83,0.438 -5.09,0.719 -8.3,0.719 -2.97,0 -6.67,-0.25 -11.6,-0.758 -4.96,-0.511 -10.48,-1.812 -16.88,-3.98 -8.99,-3.012 -17.12,-7.711 -23.51,-13.641 l -0.22,-0.211 c -0.94,-0.859 -2.92,-2.699 -5.2,-5.59"
         style="fill:#86b1b8;fill-opacity:1;fill-rule:nonzero;stroke:none"
         id="path262" /></g></g></svg>
