<?xml version="1.0" encoding="UTF-8" standalone="no"?>
<svg
   xmlns:dc="http://purl.org/dc/elements/1.1/"
   xmlns:cc="http://creativecommons.org/ns#"
   xmlns:rdf="http://www.w3.org/1999/02/22-rdf-syntax-ns#"
   xmlns:svg="http://www.w3.org/2000/svg"
   xmlns="http://www.w3.org/2000/svg"
   xmlns:sodipodi="http://sodipodi.sourceforge.net/DTD/sodipodi-0.dtd"
   xmlns:inkscape="http://www.inkscape.org/namespaces/inkscape"
   version="1.1"
   id="svg2"
   xml:space="preserve"
   width="4800"
   height="3200"
   viewBox="0 0 4800 3200"
   sodipodi:docname="data analysis.eps"><metadata
     id="metadata8"><rdf:RDF><cc:Work
         rdf:about=""><dc:format>image/svg+xml</dc:format><dc:type
           rdf:resource="http://purl.org/dc/dcmitype/StillImage" /></cc:Work></rdf:RDF></metadata><defs
     id="defs6" /><sodipodi:namedview
     pagecolor="#ffffff"
     bordercolor="#666666"
     borderopacity="1"
     objecttolerance="10"
     gridtolerance="10"
     guidetolerance="10"
     inkscape:pageopacity="0"
     inkscape:pageshadow="2"
     inkscape:window-width="640"
     inkscape:window-height="480"
     id="namedview4" /><g
     id="g10"
     inkscape:groupmode="layer"
     inkscape:label="ink_ext_XXXXXX"
     transform="matrix(1.3333333,0,0,-1.3333333,0,3200)"><g
       id="g12"
       transform="scale(0.1)"><path
         d="M 0,-0.0976563 H 36000 V 23998.102 H 0 Z"
         style="fill:#ffe1e4;fill-opacity:1;fill-rule:nonzero;stroke:none"
         id="path14" /><path
         d="m 23030.3,10.7031 h -938.9 L 22363.7,3447.1 23948.8,3447 C 23692.2,2627.5 23604,1953.6 23596.7,1425.7 23275.4,981.602 23018.5,520.801 23030.3,10.7031 M 30245.9,12284.5 v 6168.2 c 0,614.5 -498.1,1112.6 -1112.6,1112.6 H 27747 c 360.9,827.9 1479.4,2943.8 3262.5,2943.8 411.9,0 859.2,-112.9 1340.8,-380.6 0,0 1212.5,-738.6 -162.8,-2843.1 0,0 -1111.9,-1164.5 -537.5,-2300.3 564.2,-1115.7 675.8,-3279.4 -1404.1,-4700.6"
         style="fill:#ffebed;fill-opacity:1;fill-rule:nonzero;stroke:none"
         id="path16" /><path
         d="m 24755.3,-0.0976563 h -923.8 C 23821.7,19 23583.7,495.602 23596.7,1425.7 c 223.1,308.4 477.3,608.7 694.2,912 161.3,225.4 592.9,596.4 1112.9,1109.1 l 2599.8,-0.3 C 27567.5,1915.1 26389.4,1549.6 26389.4,1549.6 24781.3,807.402 24755.7,24.6016 24755.3,-0.0976563 M 30987.6,4071.5 c -233.8,0 -449.7,57 -617.7,159.7 -48.5,29.6 -98.7,59 -150.3,87.8 17.2,77.8 26.3,158.6 26.3,241.6 v 6570.7 c 771.1,310.1 1550.1,448.4 2344.6,456.5 11.9,0.2 23.4,0.2 35.2,0.2 2306.7,0 1886.7,-2374.1 798.4,-3041.1 -1093.8,-670.4 -584.4,-1927.4 -584.4,-1927.4 -1.7,-1856.1 -1036.8,-2548 -1852.1,-2548"
         style="fill:#ffebed;fill-opacity:1;fill-rule:nonzero;stroke:none"
         id="path18" /><path
         d="m 23596.7,1425.7 c 7.3,527.9 95.5,1201.8 352.1,2021.3 l 1455,-0.2 c -520,-512.7 -951.6,-883.7 -1112.9,-1109.1 -216.9,-303.3 -471.1,-603.6 -694.2,-912"
         style="fill:#fff2f3;fill-opacity:1;fill-rule:nonzero;stroke:none"
         id="path20" /><path
         d="m 13783.2,8.80078 c 0,0 -1827.9,68.60152 -2215.2,2010.49922 -152.6,764.8 -522.8,1194.2 -939.9,1428.7 h 2938.8 L 14502.8,13 13783.2,8.80078 M 6605.34,3333.4 c -397.7,0 -813.42,32.4 -1221.75,117.8 -1718.01,359.3 -2786.12,2087.7 -2354.95,3789.1 303.41,1197.3 618.17,2873 139.42,3297 -766,678.4 -2844.224,2798.2 -1608.13,4175.6 423.47,471.9 891.24,664.6 1368.03,664.6 914.94,0 1863.72,-709 2600.91,-1515.4 0,0 611.05,-845.4 1141.19,-1376.6 V 4560.6 c 0,-614.5 498.11,-1112.6 1112.56,-1112.6 h 192.07 c -392.24,-62.6 -866.28,-114.6 -1369.35,-114.6"
         style="fill:#ffebed;fill-opacity:1;fill-rule:nonzero;stroke:none"
         id="path22" /><path
         d="m 20521.3,-0.0976563 h -30.7 L 19472.5,19.9023 c 0,0 -342.6,184.1997 -864.3,491.5977 h 1871.2 l 41.9,-511.5976563 M 15751.9,2407 c -441.3,337.6 -861.1,689.6 -1218.5,1041 h 681.1 L 16047,3447.9 15751.9,2407 M 6670.06,15418.3 c -93.64,190.1 -214.61,367 -371.18,527.2 -1495.57,1530 -1833.31,3873.4 -769.13,4680.5 1047.29,794.3 2194.04,1088.1 3300.28,1088.1 1811.47,0 3514.87,-787.2 4499.07,-1453.7 277.4,-187.8 563.7,-421.1 854.9,-695.1 H 7782.62 v 0 c -0.51,0 -1,0 -1.52,0 -0.22,0 -0.51,0 -0.73,0 -0.18,0 -0.35,0 -0.53,0 -75.11,-0.2 -148.5,-7.8 -219.42,-22.2 -257.07,-51.2 -528.43,-195.5 -707.12,-478.5 -88.1,-133.5 -148.2,-287.1 -171.91,-452.5 -3,-15.9 -5.79,-32.1 -8.36,-48.5 v -29 c -1.97,-27 -2.97,-54.3 -2.97,-81.9 v -3034.4"
         style="fill:#ffebed;fill-opacity:1;fill-rule:nonzero;stroke:none"
         id="path24" /><path
         d="m 21644.3,511.5 h -6429.8 l 1493.2,5266.7 h 3500.6 l 1436,-5266.7"
         style="fill:#283abc;fill-opacity:1;fill-rule:nonzero;stroke:none"
         id="path26" /><path
         d="M 22122.9,591.5 H 14793 V 8.80078 h 7329.9 V 591.5"
         style="fill:#303dcf;fill-opacity:1;fill-rule:nonzero;stroke:none"
         id="path28" /><path
         d="M 29133.3,3448 H 7782.62 c -614.45,0 -1112.56,498.1 -1112.56,1112.6 v 13892.1 c 0,614.5 498.11,1112.6 1112.56,1112.6 H 29133.3 c 614.5,0 1112.6,-498.1 1112.6,-1112.6 V 4560.6 c 0,-614.5 -498.1,-1112.6 -1112.6,-1112.6"
         style="fill:#303dcf;fill-opacity:1;fill-rule:nonzero;stroke:none"
         id="path30" /><path
         d="m 7634.03,4829.7 h 21492.3 V 18588.8 H 7634.03 Z"
         style="fill:#ffffff;fill-opacity:1;fill-rule:nonzero;stroke:none"
         id="path32" /><path
         d="M 23085.8,7450 H 11915.2 c -552.2,0 -999.9,447.7 -999.9,999.9 v 7900.3 c 0,552.2 447.7,999.9 999.9,999.9 h 11170.6 c 552.2,0 999.9,-447.7 999.9,-999.9 V 8449.9 c 0,-552.2 -447.7,-999.9 -999.9,-999.9"
         style="fill:#f2f2f2;fill-opacity:1;fill-rule:nonzero;stroke:none"
         id="path34" /><path
         d="m 13430.8,7450 h 2097.8 v 8192.47 h -2097.8 z"
         style="fill:#fcb0b5;fill-opacity:1;fill-rule:nonzero;stroke:none"
         id="path36" /><path
         d="m 16451.6,7450 h 2097.8 v 8192.46 h -2097.8 z"
         style="fill:#ffe1e4;fill-opacity:1;fill-rule:nonzero;stroke:none"
         id="path38" /><path
         d="m 16451.6,7450 h 2097.8 v 4919.9 h -2097.8 z"
         style="fill:#fcb0b5;fill-opacity:1;fill-rule:nonzero;stroke:none"
         id="path40" /><path
         d="m 19472.5,7450 h 2097.8 v 4416.4 h -2097.8 z"
         style="fill:#ffe1e4;fill-opacity:1;fill-rule:nonzero;stroke:none"
         id="path42" /><path
         d="m 19472.5,7450 h 2097.8 v 1695.3 h -2097.8 z"
         style="fill:#fcb0b5;fill-opacity:1;fill-rule:nonzero;stroke:none"
         id="path44" /><path
         d="m 24031.6,17983.8 c -1554.1,0 -2814,-1259.9 -2814,-2814 0,-1554.1 1259.9,-2814 2814,-2814 1554.1,0 2814,1259.9 2814,2814 0,1554.1 -1259.9,2814 -2814,2814 m 0,-1126.4 c 930.5,0 1687.6,-757.1 1687.6,-1687.6 0,-930.6 -757.1,-1687.6 -1687.6,-1687.6 -930.6,0 -1687.6,757 -1687.6,1687.6 0,930.5 757,1687.6 1687.6,1687.6"
         style="fill:#ffe1e4;fill-opacity:1;fill-rule:nonzero;stroke:none"
         id="path46" /><path
         d="m 24031.6,16857.3 c -930.6,0 -1687.6,-757 -1687.6,-1687.5 0,-930.6 757,-1687.6 1687.6,-1687.6 468.6,0 904.2,187.6 1226.4,528.3 l 818.4,-774 c -513,-542.4 -1239.4,-880.7 -2044.8,-880.7 -1554.1,0 -2814,1259.8 -2814,2814 0,1554.1 1259.9,2814 2814,2814 v -1126.5"
         style="fill:#fcc718;fill-opacity:1;fill-rule:nonzero;stroke:none"
         id="path48" /><path
         d="m 24402.6,10302.9 h -1439.2 c -262.4,0 -475.2,-212.8 -475.2,-475.2 v -475.1 c 0,-262.4 212.8,-475.2 475.2,-475.2 h 1275.5 l 326.5,-330.7 v 359.4 c 182.3,66.4 312.4,241.3 312.4,446.5 v 475.1 c 0,262.4 -212.8,475.2 -475.2,475.2"
         style="fill:#ffe1e4;fill-opacity:1;fill-rule:nonzero;stroke:none"
         id="path50" /><path
         d="m 23703.6,9453.9 c -29.7,-52.8 -81.5,-119 -142.6,-137 -38.1,-11.2 -91.3,0.1 -87.3,52.6 2.6,34.9 40.2,73.9 63.9,97.9 40.5,41.1 89.9,72.6 140.9,99.1 17.5,9.1 43.2,23.6 70.9,36.1 -4.2,-52 -20.3,-103.5 -45.8,-148.7 m 716.1,128.4 c 10.8,23.8 -25.7,41.9 -36.5,18 -21.1,-46.6 -43.5,-99.5 -86.1,-130.5 -45.1,-32.8 -122.7,-28.5 -137.5,35.1 -3.1,13.3 -20.3,16.6 -30.6,10.4 -39.1,-23.9 -208,-132.9 -204.1,-14.1 1.4,42.2 28.8,73.2 5.6,115.3 -30.4,55 -86.5,55.8 -140.5,41 -0.6,7.3 -1.4,14.5 -2.5,21.7 -30.4,198.9 -215.2,288.6 -395.2,211.8 -237.3,-101.1 -392.3,-364 -447.4,-605.6 -5.9,-25.6 34.2,-33.2 40,-7.6 51.8,226.9 197.6,478.7 420.5,574.7 103.4,44.5 226.3,38.5 295.7,-60.3 31.2,-44.3 46.5,-95.7 49,-148.1 -17.8,-7 -34.6,-14.7 -49,-21.4 -91.1,-42.5 -182.7,-97.4 -238.6,-183.7 -39.9,-61.8 -42.5,-142 42,-164.1 87.8,-23 171.2,64 215.4,128.2 43.4,63.1 69.6,139 71.3,215.7 29.7,9.1 58.5,12 79.1,0 78,-45.4 -39.9,-161.9 41.2,-213.9 58.2,-37.2 158.5,25 218.4,62.8 23.9,-46.2 80,-66.9 132.5,-57.1 83.5,15.5 125.8,102.1 157.3,171.7"
         style="fill:#303dcf;fill-opacity:1;fill-rule:nonzero;stroke:none"
         id="path52" /><path
         d="M 17978.3,5377.3 H 14279 c -323.3,0 -585.4,262.1 -585.4,585.4 v 0.1 c 0,323.3 262.1,585.4 585.4,585.4 h 3699.3 c 323.3,0 585.4,-262.1 585.4,-585.4 v -0.1 c 0,-323.3 -262.1,-585.4 -585.4,-585.4"
         style="fill:#fcc718;fill-opacity:1;fill-rule:nonzero;stroke:none"
         id="path54" /><path
         d="m 14468.4,6240.2 45.6,-92.4 c 10.6,-21.6 31.2,-36.5 55,-40 l 102,-14.8 c 59.9,-8.7 83.9,-82.4 40.5,-124.7 l -73.8,-71.9 c -17.2,-16.8 -25.1,-41 -21,-64.7 l 17.4,-101.5 c 10.2,-59.7 -52.4,-105.3 -106.1,-77.1 l -91.2,47.9 c -21.3,11.3 -46.7,11.3 -68,0 l -91.2,-47.9 c -53.6,-28.2 -116.3,17.4 -106.1,77.1 l 17.5,101.5 c 4,23.7 -3.8,47.9 -21.1,64.7 l -73.7,71.9 c -43.4,42.3 -19.5,116 40.5,124.7 l 101.9,14.8 c 23.8,3.5 44.4,18.4 55.1,40 l 45.6,92.4 c 26.8,54.3 104.2,54.3 131.1,0"
         style="fill:#ffffff;fill-opacity:1;fill-rule:nonzero;stroke:none"
         id="path56" /><path
         d="m 15331.3,6240.2 45.6,-92.4 c 10.6,-21.6 31.2,-36.5 55,-40 l 102,-14.8 c 59.9,-8.7 83.9,-82.4 40.5,-124.7 l -73.8,-71.9 c -17.2,-16.8 -25.1,-41 -21,-64.7 l 17.4,-101.5 c 10.2,-59.7 -52.4,-105.3 -106.1,-77.1 l -91.2,47.9 c -21.3,11.3 -46.7,11.3 -68,0 l -91.2,-47.9 c -53.6,-28.2 -116.3,17.4 -106,77.1 l 17.4,101.5 c 4,23.7 -3.8,47.9 -21.1,64.7 l -73.7,71.9 c -43.4,42.3 -19.5,116 40.5,124.7 l 101.9,14.8 c 23.8,3.5 44.4,18.4 55.1,40 l 45.6,92.4 c 26.8,54.3 104.3,54.3 131.1,0"
         style="fill:#ffffff;fill-opacity:1;fill-rule:nonzero;stroke:none"
         id="path58" /><path
         d="m 16194.2,6240.2 45.6,-92.4 c 10.6,-21.6 31.2,-36.5 55,-40 l 102,-14.8 c 59.9,-8.7 83.9,-82.4 40.5,-124.7 l -73.8,-71.9 c -17.2,-16.8 -25.1,-41 -21,-64.7 l 17.4,-101.5 c 10.3,-59.7 -52.4,-105.3 -106.1,-77.1 l -91.2,47.9 c -21.2,11.3 -46.7,11.3 -68,0 l -91.2,-47.9 c -53.6,-28.2 -116.3,17.4 -106,77.1 l 17.4,101.5 c 4,23.7 -3.8,47.9 -21,64.7 l -73.8,71.9 c -43.4,42.3 -19.5,116 40.5,124.7 l 101.9,14.8 c 23.9,3.5 44.4,18.4 55.1,40 l 45.6,92.4 c 26.8,54.3 104.3,54.3 131.1,0"
         style="fill:#ffffff;fill-opacity:1;fill-rule:nonzero;stroke:none"
         id="path60" /><path
         d="m 17057.1,6240.2 45.6,-92.4 c 10.6,-21.6 31.2,-36.5 55,-40 l 102,-14.8 c 59.9,-8.7 83.9,-82.4 40.5,-124.7 l -73.8,-71.9 c -17.2,-16.8 -25.1,-41 -21,-64.7 l 17.4,-101.5 c 10.3,-59.7 -52.4,-105.3 -106,-77.1 l -91.2,47.9 c -21.3,11.3 -46.8,11.3 -68.1,0 l -91.2,-47.9 c -53.6,-28.2 -116.3,17.4 -106,77.1 l 17.4,101.5 c 4.1,23.7 -3.8,47.9 -21,64.7 l -73.8,71.9 c -43.4,42.3 -19.5,116 40.5,124.7 l 102,14.8 c 23.8,3.5 44.3,18.4 55,40 l 45.6,92.4 c 26.8,54.3 104.3,54.3 131.1,0"
         style="fill:#ffffff;fill-opacity:1;fill-rule:nonzero;stroke:none"
         id="path62" /><path
         d="m 17920,6240.2 45.6,-92.4 c 10.6,-21.6 31.2,-36.5 55,-40 l 102,-14.8 c 60,-8.7 83.9,-82.4 40.5,-124.7 l -73.8,-71.9 c -17.2,-16.8 -25.1,-41 -21,-64.7 l 17.4,-101.5 c 10.3,-59.7 -52.4,-105.3 -106,-77.1 l -91.2,47.9 c -21.3,11.3 -46.8,11.3 -68.1,0 l -91.2,-47.9 c -53.6,-28.2 -116.3,17.4 -106,77.1 l 17.4,101.5 c 4.1,23.7 -3.8,47.9 -21,64.7 l -73.8,71.9 c -43.4,42.3 -19.5,116 40.5,124.7 l 102,14.8 c 23.8,3.5 44.4,18.4 55,40 l 45.6,92.4 c 26.8,54.3 104.3,54.3 131.1,0"
         style="fill:#ffffff;fill-opacity:1;fill-rule:nonzero;stroke:none"
         id="path64" /><path
         d="m 9787.4,6361.3 h 1735.1 c 155.1,0 282.5,122.3 288.8,277.2 l 41.6,1029.4 c 6.6,164.1 -124.6,300.7 -288.7,300.7 H 9829.04 c -155.04,0 -282.45,-122.4 -288.72,-277.3 l -41.63,-1029.4 c -6.64,-164 124.54,-300.6 288.71,-300.6"
         style="fill:#ffe1e4;fill-opacity:1;fill-rule:nonzero;stroke:none"
         id="path66" /><path
         d="m 10945.3,6710.7 c 15.2,0 30.5,5.9 41.9,17.7 l 389.6,402.2 c 22.2,22.9 21.9,59.3 -0.7,81.9 l -389.5,389.6 c -22.8,22.8 -59.8,22.8 -82.6,0 -22.9,-22.8 -22.9,-59.8 0,-82.6 l 348.9,-348.9 -349.6,-360.9 c -22.4,-23.1 -21.9,-60.1 1.3,-82.6 11.4,-11 26,-16.4 40.7,-16.4"
         style="fill:#303dcf;fill-opacity:1;fill-rule:nonzero;stroke:none"
         id="path68" /><path
         d="m 10408.9,6710.7 c 14.7,0 29.3,5.4 40.7,16.4 23.1,22.5 23.7,59.5 1.3,82.6 l -349.6,360.9 348.9,348.9 c 22.8,22.8 22.8,59.8 0,82.6 -22.8,22.8 -59.8,22.8 -82.6,0 l -389.57,-389.6 c -22.56,-22.6 -22.85,-59 -0.64,-81.9 L 10367,6728.4 c 11.4,-11.8 26.7,-17.7 41.9,-17.7"
         style="fill:#303dcf;fill-opacity:1;fill-rule:nonzero;stroke:none"
         id="path70" /><path
         d="m 10472.1,16921.6 c 0,622.9 -501.14,1128.7 -1122.19,1136.3 -625.5,7.6 -1149.05,-508.1 -1150.47,-1133.6 -0.57,-251 80.19,-483 217.41,-671.3 226.52,-310.8 353.88,-682.7 353.88,-1067.2 v -231.7 h 1130.06 v 229.3 c 0,380.5 117.81,753.7 345.61,1058.5 141.8,189.5 225.7,424.8 225.7,679.7"
         style="fill:#fcc718;fill-opacity:1;fill-rule:nonzero;stroke:none"
         id="path72" /><path
         d="m 9751.73,16711.2 c -29.04,-74 -126.99,-134.3 -236.44,-168.4 2.95,91 25.66,160.4 70.79,217.1 28.28,35.5 65.8,59 97.9,61.3 1.75,0.1 3.45,0.2 5.13,0.2 15.04,0 27.65,-5 38.45,-15.2 30.19,-28.4 38.09,-59.5 24.17,-95 m -839.62,7.3 c -12.84,33.2 -5.66,61.1 22.56,87.7 10.81,10.2 23.43,15.2 38.47,15.2 1.68,0 3.39,-0.1 5.13,-0.2 32.11,-2.3 69.62,-25.8 97.9,-61.3 44.4,-55.8 67.1,-123.9 70.63,-212.7 -108.67,36.9 -207.01,99.7 -234.69,171.3 m 860.02,135 c -25.23,23.8 -57.32,35 -92.77,32.5 -50.4,-3.6 -104.28,-35.6 -144.1,-85.7 -57.51,-72.3 -84.65,-159.6 -85.26,-274.4 -40.45,-8.4 -80.95,-13.1 -118.74,-13.5 -37.41,0.8 -78.1,6.4 -119.04,16 -0.99,113.6 -28.14,200.2 -85.23,271.9 -39.82,50.1 -93.7,82.1 -144.1,85.7 -35.41,2.6 -67.54,-8.7 -92.78,-32.5 -47.15,-44.5 -60.86,-100.8 -38.58,-158.4 34.77,-90 155.63,-173.9 295.77,-217.2 v -1208.8 c 0,-17.9 14.54,-32.4 32.48,-32.4 17.93,0 32.47,14.5 32.47,32.4 v 1192.1 c 39.19,-8.2 79.06,-13 118.27,-13.8 h 0.59 0.01 0.28 c 39.83,0.4 79.7,4.4 118.59,11.5 v -1189.8 c 0,-17.9 14.54,-32.4 32.48,-32.4 17.94,0 32.47,14.5 32.47,32.4 V 16474 c 142.22,40 260.99,121 297.25,213.4 23.69,60.4 9.46,119.4 -40.06,166.1"
         style="fill:#ffffff;fill-opacity:1;fill-rule:nonzero;stroke:none"
         id="path74" /><path
         d="M 9623.96,14652.4 H 9040.5 c -151.87,0 -274.99,123.2 -274.99,275 v 392.2 h 1133.45 v -392.2 c 0,-151.8 -123.12,-275 -275,-275"
         style="fill:#303dcf;fill-opacity:1;fill-rule:nonzero;stroke:none"
         id="path76" /><path
         d="m 29151.1,3446.3 -1147.5,0.2 c 0.1,0.4 0.3,1 0.5,1.5 h 1129.2 c 458.2,0 851.7,277 1022.2,672.6 -161.8,-395.6 -550.6,-674.3 -1004.4,-674.3 m -6787.4,0.8 -1519.9,0.2 -0.2,0.7 h 1520.2 l -0.1,-0.9"
         style="fill:#ffe8f1;fill-opacity:1;fill-rule:nonzero;stroke:none"
         id="path78" /><path
         d="m 23948.8,3447 -1585.1,0.1 0.1,0.9 h 1585.3 c -0.1,-0.4 -0.2,-0.6 -0.3,-1"
         style="fill:#fff0f6;fill-opacity:1;fill-rule:nonzero;stroke:none"
         id="path80" /><path
         d="m 28003.6,3446.5 -2599.8,0.3 c 0.4,0.4 0.8,0.8 1.2,1.2 h 2599.1 c -0.2,-0.5 -0.4,-1.1 -0.5,-1.5"
         style="fill:#fff0f6;fill-opacity:1;fill-rule:nonzero;stroke:none"
         id="path82" /><path
         d="m 25403.8,3446.8 -1455,0.2 c 0.1,0.4 0.2,0.6 0.3,1 H 25405 c -0.4,-0.4 -0.8,-0.8 -1.2,-1.2"
         style="fill:#fff6f9;fill-opacity:1;fill-rule:nonzero;stroke:none"
         id="path84" /><path
         d="m 16047,3447.9 -832.5,0.1 h 832.5 v -0.1 M 6673.03,18534.6 v 29 c 2.57,16.4 5.36,32.6 8.36,48.5 -3.66,-25.6 -6.47,-51.4 -8.36,-77.5 m 180.27,530 c 178.69,283 450.05,427.3 707.12,478.5 -294.7,-59.7 -547.11,-235.9 -707.12,-478.5 m 926.54,500.7 c 0.18,0 0.35,0 0.53,0 -0.19,0 -0.34,0 -0.53,0 m 1.26,0 c 0.52,0 1.01,0 1.52,0 -0.52,0 -0.99,0 -1.52,0"
         style="fill:#fff0f6;fill-opacity:1;fill-rule:nonzero;stroke:none"
         id="path86" /><path
         d="m 20843.8,3447.3 -4796.8,0.6 v 0.1 h 4796.6 l 0.2,-0.7"
         style="fill:#3048dc;fill-opacity:1;fill-rule:nonzero;stroke:none"
         id="path88" /><path
         d="M 29133.3,3448 H 15214.5 l -3391.9,1381.7 h 17303.7 v 6621.9 l 1109.6,-421.8 V 4531.2 c 0,-145.3 -28.6,-283.9 -80.4,-410.6 C 29985,3725 29591.5,3448 29133.3,3448 m -21499.27,3087.9 -961,391.5 v 11607.2 c 1.89,26.1 4.7,51.9 8.36,77.5 33.81,179.7 94.05,329.3 171.91,452.5 160.01,242.6 412.42,418.8 707.12,478.5 75.25,15 149.31,22 219.42,22.2 0.19,0 0.34,0 0.53,0 0.23,0 0.5,0 0.73,0 0.53,0 1,0 1.52,0 v 0 l 2568.68,-976.5 H 7634.03 V 6535.9"
         style="fill:#3a4be6;fill-opacity:1;fill-rule:nonzero;stroke:none"
         id="path90" /><path
         d="M 29126.3,4829.7 H 11822.6 L 7634.03,6535.9 v 12052.9 h 2717.27 l 3258.5,-1238.7 h -1694.6 c -552.2,0 -999.9,-447.7 -999.9,-999.9 v -2575.3 c -607.3,-240.5 -1036.83,-833 -1036.83,-1525.8 0,-692.8 429.53,-1285.4 1036.83,-1525.8 V 8449.9 c 0,-174.5 44.7,-338.5 123.3,-481.3 H 9829.04 c -155.04,0 -282.45,-122.4 -288.72,-277.3 l -41.63,-1029.4 c -6.64,-164 124.54,-300.6 288.71,-300.6 h 1735.1 c 155.1,0 282.5,122.3 288.8,277.2 l 32.9,814 c 23.5,-1.6 47.1,-2.5 71,-2.5 h 1515.6 2097.8 923 2097.8 923.1 2097.8 1515.5 c 552.2,0 999.9,447.7 999.9,999.9 v 427.5 h 153.2 l 326.5,-330.7 v 359.4 c 182.3,66.4 312.4,241.3 312.4,446.5 v 475.1 c 0,262.4 -212.8,475.2 -475.2,475.2 h -316.9 v 2053.4 c 543.2,10.2 1048.9,174.4 1475,450.7 l 3565.6,-1355.4 V 4829.7 M 14279,6548.2 c -323.3,0 -585.4,-262.1 -585.4,-585.4 v -0.1 c 0,-323.3 262.1,-585.4 585.4,-585.4 h 3699.3 c 323.3,0 585.4,262.1 585.4,585.4 v 0.1 c 0,323.3 -262.1,585.4 -585.4,585.4 H 14279 m -5513.49,8771.4 v -392.2 c 0,-151.8 123.12,-275 274.99,-275 h 583.46 c 151.88,0 275,123.2 275,275 v 26.7 h 1.83 v 229.3 c 0,380.5 117.81,753.7 345.61,1058.5 141.8,189.5 225.7,424.8 225.7,679.7 0,622.9 -501.14,1128.7 -1122.19,1136.3 -4.54,0 -9.17,0 -13.71,0 -619.46,0 -1135.35,-512.6 -1136.76,-1133.6 -0.57,-251 80.19,-483 217.41,-671.3 200.13,-274.6 322.86,-596.8 348.74,-933.4 h -0.08"
         style="fill:#ffffff;fill-opacity:1;fill-rule:nonzero;stroke:none"
         id="path92" /><path
         d="m 23085.8,7450 h -1515.5 v 4416.4 H 19472.5 V 7450 h -923.1 v 4919.9 3102.5 l 2769.3,-1052.8 c 328.3,-1189.9 1418.6,-2063.8 2712.9,-2063.8 18.1,0 36.1,0.1 54.1,0.5 v -2053.4 h -1122.3 c -262.4,0 -475.2,-212.8 -475.2,-475.2 v -475.1 c 0,-262.4 212.8,-475.2 475.2,-475.2 h 1122.3 v -427.5 c 0,-552.2 -447.7,-999.9 -999.9,-999.9 m -6634.2,0 h -923 v 8192.5 H 13430.8 V 7450 h -1515.6 c -23.9,0 -47.5,0.9 -71,2.5 l 8.7,215.4 c 6.6,164.1 -124.6,300.7 -288.7,300.7 h -525.6 c -78.6,142.8 -123.3,306.8 -123.3,481.3 v 2273.4 c 186.8,-73.9 390.4,-114.6 603.5,-114.6 906,0 1640.4,734.5 1640.4,1640.4 0,905.9 -734.4,1640.3 -1640.4,1640.3 -213.1,0 -416.7,-40.6 -603.5,-114.5 v 2575.3 c 0,552.2 447.7,999.9 999.9,999.9 h 1694.6 l 4492.1,-1707.6 h -1650.3 v -3272.6 0 V 7450 m 7245.3,6065.5 c -182.7,36.9 -354.8,103.4 -511.1,194.3 l 511.1,-194.3"
         style="fill:#f5f6f9;fill-opacity:1;fill-rule:nonzero;stroke:none"
         id="path94" /><path
         d="m 13430.8,7450 h 2097.8 v 8192.47 h -2097.8 z"
         style="fill:#fdc3d9;fill-opacity:1;fill-rule:nonzero;stroke:none"
         id="path96" /><path
         d="m 18549.4,12369.9 h -2097.8 v 3272.6 h 1650.3 l 447.5,-170.1 v -3102.5"
         style="fill:#ffe8f1;fill-opacity:1;fill-rule:nonzero;stroke:none"
         id="path98" /><path
         d="m 16451.6,7450 h 2097.8 v 4919.9 h -2097.8 z"
         style="fill:#fdc3d9;fill-opacity:1;fill-rule:nonzero;stroke:none"
         id="path100" /><path
         d="m 19472.5,7450 v 0 4416.4 h 2097.8 V 9145.3 H 19472.5 V 7450"
         style="fill:#ffe8f1;fill-opacity:1;fill-rule:nonzero;stroke:none"
         id="path102" /><path
         d="m 19472.5,7450 h 2097.8 v 1695.3 h -2097.8 z"
         style="fill:#fdc3d9;fill-opacity:1;fill-rule:nonzero;stroke:none"
         id="path104" /><path
         d="m 23697,13515.5 c -182.8,36.9 -354.9,103.4 -511.3,194.4 l 0.1,-0.1 c 156.3,-90.9 328.4,-157.4 511.1,-194.3 h 0.1"
         style="fill:#ffe8f1;fill-opacity:1;fill-rule:nonzero;stroke:none"
         id="path106" /><path
         d="m 24031.6,12355.8 c -1294.3,0 -2384.6,873.9 -2712.9,2063.8 l 1867,-709.7 c 156.4,-91 328.5,-157.5 511.3,-194.4 l 1863.7,-708.5 c -426.1,-276.3 -931.8,-440.5 -1475,-450.7 -18,-0.4 -36,-0.5 -54.1,-0.5"
         style="fill:#fdd523;fill-opacity:1;fill-rule:nonzero;stroke:none"
         id="path108" /><path
         d="m 24565.4,8546.7 -326.5,330.7 h -1275.5 c -262.4,0 -475.2,212.8 -475.2,475.2 v 475.1 c 0,262.4 212.8,475.2 475.2,475.2 h 1122.3 316.9 c 262.4,0 475.2,-212.8 475.2,-475.2 v -475.1 c 0,-205.2 -130.1,-380.1 -312.4,-446.5 v -359.4 m -1044.6,1371.6 c -41.7,0 -85.2,-8.8 -128.5,-27.3 -237.3,-101.1 -392.3,-364 -447.4,-605.6 -3.4,-14.6 8.3,-23.4 20,-23.4 8.8,0 17.5,4.9 20,15.8 51.8,226.9 197.6,478.7 420.5,574.7 39.3,16.9 81.4,26.5 122.4,26.5 66.7,0 130.3,-25.6 173.3,-86.8 31.2,-44.3 46.5,-95.7 49,-148.1 -17.8,-7 -34.6,-14.7 -49,-21.4 -91.1,-42.5 -182.7,-97.4 -238.6,-183.7 -39.9,-61.8 -42.5,-142 42,-164.1 9.9,-2.6 19.6,-3.8 29.3,-3.8 76.6,0 146.8,74.9 186.1,132 43.4,63.1 69.6,139 71.3,215.7 15.9,4.8 31.5,8 45.8,8 12.4,0 23.7,-2.4 33.3,-8 78,-45.4 -39.9,-161.9 41.2,-213.9 12.6,-8 27.2,-11.4 42.9,-11.4 56.8,0 128.6,44.6 175.5,74.2 20,-38.7 62.6,-59.5 106.7,-59.5 8.6,0 17.2,0.8 25.8,2.4 83.5,15.5 125.8,102.1 157.3,171.7 7.2,15.9 -6.6,29.2 -19.9,29.2 -6.6,0 -13,-3.3 -16.6,-11.2 -21.1,-46.6 -43.5,-99.5 -86.1,-130.5 -17.8,-13 -40.7,-20.1 -62.8,-20.1 -33.8,0 -65.7,16.7 -74.7,55.2 -2.1,9 -10.6,13.4 -19.1,13.4 -4.1,0 -8.1,-1 -11.5,-3 -25.8,-15.8 -108.1,-68.6 -160,-68.6 -26.7,0 -45.4,14.1 -44.1,54.5 1.4,42.2 28.8,73.2 5.6,115.3 -20.2,36.6 -51.8,49.2 -86.5,49.2 -17.6,0 -35.9,-3.2 -54,-8.2 -0.6,7.3 -1.4,14.5 -2.5,21.7 -23.1,151 -135.2,239.1 -266.7,239.1 m 12.7,-605.4 c -31.8,0 -62.9,16 -59.8,56.6 2.6,34.9 40.2,73.9 63.9,97.9 40.5,41.1 89.9,72.6 140.9,99.1 17.5,9.1 43.2,23.6 70.9,36.1 -4.2,-52 -20.3,-103.5 -45.8,-148.7 -29.7,-52.8 -81.5,-119 -142.6,-137 -8.7,-2.6 -18.1,-4 -27.5,-4"
         style="fill:#ffe8f1;fill-opacity:1;fill-rule:nonzero;stroke:none"
         id="path110" /><path
         d="m 22964.9,9262 c -11.7,0 -23.4,8.8 -20,23.4 55.1,241.6 210.1,504.5 447.4,605.6 43.3,18.5 86.8,27.3 128.5,27.3 131.5,0 243.6,-88.1 266.7,-239.1 1.1,-7.2 1.9,-14.4 2.5,-21.7 18.1,5 36.4,8.2 54,8.2 34.7,0 66.3,-12.6 86.5,-49.2 23.2,-42.1 -4.2,-73.1 -5.6,-115.3 -1.3,-40.4 17.4,-54.5 44.1,-54.5 51.9,0 134.2,52.8 160,68.6 3.4,2 7.4,3 11.5,3 8.5,0 17,-4.4 19.1,-13.4 9,-38.5 40.9,-55.2 74.7,-55.2 22.1,0 45,7.1 62.8,20.1 42.6,31 65,83.9 86.1,130.5 3.6,7.9 10,11.2 16.6,11.2 13.3,0 27.1,-13.3 19.9,-29.2 -31.5,-69.6 -73.8,-156.2 -157.3,-171.7 -8.6,-1.6 -17.2,-2.4 -25.8,-2.4 -44.1,0 -86.7,20.8 -106.7,59.5 -46.9,-29.6 -118.7,-74.2 -175.5,-74.2 -15.7,0 -30.3,3.4 -42.9,11.4 -81.1,52 36.8,168.5 -41.2,213.9 -9.6,5.6 -20.9,8 -33.3,8 -14.3,0 -29.9,-3.2 -45.8,-8 -1.7,-76.7 -27.9,-152.6 -71.3,-215.7 -39.3,-57.1 -109.5,-132 -186.1,-132 -9.7,0 -19.4,1.2 -29.3,3.8 -84.5,22.1 -81.9,102.3 -42,164.1 55.9,86.3 147.5,141.2 238.6,183.7 14.4,6.7 31.2,14.4 49,21.4 -2.5,52.4 -17.8,103.8 -49,148.1 -43,61.2 -106.6,86.8 -173.3,86.8 -41,0 -83.1,-9.6 -122.4,-26.5 -222.9,-96 -368.7,-347.8 -420.5,-574.7 -2.5,-10.9 -11.2,-15.8 -20,-15.8 m 784.5,340.6 c -27.7,-12.5 -53.4,-27 -70.9,-36.1 -51,-26.5 -100.4,-58 -140.9,-99.1 -23.7,-24 -61.3,-63 -63.9,-97.9 -3.1,-40.6 28,-56.6 59.8,-56.6 9.4,0 18.8,1.4 27.5,4 61.1,18 112.9,84.2 142.6,137 25.5,45.2 41.6,96.7 45.8,148.7"
         style="fill:#3a4be6;fill-opacity:1;fill-rule:nonzero;stroke:none"
         id="path112" /><path
         d="M 17978.3,5377.3 H 14279 c -323.3,0 -585.4,262.1 -585.4,585.4 v 0.1 c 0,323.3 262.1,585.4 585.4,585.4 h 3699.3 c 323.3,0 585.4,-262.1 585.4,-585.4 v -0.1 c 0,-323.3 -262.1,-585.4 -585.4,-585.4 m -123.9,332.2 c 11.7,0 23.4,-2.8 34.1,-8.5 l 91.2,-47.9 c 11.2,-5.9 22.8,-8.6 34,-8.6 42.6,0 80.1,38.4 72,85.7 l -17.4,101.5 c -4.1,23.7 3.8,47.9 21,64.7 l 73.8,71.9 c 43.4,42.3 19.5,116 -40.5,124.7 l -102,14.8 c -23.8,3.5 -44.4,18.4 -55,40 l -45.6,92.4 c -13.4,27.2 -39.5,40.8 -65.5,40.8 -26.1,0 -52.2,-13.6 -65.6,-40.8 l -45.6,-92.4 c -10.6,-21.6 -31.2,-36.5 -55,-40 l -102,-14.8 c -60,-8.7 -83.9,-82.4 -40.5,-124.7 l 73.8,-71.9 c 17.2,-16.8 25.1,-41 21,-64.7 l -17.4,-101.5 c -8.1,-47.3 29.4,-85.7 72,-85.7 11.2,0 22.8,2.7 34,8.6 l 91.2,47.9 c 10.7,5.7 22.4,8.5 34,8.5 m -862.9,0 c 11.7,0 23.4,-2.8 34.1,-8.5 l 91.2,-47.9 c 11.2,-5.9 22.7,-8.6 34,-8.6 42.6,0 80.1,38.4 72,85.7 l -17.4,101.5 c -4.1,23.7 3.8,47.9 21,64.7 l 73.8,71.9 c 43.4,42.3 19.4,116 -40.5,124.7 l -102,14.8 c -23.8,3.5 -44.4,18.4 -55,40 l -45.6,92.4 c -13.4,27.2 -39.5,40.8 -65.6,40.8 -26,0 -52.1,-13.6 -65.5,-40.8 l -45.6,-92.4 c -10.7,-21.6 -31.2,-36.5 -55,-40 l -102,-14.8 c -60,-8.7 -83.9,-82.4 -40.5,-124.7 l 73.8,-71.9 c 17.2,-16.8 25.1,-41 21,-64.7 l -17.4,-101.5 c -8.1,-47.3 29.4,-85.7 72,-85.7 11.2,0 22.8,2.7 34,8.6 l 91.2,47.9 c 10.7,5.7 22.4,8.5 34,8.5 m -862.9,0 c 11.7,0 23.4,-2.8 34,-8.5 l 91.2,-47.9 c 11.2,-5.9 22.8,-8.6 34.1,-8.6 42.6,0 80.1,38.4 72,85.7 l -17.4,101.5 c -4.1,23.7 3.8,47.9 21,64.7 l 73.8,71.9 c 43.4,42.3 19.4,116 -40.5,124.7 l -102,14.8 c -23.8,3.5 -44.4,18.4 -55,40 l -45.6,92.4 c -13.4,27.2 -39.5,40.8 -65.6,40.8 -26,0 -52.1,-13.6 -65.5,-40.8 l -45.6,-92.4 c -10.7,-21.6 -31.2,-36.5 -55.1,-40 l -101.9,-14.8 c -60,-8.7 -83.9,-82.4 -40.5,-124.7 l 73.8,-71.9 c 17.2,-16.8 25,-41 21,-64.7 l -17.4,-101.5 c -8.1,-47.3 29.4,-85.7 72,-85.7 11.2,0 22.8,2.7 34,8.6 l 91.2,47.9 c 10.7,5.7 22.3,8.5 34,8.5 m -862.9,0 c 11.7,0 23.4,-2.8 34,-8.5 l 91.2,-47.9 c 11.2,-5.9 22.8,-8.6 34.1,-8.6 42.6,0 80.1,38.4 72,85.7 l -17.4,101.5 c -4.1,23.7 3.8,47.9 21,64.7 l 73.8,71.9 c 43.4,42.3 19.4,116 -40.5,124.7 l -102,14.8 c -23.8,3.5 -44.4,18.4 -55,40 l -45.6,92.4 c -13.4,27.2 -39.5,40.8 -65.6,40.8 -26,0 -52.1,-13.6 -65.5,-40.8 l -45.6,-92.4 c -10.7,-21.6 -31.3,-36.5 -55.1,-40 l -101.9,-14.8 c -60,-8.7 -83.9,-82.4 -40.5,-124.7 l 73.7,-71.9 c 17.3,-16.8 25.1,-41 21.1,-64.7 l -17.4,-101.5 c -8.2,-47.3 29.4,-85.7 72,-85.7 11.2,0 22.8,2.7 34,8.6 l 91.2,47.9 c 10.7,5.7 22.3,8.5 34,8.5 m -862.9,0 c 11.7,0 23.4,-2.8 34,-8.5 l 91.2,-47.9 c 11.2,-5.9 22.8,-8.6 34.1,-8.6 42.5,0 80.1,38.4 72,85.7 l -17.4,101.5 c -4.1,23.7 3.8,47.9 21,64.7 l 73.8,71.9 c 43.4,42.3 19.4,116 -40.5,124.7 l -102,14.8 c -23.8,3.5 -44.4,18.4 -55,40 l -45.6,92.4 c -13.4,27.2 -39.5,40.8 -65.6,40.8 -26.1,0 -52.1,-13.6 -65.5,-40.8 l -45.6,-92.4 c -10.7,-21.6 -31.3,-36.5 -55.1,-40 l -101.9,-14.8 c -60,-8.7 -83.9,-82.4 -40.5,-124.7 l 73.7,-71.9 c 17.3,-16.8 25.1,-41 21.1,-64.7 l -17.5,-101.5 c -8.1,-47.3 29.5,-85.7 72.1,-85.7 11.2,0 22.8,2.7 34,8.6 l 91.2,47.9 c 10.6,5.7 22.3,8.5 34,8.5"
         style="fill:#fdd523;fill-opacity:1;fill-rule:nonzero;stroke:none"
         id="path114" /><path
         d="m 14562.1,5644.5 c -11.3,0 -22.9,2.7 -34.1,8.6 l -91.2,47.9 c -10.6,5.7 -22.3,8.5 -34,8.5 -11.7,0 -23.4,-2.8 -34,-8.5 l -91.2,-47.9 c -11.2,-5.9 -22.8,-8.6 -34,-8.6 -42.6,0 -80.2,38.4 -72.1,85.7 l 17.5,101.5 c 4,23.7 -3.8,47.9 -21.1,64.7 l -73.7,71.9 c -43.4,42.3 -19.5,116 40.5,124.7 l 101.9,14.8 c 23.8,3.5 44.4,18.4 55.1,40 l 45.6,92.4 c 13.4,27.2 39.4,40.8 65.5,40.8 26.1,0 52.2,-13.6 65.6,-40.8 l 45.6,-92.4 c 10.6,-21.6 31.2,-36.5 55,-40 l 102,-14.8 c 59.9,-8.7 83.9,-82.4 40.5,-124.7 l -73.8,-71.9 c -17.2,-16.8 -25.1,-41 -21,-64.7 l 17.4,-101.5 c 8.1,-47.3 -29.5,-85.7 -72,-85.7"
         style="fill:#ffffff;fill-opacity:1;fill-rule:nonzero;stroke:none"
         id="path116" /><path
         d="m 15425,5644.5 c -11.3,0 -22.9,2.7 -34.1,8.6 l -91.2,47.9 c -10.6,5.7 -22.3,8.5 -34,8.5 -11.7,0 -23.3,-2.8 -34,-8.5 l -91.2,-47.9 c -11.2,-5.9 -22.8,-8.6 -34,-8.6 -42.6,0 -80.2,38.4 -72,85.7 l 17.4,101.5 c 4,23.7 -3.8,47.9 -21.1,64.7 l -73.7,71.9 c -43.4,42.3 -19.5,116 40.5,124.7 l 101.9,14.8 c 23.8,3.5 44.4,18.4 55.1,40 l 45.6,92.4 c 13.4,27.2 39.5,40.8 65.5,40.8 26.1,0 52.2,-13.6 65.6,-40.8 l 45.6,-92.4 c 10.6,-21.6 31.2,-36.5 55,-40 l 102,-14.8 c 59.9,-8.7 83.9,-82.4 40.5,-124.7 l -73.8,-71.9 c -17.2,-16.8 -25.1,-41 -21,-64.7 l 17.4,-101.5 c 8.1,-47.3 -29.4,-85.7 -72,-85.7"
         style="fill:#ffffff;fill-opacity:1;fill-rule:nonzero;stroke:none"
         id="path118" /><path
         d="m 16287.9,5644.5 c -11.3,0 -22.9,2.7 -34.1,8.6 l -91.2,47.9 c -10.6,5.7 -22.3,8.5 -34,8.5 -11.7,0 -23.3,-2.8 -34,-8.5 l -91.2,-47.9 c -11.2,-5.9 -22.8,-8.6 -34,-8.6 -42.6,0 -80.1,38.4 -72,85.7 l 17.4,101.5 c 4,23.7 -3.8,47.9 -21,64.7 l -73.8,71.9 c -43.4,42.3 -19.5,116 40.5,124.7 l 101.9,14.8 c 23.9,3.5 44.4,18.4 55.1,40 l 45.6,92.4 c 13.4,27.2 39.5,40.8 65.5,40.8 26.1,0 52.2,-13.6 65.6,-40.8 l 45.6,-92.4 c 10.6,-21.6 31.2,-36.5 55,-40 l 102,-14.8 c 59.9,-8.7 83.9,-82.4 40.5,-124.7 l -73.8,-71.9 c -17.2,-16.8 -25.1,-41 -21,-64.7 l 17.4,-101.5 c 8.1,-47.3 -29.4,-85.7 -72,-85.7"
         style="fill:#ffffff;fill-opacity:1;fill-rule:nonzero;stroke:none"
         id="path120" /><path
         d="m 17150.8,5644.5 c -11.3,0 -22.8,2.7 -34,8.6 l -91.2,47.9 c -10.7,5.7 -22.4,8.5 -34.1,8.5 -11.6,0 -23.3,-2.8 -34,-8.5 l -91.2,-47.9 c -11.2,-5.9 -22.8,-8.6 -34,-8.6 -42.6,0 -80.1,38.4 -72,85.7 l 17.4,101.5 c 4.1,23.7 -3.8,47.9 -21,64.7 l -73.8,71.9 c -43.4,42.3 -19.5,116 40.5,124.7 l 102,14.8 c 23.8,3.5 44.3,18.4 55,40 l 45.6,92.4 c 13.4,27.2 39.5,40.8 65.5,40.8 26.1,0 52.2,-13.6 65.6,-40.8 l 45.6,-92.4 c 10.6,-21.6 31.2,-36.5 55,-40 l 102,-14.8 c 59.9,-8.7 83.9,-82.4 40.5,-124.7 l -73.8,-71.9 c -17.2,-16.8 -25.1,-41 -21,-64.7 l 17.4,-101.5 c 8.1,-47.3 -29.4,-85.7 -72,-85.7"
         style="fill:#ffffff;fill-opacity:1;fill-rule:nonzero;stroke:none"
         id="path122" /><path
         d="m 18013.7,5644.5 c -11.2,0 -22.8,2.7 -34,8.6 l -91.2,47.9 c -10.7,5.7 -22.4,8.5 -34.1,8.5 -11.6,0 -23.3,-2.8 -34,-8.5 l -91.2,-47.9 c -11.2,-5.9 -22.8,-8.6 -34,-8.6 -42.6,0 -80.1,38.4 -72,85.7 l 17.4,101.5 c 4.1,23.7 -3.8,47.9 -21,64.7 l -73.8,71.9 c -43.4,42.3 -19.5,116 40.5,124.7 l 102,14.8 c 23.8,3.5 44.4,18.4 55,40 l 45.6,92.4 c 13.4,27.2 39.5,40.8 65.6,40.8 26,0 52.1,-13.6 65.5,-40.8 l 45.6,-92.4 c 10.6,-21.6 31.2,-36.5 55,-40 l 102,-14.8 c 60,-8.7 83.9,-82.4 40.5,-124.7 l -73.8,-71.9 c -17.2,-16.8 -25.1,-41 -21,-64.7 l 17.4,-101.5 c 8.1,-47.3 -29.4,-85.7 -72,-85.7"
         style="fill:#ffffff;fill-opacity:1;fill-rule:nonzero;stroke:none"
         id="path124" /><path
         d="M 11522.5,6361.3 H 9787.4 c -164.17,0 -295.35,136.6 -288.71,300.6 l 41.63,1029.4 c 6.27,154.9 133.68,277.3 288.72,277.3 h 1209.56 525.6 c 164.1,0 295.3,-136.6 288.7,-300.7 l -8.7,-215.4 -32.9,-814 c -6.3,-154.9 -133.7,-277.2 -288.8,-277.2 m -577.2,1257.9 c -15,0 -29.9,-5.7 -41.3,-17.1 -22.9,-22.8 -22.9,-59.8 0,-82.6 l 348.9,-348.9 -349.6,-360.9 c -22.4,-23.1 -21.9,-60.1 1.3,-82.6 11.4,-11 26,-16.4 40.7,-16.4 15.2,0 30.5,5.9 41.9,17.7 l 389.6,402.2 c 22.2,22.9 21.9,59.3 -0.7,81.9 l -389.5,389.6 c -11.4,11.4 -26.4,17.1 -41.3,17.1 m -536.4,0 c -14.9,0 -29.9,-5.7 -41.3,-17.1 l -389.57,-389.6 c -22.56,-22.6 -22.85,-59 -0.64,-81.9 L 10367,6728.4 c 11.4,-11.8 26.7,-17.7 41.9,-17.7 14.7,0 29.3,5.4 40.7,16.4 23.1,22.5 23.7,59.5 1.3,82.6 l -349.6,360.9 348.9,348.9 c 22.8,22.8 22.8,59.8 0,82.6 -11.4,11.4 -26.3,17.1 -41.3,17.1"
         style="fill:#ffe8f1;fill-opacity:1;fill-rule:nonzero;stroke:none"
         id="path126" /><path
         d="m 10945.3,6710.7 c -14.7,0 -29.3,5.4 -40.7,16.4 -23.2,22.5 -23.7,59.5 -1.3,82.6 l 349.6,360.9 -348.9,348.9 c -22.9,22.8 -22.9,59.8 0,82.6 11.4,11.4 26.3,17.1 41.3,17.1 14.9,0 29.9,-5.7 41.3,-17.1 l 389.5,-389.6 c 22.6,-22.6 22.9,-59 0.7,-81.9 l -389.6,-402.2 c -11.4,-11.8 -26.7,-17.7 -41.9,-17.7"
         style="fill:#3a4be6;fill-opacity:1;fill-rule:nonzero;stroke:none"
         id="path128" /><path
         d="m 10408.9,6710.7 c -15.2,0 -30.5,5.9 -41.9,17.7 l -389.61,402.2 c -22.21,22.9 -21.92,59.3 0.64,81.9 l 389.57,389.6 c 11.4,11.4 26.4,17.1 41.3,17.1 15,0 29.9,-5.7 41.3,-17.1 22.8,-22.8 22.8,-59.8 0,-82.6 l -348.9,-348.9 349.6,-360.9 c 22.4,-23.1 21.8,-60.1 -1.3,-82.6 -11.4,-11 -26,-16.4 -40.7,-16.4"
         style="fill:#3a4be6;fill-opacity:1;fill-rule:nonzero;stroke:none"
         id="path130" /><path
         d="m 9900.79,14954.1 h -1.83 v 365.5 H 9514.94 V 16474 c 142.22,40 260.99,121 297.25,213.4 23.69,60.4 9.46,119.4 -40.06,166.1 -22.9,21.6 -51.45,32.9 -83.03,32.9 -3.21,0 -6.46,-0.2 -9.74,-0.4 -50.4,-3.6 -104.28,-35.6 -144.1,-85.7 -57.51,-72.3 -84.65,-159.6 -85.26,-274.4 -40.45,-8.4 -80.95,-13.1 -118.74,-13.5 -37.41,0.8 -78.1,6.4 -119.04,16 -0.99,113.6 -28.14,200.2 -85.23,271.9 -39.82,50.1 -93.7,82.1 -144.1,85.7 -3.29,0.2 -6.57,0.4 -9.8,0.4 -31.53,0 -60.09,-11.3 -82.98,-32.9 -47.15,-44.5 -60.86,-100.8 -38.58,-158.4 34.77,-90 155.63,-173.9 295.77,-217.2 v -1158.3 h -381.71 c -25.88,336.6 -148.61,658.8 -348.74,933.4 -137.22,188.3 -217.98,420.3 -217.41,671.3 1.41,621 517.3,1133.6 1136.76,1133.6 4.54,0 9.17,0 13.71,0 621.05,-7.6 1122.19,-513.4 1122.19,-1136.3 0,-254.9 -83.9,-490.2 -225.7,-679.7 -227.8,-304.8 -345.61,-678 -345.61,-1058.5 v -229.3 m -450.8,365.5 h -237.74 v 1141.6 c 39.19,-8.2 79.06,-13 118.27,-13.8 h 0.59 0.01 0.28 c 39.83,0.4 79.7,4.4 118.59,11.5 v -1139.3 m 65.3,1223.2 c 2.95,91 25.66,160.4 70.79,217.1 28.28,35.5 65.8,59 97.9,61.3 1.75,0.1 3.45,0.2 5.13,0.2 15.04,0 27.65,-5 38.45,-15.2 30.19,-28.4 38.09,-59.5 24.17,-95 -29.04,-74 -126.99,-134.3 -236.44,-168.4 m -368.49,4.4 c -108.67,36.9 -207.01,99.7 -234.69,171.3 -12.84,33.2 -5.66,61.1 22.56,87.7 10.81,10.2 23.43,15.2 38.47,15.2 1.68,0 3.39,-0.1 5.13,-0.2 32.11,-2.3 69.62,-25.8 97.9,-61.3 44.4,-55.8 67.1,-123.9 70.63,-212.7"
         style="fill:#fdd523;fill-opacity:1;fill-rule:nonzero;stroke:none"
         id="path132" /><path
         d="m 9514.94,15319.6 h -64.95 v 1139.3 c -38.89,-7.1 -78.76,-11.1 -118.59,-11.5 h -0.28 -0.01 -0.59 c -39.21,0.8 -79.08,5.6 -118.27,13.8 v -1141.6 h -64.95 v 1158.3 c -140.14,43.3 -261,127.2 -295.77,217.2 -22.28,57.6 -8.57,113.9 38.58,158.4 22.89,21.6 51.45,32.9 82.98,32.9 3.23,0 6.51,-0.2 9.8,-0.4 50.4,-3.6 104.28,-35.6 144.1,-85.7 57.09,-71.7 84.24,-158.3 85.23,-271.9 40.94,-9.6 81.63,-15.2 119.04,-16 37.79,0.4 78.29,5.1 118.74,13.5 0.61,114.8 27.75,202.1 85.26,274.4 39.82,50.1 93.7,82.1 144.1,85.7 3.28,0.2 6.53,0.4 9.74,0.4 31.58,0 60.13,-11.3 83.03,-32.9 49.52,-46.7 63.75,-105.7 40.06,-166.1 -36.26,-92.4 -155.03,-173.4 -297.25,-213.4 v -1154.4 m 174.17,1501.8 c -1.68,0 -3.38,-0.1 -5.13,-0.2 -32.1,-2.3 -69.62,-25.8 -97.9,-61.3 -45.13,-56.7 -67.84,-126.1 -70.79,-217.1 109.45,34.1 207.4,94.4 236.44,168.4 13.92,35.5 6.02,66.6 -24.17,95 -10.8,10.2 -23.41,15.2 -38.45,15.2 m -715.97,0 c -15.04,0 -27.66,-5 -38.47,-15.2 -28.22,-26.6 -35.4,-54.5 -22.56,-87.7 27.68,-71.6 126.02,-134.4 234.69,-171.3 -3.53,88.8 -26.23,156.9 -70.63,212.7 -28.28,35.5 -65.79,59 -97.9,61.3 -1.74,0.1 -3.45,0.2 -5.13,0.2"
         style="fill:#ffffff;fill-opacity:1;fill-rule:nonzero;stroke:none"
         id="path134" /><path
         d="M 9623.96,14652.4 H 9040.5 c -151.87,0 -274.99,123.2 -274.99,275 v 392.2 h 0.08 381.71 64.95 237.74 64.95 384.02 v -365.5 -26.7 c 0,-151.8 -123.12,-275 -275,-275"
         style="fill:#3a4be6;fill-opacity:1;fill-rule:nonzero;stroke:none"
         id="path136" /><path
         d="m 27561.8,10213.3 c 0,0 -464.1,54.7 -1061.7,-617.7 -338.7,-381.1 -742.5,-1523.3 -856.6,-1717.9 C 25503,7638 24660.8,6659.5 24161.6,6817.8 l 450.2,-492.9 c 0,0 688,-128.6 1510.8,191.4 945.1,367.5 3165.6,2329.4 1439.2,3697"
         style="fill:#fcb0b5;fill-opacity:1;fill-rule:nonzero;stroke:none"
         id="path138" /><path
         d="m 26543.6,8495.9 c -13,162.3 -243,184.5 -287.5,27.9 -95.8,-337.1 -196.6,-1118.9 -429,-1335.7 -572.8,-534.7 -723,-512.7 -723,-512.7 533.2,-195.3 1259.7,-204.4 1259.7,-204.4 0,0 232,1371.4 179.8,2024.9"
         style="fill:#f49aa3;fill-opacity:1;fill-rule:nonzero;stroke:none"
         id="path140" /><path
         d="m 23396.5,6602.5 c 9.7,49.5 272.5,388 1321.1,270.1 806.8,-90.8 3732.8,-752.4 3732.8,-752.4 0,0 -283.1,-1342.1 -1793,-1384.1 -1509.9,-41.9 -3611.3,83.9 -3260.9,1866.4"
         style="fill:#efb614;fill-opacity:1;fill-rule:nonzero;stroke:none"
         id="path142" /><path
         d="m 24770.1,3580.6 c 9.4,-42.3 -116.6,-1909.2 -182.5,-2967.698 0,0 -24.1,-119.199 -54.5,-241.402 0,0 38.2,-113.598 -781.3,-215.898 -686,-85.602 -801.5,162.601 354,516.699 l -415,2228.099 c 0,0 936.2,1324.7 1079.3,680.2"
         style="fill:#d57241;fill-opacity:1;fill-rule:nonzero;stroke:none"
         id="path144" /><path
         d="M 24587.6,612.902 24581.5,228.5 23333.7,20.3008 c 0,0 -362,-19.3008 -184.7,219.1992 178.7,240.5 757.4,429.398 956.8,432.801 0,0 -532.6,-178.102 -660.9,-354.801 0,0 526.3,149.602 1142.7,295.402"
         style="fill:#303dcf;fill-opacity:1;fill-rule:nonzero;stroke:none"
         id="path146" /><path
         d="m 28372,12153.8 c -123.3,101.2 -414.4,202.8 -593,215.2 -318.1,22.3 -773,-316.7 -987.8,-891.4 -529.1,-1415.6 1755.7,-1105.3 2097.6,-828.9 348.3,281.5 -166.9,1218 -516.8,1505.1"
         style="fill:#303dcf;fill-opacity:1;fill-rule:nonzero;stroke:none"
         id="path148" /><path
         d="m 27877.5,12552.1 c -7.5,-149.9 57.7,-275 207.6,-282.5 207.1,-10.3 369.1,127.6 376.6,277.5 7.5,149.9 -81.7,300.3 -296.8,311.1 -149.9,7.5 -275.8,-74.7 -287.4,-306.1"
         style="fill:#303dcf;fill-opacity:1;fill-rule:nonzero;stroke:none"
         id="path150" /><path
         d="m 28047.2,11499.9 c 0,0 11,574 -456.3,662.8 -354.2,67.3 -511.3,-327.8 -552.4,-777.7 -41.1,-449.9 71.2,-755.2 382.4,-710.1 327.9,47.5 531.2,184.4 624.1,420.4 0,0 250.5,6.2 249.6,275.2 -1,297.1 -247.4,129.4 -247.4,129.4"
         style="fill:#d57241;fill-opacity:1;fill-rule:nonzero;stroke:none"
         id="path152" /><path
         d="m 27340.7,10213.3 c 0,0 153.4,158.4 142.5,489.4 l 520.8,450.8 c 0,0 -46.5,-801.2 192.1,-967.6 0,0 -253.4,-585.4 -565.2,-590.3 -311.8,-4.8 -272.5,386.2 -290.2,617.7"
         style="fill:#d57241;fill-opacity:1;fill-rule:nonzero;stroke:none"
         id="path154" /><path
         d="m 27431.5,11513.5 c 0,0 -87.4,-138.2 -155.5,-178.9 -68.1,-40.6 40.4,-106.4 87.3,-119.1 46.9,-12.7 68.2,298 68.2,298"
         style="fill:#c96539;fill-opacity:1;fill-rule:nonzero;stroke:none"
         id="path156" /><path
         d="m 27485.3,10669.2 c 0,0 224.8,87.2 307.9,168.4 83.2,81.1 -5.1,-203.8 -44.5,-258.4 -67.4,-93.6 -187.4,-155.7 -309,-194.2 0,0 45.9,122.3 45.6,284.2"
         style="fill:#c96539;fill-opacity:1;fill-rule:nonzero;stroke:none"
         id="path158" /><path
         d="m 26700.9,9394.8 c 162.1,374.8 305.2,614.9 639.8,818.5 0,0 128.3,-115.4 322.8,-132.9 201.8,-18.2 352.3,-16.2 532.6,105.5 0,0 796.8,-105.3 1118.4,-1073.7 117.8,-354.7 78.7,-1123.2 -70,-2289.7 -41.2,-323.2 -101.4,-650.8 -101.4,-650.8 -649.9,49.1 -2398,307.1 -2922.2,473.4 0,0 65.2,774.4 90.5,1310 30.9,656.4 139.2,861.3 389.5,1439.7"
         style="fill:#fcb0b5;fill-opacity:1;fill-rule:nonzero;stroke:none"
         id="path160" /><path
         d="m 27258,11568.1 c -5.5,-29.5 -34,-48.8 -63.5,-43.2 -29.4,5.6 -48.8,34 -43.2,63.5 5.6,29.5 34,48.8 63.5,43.2 29.5,-5.6 48.8,-34 43.2,-63.5"
         style="fill:#303dcf;fill-opacity:1;fill-rule:nonzero;stroke:none"
         id="path162" /><path
         d="m 27736,11481.2 c -5.6,-29.5 -34,-48.8 -63.5,-43.2 -29.5,5.6 -48.8,34 -43.2,63.5 5.6,29.5 34,48.8 63.5,43.2 29.5,-5.6 48.8,-34 43.2,-63.5"
         style="fill:#303dcf;fill-opacity:1;fill-rule:nonzero;stroke:none"
         id="path164" /><path
         d="m 27801.9,11725.3 c -38.6,11.4 -78,18.9 -118,23.7 -29.4,3.6 -55.5,-26 -56.1,-53.5 -0.8,-32.1 24,-52.6 53.5,-56.2 30.3,-3.6 59.8,-10.4 89,-19 67.7,-20 99.5,85 31.6,105"
         style="fill:#303dcf;fill-opacity:1;fill-rule:nonzero;stroke:none"
         id="path166" /><path
         d="m 27250.1,11808.3 c -39.8,6.6 -79.8,9.1 -120.1,9 -29.6,-0.1 -51.8,-32.7 -49,-60.1 3.2,-31.9 30.3,-49.2 60.1,-49.1 30.4,0.1 60.6,-3 90.6,-7.9 69.7,-11.5 88.2,96.7 18.4,108.1"
         style="fill:#303dcf;fill-opacity:1;fill-rule:nonzero;stroke:none"
         id="path168" /><path
         d="m 27189.6,11128 303.7,-26.2 c 0,0 -28.9,-173 -174.1,-158.8 -140.5,13.7 -129.6,185 -129.6,185"
         style="fill:#ffffff;fill-opacity:1;fill-rule:nonzero;stroke:none"
         id="path170" /><path
         d="m 27340.7,10213.3 -65.4,-280.3 338.2,158.8 186.3,-285.8 396.3,379.9 c 0,0 -470.1,-250.9 -855.4,27.4"
         style="fill:#ffffff;fill-opacity:1;fill-rule:nonzero;stroke:none"
         id="path172" /><path
         d="m 27554.3,9698.4 c -18.2,-37.4 -63.2,-52.9 -100.5,-34.8 -37.3,18.2 -52.9,63.1 -34.8,100.5 18.2,37.3 63.2,52.9 100.5,34.7 37.4,-18.1 52.9,-63.1 34.8,-100.4"
         style="fill:#ffffff;fill-opacity:1;fill-rule:nonzero;stroke:none"
         id="path174" /><path
         d="m 27412.1,9286.8 c -18.1,-37.4 -63.1,-52.9 -100.5,-34.8 -37.3,18.2 -52.9,63.1 -34.7,100.5 18.1,37.3 63.1,52.9 100.5,34.7 37.3,-18.1 52.9,-63.1 34.7,-100.4"
         style="fill:#ffffff;fill-opacity:1;fill-rule:nonzero;stroke:none"
         id="path176" /><path
         d="m 29040.2,6737 c 0,0 788.1,-2369.7 -1692.5,-2369.7 -2480.7,0 -2543.6,0 -2543.6,0 0,0 78.4,-1571.3 94.2,-2284.3 l -1180.9,-269.9 c 0,0 -389.4,2026.1 -494.2,2613.3 -104.9,587.2 19.1,1533.8 1651.7,1643.4 1891.5,127 4165.3,667.2 4165.3,667.2"
         style="fill:#fcc718;fill-opacity:1;fill-rule:nonzero;stroke:none"
         id="path178" /><path
         d="m 28303.8,8638.8 c 0,0 -509.1,15.6 -601.1,-774.7 -67.1,-576.7 -836,-545.2 -1099,-695.4 -371.6,-212 -382.8,-523.6 -382.8,-523.6 0,0 2023.3,-496.3 2922.2,-473.4 0,0 69.3,334 111.4,747.3 60.9,599.6 281.4,1489.9 -950.7,1719.8"
         style="fill:#f49aa3;fill-opacity:1;fill-rule:nonzero;stroke:none"
         id="path180" /><path
         d="m 25194.1,4307.6 c 42.5,-8.3 217.3,-826 577.9,-1770.8 0,0 244.5,-200.6 321.7,-241.6 0,0 22.4,-151.2 37,-960 10.8,-597.598 -319,-281.8 -459.2,611.7 L 24401.2,3674 c 0,0 -265.5,841.7 792.9,633.6"
         style="fill:#d57241;fill-opacity:1;fill-rule:nonzero;stroke:none"
         id="path182" /><path
         d="m 25766.7,2545.3 358.1,-203.3 111.7,-1233.1 c 0,0 -19.9,-361.9 -238,-159.9 -219.7,203.5 -345.1,799.3 -327,997.9 0,0 119.6,-548.8 281.5,-695.3 0,0 -107.9,665.2 -186.3,1293.7"
         style="fill:#303dcf;fill-opacity:1;fill-rule:nonzero;stroke:none"
         id="path184" /><path
         d="m 23239.1,5585.4 c 31.9,-95.6 1424,-2576.4 1424,-2576.4 l 1068.2,576.7 c 0,0 -721.8,2240.7 -1253.1,2939.7 -531.2,699 -1602.6,150.5 -1239.1,-940"
         style="fill:#efb614;fill-opacity:1;fill-rule:nonzero;stroke:none"
         id="path186" /><path
         d="m 25547.2,6737 677.1,-146.7 12.2,-375 c 0,0 -592.9,-19 -786.3,-19 -446.3,0 -84.4,540.7 97,540.7"
         style="fill:#d57241;fill-opacity:1;fill-rule:nonzero;stroke:none"
         id="path188" /><path
         d="m 23626.3,6324.9 h 3013 c 71.1,0 128.7,-57.6 128.7,-128.6 0,-71.1 -57.6,-128.7 -128.7,-128.7 h -3013 v 257.3"
         style="fill:#ffffff;fill-opacity:1;fill-rule:nonzero;stroke:none"
         id="path190" /><path
         d="m 22416.3,8308.5 h 2596.1 c 112.2,0 209.2,-78.2 233.1,-187.8 l 447.6,-2053.1 h -3084.5 l -425.4,1951.5 c -32.4,148.7 80.9,289.4 233.1,289.4"
         style="fill:#303dcf;fill-opacity:1;fill-rule:nonzero;stroke:none"
         id="path192" /><path
         d="m 22178.5,8051 c 0,0 731.1,-407.5 882.8,-862.9 151.8,-455.5 903,-540.6 1100.3,-1120.5 h -1553 L 22178.5,8051"
         style="fill:#283abc;fill-opacity:1;fill-rule:nonzero;stroke:none"
         id="path194" /><path
         d="m 25643.5,6324.9 49.6,-257.3 h 946.2 c 0,0 -130,108.3 -294.6,128.7 -164.7,20.4 -562.3,-21.1 -701.2,128.6"
         style="fill:#eaeaea;fill-opacity:1;fill-rule:nonzero;stroke:none"
         id="path196" /><path
         d="m 24067.8,7100.6 c 31.3,-137.2 -64.5,-282.8 -205.3,-282.8 -140.8,0 -279.1,75.8 -304.6,214.3 -29.3,159.6 57.4,277.2 198.2,277.2 140.7,0 273.3,-41 311.7,-208.7"
         style="fill:#f2f2f2;fill-opacity:1;fill-rule:nonzero;stroke:none"
         id="path198" /><path
         d="m 26221.2,6737 15.3,-718.4 c 0,0 1953.9,-314.2 2586.4,363.2 0,0 884.3,355.2 491.6,2730.4 0,0 -1052.5,645.1 -1223.1,-421.6 -75,-468.9 -107.3,-1173.6 -444.2,-1511.4 -234.5,-235 -388,-239.5 -1426,-442.2"
         style="fill:#fcb0b5;fill-opacity:1;fill-rule:nonzero;stroke:none"
         id="path200" /><path
         d="m 4012.87,8498.5 c 0,0 795.54,-643.3 3622.48,186.3 0,0 -3642.13,751.1 -3622.48,-186.3"
         style="fill:#efb614;fill-opacity:1;fill-rule:nonzero;stroke:none"
         id="path202" /><path
         d="m 7500.15,11879.7 c 244.63,-537.7 856.43,-1812.3 1811.99,-1645.2 L 9592,9535.4 c 0,0 -1340.67,-576.3 -2313.77,63.7 -973.1,640.1 -1059.6,1591.4 -1059.6,1591.4 0,0 -332.28,1590.3 408.98,1485.5 242.37,-34.3 640.44,-286.1 872.54,-796.3"
         style="fill:#fcc718;fill-opacity:1;fill-rule:nonzero;stroke:none"
         id="path204" /><path
         d="m 7597.55,9422.8 -133.46,1557 c 0,0 338.12,-187.9 359.34,-542.1 21.21,-354.2 211.49,-367.1 315.28,-620.1 103.79,-253.1 334.6,-294.6 570.83,-539 0,0 -731.45,-48.8 -1111.99,144.2"
         style="fill:#efb614;fill-opacity:1;fill-rule:nonzero;stroke:none"
         id="path206" /><path
         d="m 6733.17,1490 c -4.41,-38.4 95.89,-696.699 158.33,-1175.5 0,0 157.32,-155.102 619.59,-155.102 460.59,0 425.44,276.805 -196.75,345.204 L 7423.57,1676.8 c 0,0 -632.51,318.6 -690.4,-186.8"
         style="fill:#d57241;fill-opacity:1;fill-rule:nonzero;stroke:none"
         id="path208" /><path
         d="M 6891.5,314.5 6925.98,5.90234 h 1158.96 c 0,0 137.45,223.29666 -450.21,430.59766 l -743.23,-122"
         style="fill:#303dcf;fill-opacity:1;fill-rule:nonzero;stroke:none"
         id="path210" /><path
         d="m 4862.19,1520.7 c 12.73,-36.5 -223.69,-789.899 -312.06,-1208.598 0,0 -157.33,-155.204 -619.59,-155.204 -460.6,0 -425.44,276.805 196.75,345.204 l 21.89,1060.598 c 0,0 531.38,479.9 713.01,-42"
         style="fill:#d57241;fill-opacity:1;fill-rule:nonzero;stroke:none"
         id="path212" /><path
         d="M 4550.13,312.102 4515.64,3.40234 H 3356.69 c 0,0 -137.45,223.39866 450.21,430.59766 l 743.23,-121.898"
         style="fill:#303dcf;fill-opacity:1;fill-rule:nonzero;stroke:none"
         id="path214" /><path
         d="m 5799.74,14494.4 c 0,0 190.45,384.3 679.92,260.7 730.9,-184.4 530.46,-526.5 311.49,-810.1 -458.3,-593.6 -297.73,-675 -584.4,-650.7 -354.27,30 -409.11,-0.9 -642.17,532.7 -134.58,308.1 -239.45,660 235.16,667.4"
         style="fill:#ffffff;fill-opacity:1;fill-rule:nonzero;stroke:none"
         id="path216" /><path
         d="m 5925.53,13861.1 c 0,0 27.18,497.3 437.15,544.3 310.74,35.5 421.36,-316.3 428.18,-708.1 6.83,-391.9 -109.82,-648.9 -376.18,-590 -280.71,62.1 -447.81,193.5 -513.08,403.6 0,0 -216.33,21.4 -198.36,254 19.86,257 222.29,96.2 222.29,96.2"
         style="fill:#d57241;fill-opacity:1;fill-rule:nonzero;stroke:none"
         id="path218" /><path
         d="m 6627.61,12676 c 0,0 -245.46,89.6 -193.96,509.7 l -571.61,413.2 c 0,0 42.28,-804.2 -251.78,-876.4 0,0 165.72,-750.8 610.65,-771.3 270.22,-12.4 382.28,524.8 406.7,724.8"
         style="fill:#d57241;fill-opacity:1;fill-rule:nonzero;stroke:none"
         id="path220" /><path
         d="m 6516.3,13906.5 c 0,0 63.37,-174 115.43,-218.9 52.05,-44.9 -30.65,-118.5 -134.44,-92.5 -40.88,10.3 19.01,311.4 19.01,311.4"
         style="fill:#c96539;fill-opacity:1;fill-rule:nonzero;stroke:none"
         id="path222" /><path
         d="m 6427.12,13104.8 c 0,0 -351.45,145.3 -420.34,218.9 -68.88,73.6 -25.83,-118.9 92.02,-256.9 68.06,-79.7 251.43,-192.8 364.66,-206.1 0,0 -38.75,77.7 -36.34,244.1"
         style="fill:#c96539;fill-opacity:1;fill-rule:nonzero;stroke:none"
         id="path224" /><path
         d="m 6652.7,13875.9 c 0,-27 21.88,-48.9 48.88,-48.9 27,0 48.89,21.9 48.89,48.9 0,27 -21.89,48.9 -48.89,48.9 -27,0 -48.88,-21.9 -48.88,-48.9"
         style="fill:#303dcf;fill-opacity:1;fill-rule:nonzero;stroke:none"
         id="path226" /><path
         d="m 6233.5,13879.7 c 0,-27 21.88,-48.9 48.88,-48.9 27,0 48.88,21.9 48.88,48.9 0,27 -21.88,48.9 -48.88,48.9 -27,0 -48.88,-21.9 -48.88,-48.9"
         style="fill:#303dcf;fill-opacity:1;fill-rule:nonzero;stroke:none"
         id="path228" /><path
         d="m 6189.23,14106 c 36.09,3.6 72.17,3.6 108.35,1.2 26.62,-1.8 44.67,-32.4 40.63,-56.8 -4.7,-28.5 -30.1,-42.5 -56.8,-40.7 -27.35,1.9 -54.61,0.8 -81.88,-1.9 -63.2,-6.3 -73.64,91.9 -10.3,98.2"
         style="fill:#303dcf;fill-opacity:1;fill-rule:nonzero;stroke:none"
         id="path230" /><path
         d="m 6670.69,14115.7 c 27.61,1.7 55.59,-0.7 82.66,-6.4 25.31,-5.3 43.76,-34.3 36.56,-59.5 -7.55,-26.3 -32.37,-42.2 -59.48,-36.5 -4.89,1 -9.79,2 -14.72,2.8 -2.33,0.3 -4.67,0.6 -7,0.9 -0.33,0 -0.94,0 -2.16,0.1 -10.87,-0.1 -21.54,0.6 -32.44,-0.1 -25.78,-1.6 -51.33,21.5 -51.06,47.6 0.28,27.4 20.04,49.4 47.64,51.1"
         style="fill:#303dcf;fill-opacity:1;fill-rule:nonzero;stroke:none"
         id="path232" /><path
         d="m 6630.33,13466.4 -241.39,16.8 c 0,0 -3.11,-95.5 112.52,-102.7 111.91,-7 128.87,85.9 128.87,85.9"
         style="fill:#ffffff;fill-opacity:1;fill-rule:nonzero;stroke:none"
         id="path234" /><path
         d="m 7591.68,8971.6 c 0,0 677.02,-4024.5 131.65,-7560 L 6627.61,1298.8 6015.59,6266 5069.5,1233 4016.37,1364.6 c 0,0 -223.49,4673.3 415.91,7456.6 0,0 2087.46,564.1 3159.4,150.4"
         style="fill:#fcb0b5;fill-opacity:1;fill-rule:nonzero;stroke:none"
         id="path236" /><path
         d="m 6015.59,6266 203.04,1098.9 c 0,0 160.32,-1938.9 408.98,-2379.2 248.67,-440.4 422.4,-3053.8 0,-3686.9 L 6015.59,6266"
         style="fill:#f49aa3;fill-opacity:1;fill-rule:nonzero;stroke:none"
         id="path238" /><path
         d="m 4016.37,1364.6 344.14,-43 c 0,0 30.25,498.8 -172.07,791 -202.33,292.3 -12.19,753.2 -172.07,942.8 0,0 -7.88,-1180.6 0,-1690.8"
         style="fill:#f49aa3;fill-opacity:1;fill-rule:nonzero;stroke:none"
         id="path240" /><path
         d="m 6627.61,12676 c 0,0 -164.15,-134.5 -405.68,-129.3 -102.94,2.1 -448.99,19.3 -611.67,175.8 0,0 -88.35,-4.7 -228.13,-35 -933.92,-203.1 -1212.31,-944.6 -1273.83,-1898.4 -37.42,-579.9 -95.43,-2290.6 -95.43,-2290.6 l 3622.48,186.3 -102.07,2104.3 c 0,0 102.07,1521.6 -905.67,1886.9"
         style="fill:#fcc718;fill-opacity:1;fill-rule:nonzero;stroke:none"
         id="path242" /><path
         d="m 10915.3,10723.3 c -607.3,240.4 -1036.83,833 -1036.83,1525.8 0,692.8 429.53,1285.3 1036.83,1525.8 v -3051.6"
         style="fill:#ffffff;fill-opacity:1;fill-rule:nonzero;stroke:none"
         id="path244" /><path
         d="m 11518.8,10608.7 c -213.1,0 -416.7,40.7 -603.5,114.6 v 3051.6 c 186.8,73.9 390.4,114.5 603.5,114.5 906,0 1640.4,-734.4 1640.4,-1640.3 0,-905.9 -734.4,-1640.4 -1640.4,-1640.4"
         style="fill:#faf8fb;fill-opacity:1;fill-rule:nonzero;stroke:none"
         id="path246" /><path
         d="m 11518.8,13614.5 c -739.9,0 -1341.8,-601.9 -1341.8,-1341.8 0,-739.9 601.9,-1341.9 1341.8,-1341.9 739.9,0 1341.9,602 1341.9,1341.9 0,739.9 -602,1341.8 -1341.9,1341.8 z m 0,-3152.1 c -998.2,0 -1810.23,812.1 -1810.23,1810.3 0,998.2 812.03,1810.2 1810.23,1810.2 998.2,0 1810.3,-812 1810.3,-1810.2 0,-998.2 -812.1,-1810.3 -1810.3,-1810.3"
         style="fill:#303dcf;fill-opacity:1;fill-rule:nonzero;stroke:none"
         id="path248" /><path
         d="m 8178.02,8471.3 -261.58,261.6 c -42.9,42.9 -42.9,112.5 0,155.4 l 2402.66,2402.6 334.4,-449.9 -2402.63,-2402.7 c 39.61,-9.9 -29.95,-9.9 -72.85,33"
         style="fill:#303dcf;fill-opacity:1;fill-rule:nonzero;stroke:none"
         id="path250" /><path
         d="m 7635.35,8684.8 c 0,0 -2535.31,-423.4 -3528.2,1453.8 l 9.93,767.5 c 0,0 1458.7,1270.4 1947.46,284.4 488.75,-985.9 811.1,-781 1213.37,-1186.2 402.26,-405.1 357.44,-1319.5 357.44,-1319.5"
         style="fill:#efb614;fill-opacity:1;fill-rule:nonzero;stroke:none"
         id="path252" /><path
         d="m 4834.9,12464.8 c 0,0 386.46,192.7 720.77,-722.4 334.31,-915.1 1612.63,-2241.9 2103.09,-2336.3 l 15.79,-720.9 c 0,0 -1430.03,-98.5 -2274.68,593.4 -844.64,691.9 -1235.78,1095.4 -1282.79,1627.5 0,0 -9.93,1160.9 717.82,1558.7"
         style="fill:#fcc718;fill-opacity:1;fill-rule:nonzero;stroke:none"
         id="path254" /><path
         d="m 10140.5,10278.5 c 0,0 -208.58,102.7 -381.55,0 -172.98,-102.8 -113.27,-289.3 41.39,-340.2 154.65,-50.9 364.26,-41.4 340.16,340.2"
         style="fill:#d57241;fill-opacity:1;fill-rule:nonzero;stroke:none"
         id="path256" /><path
         d="m 7652.31,9244.5 c 0,0 416.94,41.7 681.97,174.2 33.87,17 67.65,-22.5 45.33,-53.1 -22.81,-31.2 -51.97,-80.1 -113.37,-127.5 -179.42,-138.7 162.62,-139.2 162.62,-139.2 0,0 353.71,39.6 100.01,-191.7 -187.85,-171.2 -525.12,-84.3 -626.04,-32.5 -100.92,51.7 -242.7,87.3 -242.7,87.3 l -7.82,282.5"
         style="fill:#d57241;fill-opacity:1;fill-rule:nonzero;stroke:none"
         id="path258" /></g></g></svg>
