<?xml version="1.0" encoding="UTF-8" standalone="no"?>
<svg
   xmlns:dc="http://purl.org/dc/elements/1.1/"
   xmlns:cc="http://creativecommons.org/ns#"
   xmlns:rdf="http://www.w3.org/1999/02/22-rdf-syntax-ns#"
   xmlns:svg="http://www.w3.org/2000/svg"
   xmlns="http://www.w3.org/2000/svg"
   xmlns:sodipodi="http://sodipodi.sourceforge.net/DTD/sodipodi-0.dtd"
   xmlns:inkscape="http://www.inkscape.org/namespaces/inkscape"
   version="1.1"
   id="svg2"
   xml:space="preserve"
   width="1600"
   height="1600"
   viewBox="0 0 1600 1600"
   sodipodi:docname="17690486_0297_flat_light_bulb.eps"><metadata
     id="metadata8"><rdf:RDF><cc:Work
         rdf:about=""><dc:format>image/svg+xml</dc:format><dc:type
           rdf:resource="http://purl.org/dc/dcmitype/StillImage" /></cc:Work></rdf:RDF></metadata><defs
     id="defs6" /><sodipodi:namedview
     pagecolor="#ffffff"
     bordercolor="#666666"
     borderopacity="1"
     objecttolerance="10"
     gridtolerance="10"
     guidetolerance="10"
     inkscape:pageopacity="0"
     inkscape:pageshadow="2"
     inkscape:window-width="640"
     inkscape:window-height="480"
     id="namedview4" /><g
     id="g10"
     inkscape:groupmode="layer"
     inkscape:label="ink_ext_XXXXXX"
     transform="matrix(1.3333333,0,0,-1.3333333,0,1600)"><g
       id="g12"
       transform="scale(0.1)"><path
         d="M 0,0 H 12000 V 12000 H 0 Z"
         style="fill:#bd4932;fill-opacity:1;fill-rule:nonzero;stroke:none"
         id="path14" /><path
         d="m 6075.46,9058.17 c -82.84,0 -150,67.16 -150,150 v 900.03 c 0,82.8 67.16,150 150,150 82.84,0 150,-67.2 150,-150 v -900.03 c 0,-82.84 -67.16,-150 -150,-150"
         style="fill:#a9412e;fill-opacity:1;fill-rule:nonzero;stroke:none"
         id="path16" /><path
         d="m 10110.5,5923.18 h -900.05 c -82.84,0 -150,67.16 -150,150 0,82.84 67.16,150 150,150 h 900.05 c 82.8,0 149.9,-67.16 149.9,-150 0,-82.84 -67.1,-150 -149.9,-150"
         style="fill:#a9412e;fill-opacity:1;fill-rule:nonzero;stroke:none"
         id="path18" /><path
         d="m 2940.48,5923.18 h -900 c -82.85,0 -150.01,67.16 -150.01,150 0,82.84 67.16,150 150.01,150 h 900 c 82.84,0 149.99,-67.16 149.99,-150 0,-82.84 -67.15,-150 -149.99,-150"
         style="fill:#a9412e;fill-opacity:1;fill-rule:nonzero;stroke:none"
         id="path20" /><path
         d="m 8928.62,3070.01 c -38.39,0 -76.77,14.65 -106.06,43.94 l -636.4,636.4 c -58.58,58.57 -58.58,153.55 0,212.12 29.29,29.29 67.68,43.94 106.07,43.94 38.39,0 76.77,-14.65 106.06,-43.94 l 636.4,-636.39 c 58.58,-58.58 58.58,-153.56 0,-212.13 -29.29,-29.29 -67.68,-43.94 -106.07,-43.94"
         style="fill:#a9412e;fill-opacity:1;fill-rule:nonzero;stroke:none"
         id="path22" /><path
         d="m 3858.69,8139.95 c -38.39,0 -76.78,14.64 -106.06,43.93 l -636.4,636.4 c -58.58,58.58 -58.58,153.55 0,212.13 29.29,29.29 67.68,43.94 106.07,43.94 38.38,0 76.77,-14.65 106.06,-43.94 l 636.4,-636.4 c 58.58,-58.57 58.58,-153.55 0,-212.13 -29.29,-29.29 -67.68,-43.93 -106.07,-43.93"
         style="fill:#a9412e;fill-opacity:1;fill-rule:nonzero;stroke:none"
         id="path24" /><path
         d="m 8292.23,8139.95 c -38.39,0 -76.78,14.64 -106.07,43.93 -58.58,58.58 -58.58,153.56 0,212.13 l 636.4,636.4 c 29.29,29.29 67.67,43.94 106.06,43.94 38.39,0 76.78,-14.65 106.07,-43.94 58.58,-58.58 58.58,-153.55 0,-212.13 l -636.4,-636.4 c -29.29,-29.29 -67.68,-43.93 -106.06,-43.93"
         style="fill:#a9412e;fill-opacity:1;fill-rule:nonzero;stroke:none"
         id="path26" /><path
         d="m 3222.3,3070.01 c -38.39,0 -76.78,14.65 -106.07,43.94 -58.58,58.57 -58.58,153.55 0,212.13 l 636.4,636.39 c 29.28,29.29 67.67,43.94 106.06,43.94 38.39,0 76.78,-14.65 106.07,-43.94 58.58,-58.57 58.58,-153.55 0,-212.12 l -636.4,-636.4 c -29.29,-29.29 -67.67,-43.94 -106.06,-43.94"
         style="fill:#a9412e;fill-opacity:1;fill-rule:nonzero;stroke:none"
         id="path28" /><path
         d="m 6101.87,1737.6 c -198.89,0 -388.84,77.3 -524.42,213.4 l -7.21,7.2 c -75.27,5.4 -146.89,35.7 -203.35,86.45 l -4.9,4.4 c -22.06,19.85 -41.83,41.73 -59.15,65.23 48.8,-32.38 105.27,-51.73 163.97,-55.96 l 7.11,-7.14 c 135.58,-136.08 325.53,-213.38 524.42,-213.38 194.66,0 380.74,74.1 515.68,204.76 0.02,0.02 0.03,0.04 0.05,0.05 0.25,0.24 0.5,0.49 0.75,0.72 0.03,0.04 0.08,0.09 0.12,0.12 0.22,0.22 0.44,0.43 0.67,0.65 0.08,0.09 0.15,0.15 0.23,0.23 0.19,0.18 0.38,0.37 0.56,0.55 0.12,0.12 0.23,0.23 0.35,0.34 0.15,0.15 0.29,0.29 0.44,0.44 0.15,0.13 0.29,0.28 0.43,0.42 0.13,0.12 0.25,0.24 0.37,0.36 0.15,0.15 0.3,0.29 0.45,0.44 0.11,0.11 0.23,0.23 0.35,0.35 0.14,0.14 0.28,0.28 0.42,0.42 0.13,0.12 0.25,0.24 0.38,0.37 0.16,0.15 0.33,0.32 0.48,0.48 0.1,0.1 0.21,0.2 0.31,0.3 0.16,0.16 0.32,0.32 0.48,0.48 0.11,0.1 0.21,0.21 0.32,0.32 0.53,0.52 1.06,1.05 1.58,1.58 v 0 l 6.88,6.9 c 74.49,4.59 145.58,33.52 202.21,82.56 0.03,0.02 0.05,0.05 0.09,0.07 0.18,0.16 0.37,0.33 0.56,0.49 0.06,0.05 0.11,0.1 0.17,0.15 0.17,0.15 0.33,0.29 0.5,0.44 0.07,0.06 0.15,0.13 0.23,0.2 0.15,0.13 0.3,0.26 0.45,0.39 0.09,0.09 0.2,0.18 0.29,0.26 0.14,0.12 0.27,0.24 0.4,0.35 0.11,0.1 0.22,0.2 0.33,0.29 0.12,0.11 0.25,0.22 0.37,0.33 0.13,0.12 0.26,0.24 0.39,0.35 0.11,0.1 0.2,0.18 0.31,0.28 0.23,0.2 0.47,0.42 0.7,0.62 l 4.89,4.41 c 0.18,0.15 0.35,0.31 0.52,0.46 0.04,0.04 0.08,0.08 0.12,0.11 0.14,0.12 0.27,0.24 0.4,0.36 0.05,0.05 0.11,0.1 0.16,0.14 0.11,0.11 0.23,0.22 0.35,0.32 0.06,0.06 0.12,0.11 0.18,0.17 0.11,0.09 0.21,0.19 0.32,0.29 0.08,0.07 0.16,0.14 0.23,0.21 0.09,0.08 0.17,0.15 0.25,0.23 0.09,0.08 0.18,0.16 0.27,0.24 0.07,0.07 0.14,0.14 0.22,0.2 0.1,0.1 0.21,0.2 0.32,0.29 0.03,0.04 0.07,0.07 0.1,0.1 39.63,36.41 71.74,79.43 95.23,126.63 h 26.48 c 78.85,0 143.36,64.51 143.36,143.36 v 0 c 0,0.15 0,0.3 0,0.44 0,0.05 0,0.09 0,0.14 0,0.1 0,0.21 0,0.31 -0.01,0.05 -0.01,0.1 -0.01,0.15 0,0.1 0,0.2 0,0.3 0,0.05 0,0.09 0,0.14 0,0.1 0,0.21 0,0.31 0,0.05 0,0.09 0,0.15 -0.01,0.1 -0.01,0.19 -0.01,0.29 0,0.06 0,0.1 0,0.16 0,0.09 -0.01,0.19 -0.01,0.29 0,0.05 0,0.1 0,0.16 0,0.09 0,0.19 -0.01,0.29 0,0.05 0,0.1 0,0.15 0,0.1 0,0.19 -0.01,0.29 0,0.06 0,0.11 0,0.16 0,0.1 -0.01,0.2 -0.01,0.3 0,0.04 0,0.1 0,0.14 -0.01,0.11 -0.01,0.22 -0.01,0.32 0,0.04 0,0.09 -0.01,0.13 -0.01,0.29 -0.02,0.58 -0.03,0.87 0,0.07 0,0.13 0,0.19 -0.01,0.09 -0.01,0.17 -0.01,0.26 -0.01,0.07 -0.01,0.13 -0.01,0.2 -0.01,0.07 -0.01,0.16 -0.01,0.23 -0.01,0.07 -0.01,0.15 -0.01,0.22 -0.01,0.08 -0.01,0.14 -0.01,0.22 -0.01,0.08 -0.01,0.17 -0.02,0.25 0,0.05 0,0.11 0,0.16 -0.01,0.1 -0.01,0.19 -0.02,0.29 0,0.05 0,0.09 -0.01,0.14 0,0.1 -0.01,0.2 -0.01,0.3 0,0.04 -0.01,0.07 -0.01,0.11 0,0.11 -0.01,0.21 -0.02,0.32 0,0.04 0,0.07 0,0.1 -0.01,0.12 -0.02,0.23 -0.02,0.35 0,0.01 0,0.01 0,0.03 -0.64,10.29 -2.37,20.29 -5.09,29.9 62.32,-15.54 108.88,-72.02 108.88,-138.98 0,-78.85 -64.5,-143.36 -143.35,-143.36 h -26.58 c -24.17,-48.54 -57.37,-92.7 -98.57,-129.75 l -4.9,-4.4 c -57.35,-51.55 -130.33,-81.95 -206.91,-86.75 l -6.96,-6.9 c -135.58,-136.1 -325.53,-213.4 -524.42,-213.4 m -873.45,441.45 c -61.67,3.62 -113.19,46.69 -129.52,104.18 11.03,-2.75 22.56,-4.21 34.42,-4.21 h 26.48 c 17.99,-36.14 41.03,-69.82 68.62,-99.97 m 1760.93,317.29 c -22.04,36.32 -59.73,62.2 -103.53,68.11 v 145.92 c 67.7,9.14 120.81,66 124.06,135.33 v 0.01 c 0.04,0.81 0.07,1.62 0.09,2.43 0,0.03 0.01,0.07 0.01,0.1 0,0.1 0,0.2 0,0.29 0.01,0.05 0.01,0.1 0.01,0.15 0,0.09 0,0.17 0.01,0.26 0,0.07 0,0.13 0,0.19 0,0.08 0,0.16 0,0.24 0.01,0.07 0.01,0.14 0.01,0.21 0,0.07 0,0.15 0,0.22 0.01,0.08 0.01,0.15 0.01,0.23 0,0.07 0,0.14 0,0.21 0,0.08 0,0.16 0,0.23 0.01,0.07 0.01,0.14 0.01,0.21 0,0.08 0,0.17 0,0.25 0,0.06 0,0.13 0,0.19 0,0.08 0,0.17 0,0.25 0,0.07 0,0.13 0.01,0.2 0,0.08 0,0.17 0,0.26 0,0.06 0,0.12 0,0.18 0,0.14 0,0.29 0,0.44 v 0 0 0 0 c 0,0.14 0,0.29 0,0.44 0,0.06 0,0.11 0,0.18 0,0.08 0,0.17 0,0.26 -0.01,0.07 -0.01,0.13 -0.01,0.19 0,0.09 0,0.17 0,0.26 0,0.06 0,0.12 0,0.18 0,0.09 0,0.18 0,0.26 0,0.07 0,0.13 -0.01,0.2 0,0.08 0,0.16 0,0.24 0,0.07 0,0.14 0,0.21 0,0.08 0,0.15 -0.01,0.23 0,0.07 0,0.15 0,0.22 0,0.07 0,0.14 -0.01,0.21 0,0.08 0,0.16 0,0.23 0,0.07 0,0.13 0,0.2 -0.01,0.08 -0.01,0.17 -0.01,0.26 0,0.05 0,0.1 -0.01,0.15 0,0.1 0,0.19 0,0.28 0,0.04 -0.01,0.09 -0.01,0.12 -0.02,0.8 -0.05,1.6 -0.09,2.4 0,0.02 0,0.02 0,0.03 -0.52,11.03 -2.3,21.75 -5.2,32.01 62.33,-15.54 108.88,-72.02 108.88,-138.98 0,-72.34 -54.35,-132.46 -124.21,-141.92 v -113.97 m -1875.17,182 c -6.56,10.81 -11.74,22.54 -15.27,34.95 4.99,-1.24 10.09,-2.22 15.27,-2.92 v -32.03 m 1875.17,248.07 c -22.04,36.32 -59.73,62.2 -103.53,68.11 v 145.92 c 67.7,9.14 120.81,66 124.06,135.33 v 0.01 c 0.04,0.81 0.07,1.62 0.09,2.43 0,0.03 0.01,0.06 0.01,0.1 0,0.1 0,0.2 0,0.29 0.01,0.05 0.01,0.1 0.01,0.15 0,0.09 0,0.17 0.01,0.26 0,0.07 0,0.12 0,0.19 0,0.08 0,0.16 0,0.24 0.01,0.07 0.01,0.13 0.01,0.21 0,0.07 0,0.15 0,0.22 0.01,0.08 0.01,0.15 0.01,0.22 0,0.08 0,0.15 0,0.22 0,0.08 0,0.16 0,0.23 0.01,0.07 0.01,0.14 0.01,0.2 0,0.09 0,0.18 0,0.26 0,0.06 0,0.13 0,0.19 0,0.08 0,0.17 0,0.25 0,0.07 0,0.13 0.01,0.19 0,0.09 0,0.18 0,0.27 0,0.06 0,0.12 0,0.18 0,0.14 0,0.29 0,0.44 v 0 0 0 0 c 0,0.14 0,0.29 0,0.44 0,0.06 0,0.11 0,0.18 0,0.08 0,0.17 0,0.26 -0.01,0.07 -0.01,0.13 -0.01,0.19 0,0.09 0,0.17 0,0.26 0,0.06 0,0.12 0,0.18 0,0.09 0,0.18 0,0.26 0,0.07 0,0.13 -0.01,0.2 0,0.08 0,0.16 0,0.24 0,0.07 0,0.14 0,0.21 0,0.08 0,0.15 -0.01,0.23 0,0.07 0,0.15 0,0.22 0,0.07 0,0.14 -0.01,0.21 0,0.08 0,0.16 0,0.23 0,0.07 0,0.13 0,0.2 -0.01,0.08 -0.01,0.17 -0.01,0.25 0,0.06 0,0.11 -0.01,0.16 0,0.09 0,0.19 0,0.28 0,0.04 -0.01,0.08 -0.01,0.12 -0.02,0.8 -0.05,1.6 -0.09,2.4 0,0.02 0,0.02 0,0.03 -0.52,11.03 -2.3,21.75 -5.2,32.01 62.32,-15.54 108.88,-72.02 108.88,-138.98 0,-72.35 -54.35,-132.47 -124.21,-141.92 v -113.97 m -1875.17,182 c -6.56,10.81 -11.74,22.54 -15.27,34.95 4.99,-1.24 10.09,-2.22 15.27,-2.92 v -32.03 m 1875.17,248.07 c -22.04,36.31 -59.73,62.2 -103.53,68.11 v 147.23 c 85.54,7 156.95,68.61 176.52,152.01 0.01,0.02 0.02,0.05 0.02,0.07 0.03,0.11 0.05,0.23 0.08,0.35 0.02,0.06 0.03,0.14 0.05,0.2 0.02,0.08 0.04,0.17 0.06,0.25 0.02,0.1 0.04,0.21 0.07,0.31 0.01,0.07 0.03,0.15 0.05,0.22 0.02,0.1 0.05,0.22 0.07,0.32 0.02,0.07 0.03,0.15 0.05,0.22 0.02,0.11 0.05,0.21 0.07,0.33 0.02,0.07 0.03,0.14 0.05,0.21 0.03,0.12 0.05,0.23 0.08,0.34 0.01,0.07 0.02,0.13 0.04,0.19 0.02,0.12 0.05,0.25 0.08,0.37 0.01,0.06 0.02,0.11 0.03,0.17 0.03,0.13 0.06,0.26 0.09,0.39 0.01,0.05 0.02,0.1 0.03,0.15 0.03,0.13 0.06,0.27 0.08,0.4 0.01,0.05 0.03,0.1 0.04,0.15 0.03,0.15 0.06,0.3 0.09,0.45 0,0.03 0.01,0.05 0.01,0.08 0.04,0.16 0.07,0.32 0.11,0.49 0,0.02 0,0.04 0.01,0.06 0.03,0.17 0.07,0.35 0.11,0.53 0,0.01 0,0.01 0,0.01 0.33,1.68 0.65,3.37 0.95,5.06 0,0.02 0,0.04 0.01,0.06 0.03,0.17 0.05,0.33 0.08,0.5 0.01,0.02 0.01,0.05 0.02,0.08 0.02,0.15 0.05,0.31 0.08,0.46 0,0.05 0.01,0.08 0.02,0.12 0.02,0.15 0.05,0.3 0.07,0.45 0.01,0.03 0.01,0.08 0.02,0.11 0.02,0.15 0.05,0.3 0.07,0.44 0.01,0.04 0.02,0.09 0.02,0.13 0.03,0.15 0.05,0.29 0.07,0.44 0.01,0.04 0.02,0.08 0.02,0.12 0.03,0.15 0.05,0.29 0.07,0.44 0.01,0.05 0.01,0.08 0.02,0.12 0.02,0.15 0.04,0.29 0.07,0.43 0,0.05 0.01,0.1 0.02,0.15 0.02,0.14 0.04,0.27 0.06,0.41 0.01,0.05 0.02,0.1 0.02,0.15 0.03,0.14 0.05,0.28 0.07,0.42 0,0.05 0.01,0.1 0.02,0.14 0.02,0.14 0.04,0.28 0.06,0.42 0.01,0.05 0.01,0.1 0.02,0.15 0.02,0.15 0.04,0.29 0.06,0.44 0.01,0.04 0.02,0.08 0.02,0.12 0.03,0.19 0.05,0.38 0.08,0.56 l 7.65,55.09 c 50.96,367.23 214.01,709.62 466.19,981.4 347.59,374.62 560.14,876.3 560.14,1427.66 v 0 0 c 0,566.25 -224.14,1080.14 -588.54,1457.8 425.03,-384.24 692.07,-939.93 692.07,-1558.01 0,-551.36 -212.55,-1053.04 -560.15,-1427.67 -252.18,-271.78 -415.22,-614.16 -466.19,-981.4 l -7.64,-55.09 c -12.84,-92.5 -88.27,-162.6 -179.91,-170.1 v -115.21 m -1875.17,154.87 c -25.72,19.53 -46.59,45.26 -60.3,75.19 18.86,-7.92 39.15,-12.98 60.3,-14.72 v -60.47"
         style="fill:#a9412e;fill-opacity:1;fill-rule:nonzero;stroke:none"
         id="path30" /><path
         d="m 5998.34,1837.8 c -198.89,0 -388.84,77.3 -524.42,213.38 l -8.22,8.25 h 1065.28 l -8.22,-8.25 C 6387.18,1915.1 6197.23,1837.8 5998.34,1837.8"
         style="fill:#414042;fill-opacity:1;fill-rule:nonzero;stroke:none"
         id="path32" /><path
         d="m 5130.47,3571.16 h 1739.06 c 98.88,0 182.61,72.92 196.2,170.85 l 7.65,55.09 c 50.96,367.23 214.01,709.62 466.19,981.4 347.59,374.62 560.14,876.3 560.14,1427.66 0,1135.54 -901.4,2060.54 -2027.69,2098.5 -1207.1,40.68 -2205.41,-952.41 -2170.86,-2159.69 15.07,-526.47 223.97,-1004.35 557.81,-1364.89 250.47,-270.49 415.72,-608.74 466.39,-973.89 l 8.91,-64.18 c 13.59,-97.93 97.32,-170.85 196.2,-170.85"
         style="fill:#ffd34e;fill-opacity:1;fill-rule:nonzero;stroke:none"
         id="path34" /><path
         d="m 6751.4,5144.69 h -305.7 l 20.84,252.5 c 12.99,140.18 98.67,284.68 260.78,291.5 150,6.14 277.15,-110.59 283.47,-260.58 6.29,-149.59 -109.98,-276.47 -259.39,-283.42 m -1496.17,0 c -149.41,6.95 -265.68,133.83 -259.39,283.42 6.31,149.99 133.58,266.67 283.47,260.58 162.11,-6.82 247.78,-151.32 260.73,-290.9 l 20.88,-253.1 h -305.69 m 1875.12,288.45 c -9.09,215.92 -192.09,384.28 -408.06,375.11 -199.68,-8.4 -353.84,-172.89 -374.96,-400.62 l -21.69,-262.94 h -644.65 l -21.75,263.54 c -21.05,227.13 -175.22,391.62 -374.9,400.02 -215.84,9.2 -398.98,-159.19 -408.05,-375.11 -9.09,-215.92 159.18,-398.97 375.1,-408.05 l 319.4,-0.06 121.79,-1476.07 119.26,9.84 -120.98,1466.23 h 624.91 L 6194.8,3558.8 l 119.25,-9.84 121.78,1476.07 h 316.89 l 2.52,0.06 c 215.91,9.08 384.19,192.13 375.11,408.05"
         style="fill:#db9e36;fill-opacity:1;fill-rule:nonzero;stroke:none"
         id="path36" /><path
         d="M 6508.67,2057.44 H 5491.33 c -84.18,0 -165.38,31.14 -227.97,87.42 l -4.89,4.41 c -91.84,82.58 -144.29,200.29 -144.29,323.8 V 3572.29 H 6885.82 V 2473.07 c 0,-123.51 -52.45,-241.22 -144.29,-323.8 l -4.89,-4.41 c -62.59,-56.28 -143.79,-87.42 -227.97,-87.42"
         style="fill:#fffad5;fill-opacity:1;fill-rule:nonzero;stroke:none"
         id="path38" /><path
         d="m 6003.32,2057.44 h -511.99 c -84.18,0 -165.38,31.14 -227.97,87.42 l -4.89,4.41 c -41.22,37.06 -74.5,81.19 -98.67,129.75 h 843.52 v -221.58 m 526.32,0.64 0.08,0.09 c 74.46,4.6 145.53,33.46 202.13,82.47 -56.63,-49.04 -127.72,-77.97 -202.21,-82.56 m 202.3,82.63 c 0.18,0.16 0.37,0.33 0.56,0.49 -0.19,-0.16 -0.38,-0.33 -0.56,-0.49 m 0.73,0.64 c 0.17,0.15 0.33,0.29 0.5,0.44 -0.17,-0.15 -0.33,-0.29 -0.5,-0.44 m 0.73,0.64 c 0.15,0.13 0.3,0.26 0.45,0.39 -0.15,-0.13 -0.3,-0.26 -0.45,-0.39 m 0.74,0.65 c 0.14,0.12 0.27,0.24 0.4,0.35 -0.13,-0.11 -0.26,-0.23 -0.4,-0.35 m 0.73,0.64 c 0.12,0.11 0.25,0.22 0.37,0.33 -0.12,-0.11 -0.25,-0.22 -0.37,-0.33 m 0.76,0.68 c 0.11,0.1 0.2,0.18 0.31,0.28 -0.11,-0.1 -0.2,-0.18 -0.31,-0.28 m 6.42,5.77 c 0.04,0.04 0.08,0.08 0.12,0.11 -0.04,-0.03 -0.08,-0.07 -0.12,-0.11 m 0.52,0.47 c 0.05,0.05 0.11,0.1 0.16,0.14 -0.05,-0.04 -0.11,-0.09 -0.16,-0.14 m 0.51,0.46 c 0.06,0.06 0.12,0.11 0.18,0.17 -0.06,-0.06 -0.12,-0.11 -0.18,-0.17 m 0.5,0.46 c 0.08,0.07 0.16,0.14 0.23,0.21 -0.07,-0.07 -0.15,-0.14 -0.23,-0.21 m 0.48,0.44 c 0.09,0.08 0.18,0.16 0.27,0.24 -0.09,-0.08 -0.18,-0.16 -0.27,-0.24 m 0.49,0.44 c 0.1,0.1 0.21,0.2 0.32,0.29 -0.11,-0.09 -0.22,-0.19 -0.32,-0.29 m 0.42,0.39 c 39.62,36.4 71.64,79.45 95.13,126.63 h 0.1 c -23.49,-47.2 -55.6,-90.22 -95.23,-126.63 m -1630.79,412.06 v 145.92 c 6.27,-0.84 12.65,-1.28 19.14,-1.28 h 870 v -143.36 h -870 c -6.49,0 -12.87,-0.43 -19.14,-1.28 m 0,430.07 v 145.92 c 6.27,-0.84 12.65,-1.28 19.14,-1.28 h 870 V 2995.8 h -870 c -6.49,0 -12.87,-0.43 -19.14,-1.28 m 0,430.07 v 147.7 h 889.14 v -146.42 h -870 c -6.49,0 -12.87,-0.43 -19.14,-1.28"
         style="fill:#f8f3d0;fill-opacity:1;fill-rule:nonzero;stroke:none"
         id="path40" /><path
         d="m 5133.32,3139.16 h 1733.36 c 78.85,0 143.36,64.51 143.36,143.36 0,78.84 -64.51,143.35 -143.36,143.35 H 5133.32 c -78.85,0 -143.36,-64.51 -143.36,-143.35 0,-78.85 64.51,-143.36 143.36,-143.36"
         style="fill:#fffad5;fill-opacity:1;fill-rule:nonzero;stroke:none"
         id="path42" /><path
         d="m 5133.32,2709.09 h 1733.36 c 78.85,0 143.36,64.51 143.36,143.36 0,78.84 -64.51,143.35 -143.36,143.35 H 5133.32 c -78.85,0 -143.36,-64.51 -143.36,-143.35 0,-78.85 64.51,-143.36 143.36,-143.36"
         style="fill:#fffad5;fill-opacity:1;fill-rule:nonzero;stroke:none"
         id="path44" /><path
         d="m 5133.32,2279.02 h 1733.36 c 78.85,0 143.36,64.51 143.36,143.36 0,78.84 -64.51,143.35 -143.36,143.35 H 5133.32 c -78.85,0 -143.36,-64.51 -143.36,-143.35 0,-78.85 64.51,-143.36 143.36,-143.36"
         style="fill:#fffad5;fill-opacity:1;fill-rule:nonzero;stroke:none"
         id="path46" /><path
         d="m 6003.32,3139.16 h -870 c -78.85,0 -143.36,64.51 -143.36,143.36 h 1013.36 v -143.36 m 882.5,1.28 v 0.16 c 67.68,9.16 120.81,65.86 124.06,135.17 -3.25,-69.33 -56.36,-126.19 -124.06,-135.33 m 124.06,135.34 c 0.04,0.81 0.07,1.62 0.09,2.43 -0.02,-0.81 -0.05,-1.62 -0.09,-2.43 m 0.1,2.53 c 0,0.1 0,0.19 0,0.29 0,-0.09 0,-0.19 0,-0.29 m 0.01,0.44 c 0,0.08 0,0.18 0.01,0.26 -0.01,-0.09 -0.01,-0.17 -0.01,-0.26 m 0.01,0.45 c 0,0.08 0,0.16 0,0.24 0,-0.08 0,-0.16 0,-0.24 m 0.01,0.45 c 0,0.07 0,0.15 0,0.22 0,-0.07 0,-0.15 0,-0.22 m 0.01,0.44 c 0,0.07 0,0.15 0,0.22 0,-0.07 0,-0.14 0,-0.22 m 0,0.45 c 0.01,0.07 0.01,0.14 0.01,0.2 0,-0.06 0,-0.13 -0.01,-0.2 m 0.01,0.46 c 0,0.07 0,0.12 0,0.19 0,-0.06 0,-0.13 0,-0.19 m 0,0.44 c 0,0.06 0,0.13 0.01,0.19 -0.01,-0.06 -0.01,-0.12 -0.01,-0.19 m 0.01,0.46 c 0,0.06 0,0.12 0,0.18 0,-0.06 0,-0.12 0,-0.18"
         style="fill:#ece8c8;fill-opacity:1;fill-rule:nonzero;stroke:none"
         id="path48" /><path
         d="m 6003.32,2709.09 h -870 c -78.85,0 -143.36,64.51 -143.36,143.36 h 1013.36 v -143.36"
         style="fill:#ece8c8;fill-opacity:1;fill-rule:nonzero;stroke:none"
         id="path50" /><path
         d="m 6885.82,2710.37 v 0.16 c 67.68,9.16 120.81,65.86 124.06,135.17 -3.25,-69.33 -56.36,-126.19 -124.06,-135.33"
         style="fill:#ece8c8;fill-opacity:1;fill-rule:nonzero;stroke:none"
         id="path52" /><path
         d="m 7009.88,2845.71 c 0.04,0.81 0.07,1.62 0.09,2.43 -0.02,-0.81 -0.05,-1.62 -0.09,-2.43"
         style="fill:#ece8c8;fill-opacity:1;fill-rule:nonzero;stroke:none"
         id="path54" /><path
         d="m 7009.98,2848.24 c 0,0.1 0,0.19 0,0.29 0,-0.09 0,-0.19 0,-0.29"
         style="fill:#ece8c8;fill-opacity:1;fill-rule:nonzero;stroke:none"
         id="path56" /><path
         d="m 7009.99,2848.68 c 0,0.08 0,0.18 0.01,0.26 -0.01,-0.09 -0.01,-0.17 -0.01,-0.26"
         style="fill:#ece8c8;fill-opacity:1;fill-rule:nonzero;stroke:none"
         id="path58" /><path
         d="m 7010,2849.13 c 0,0.08 0,0.16 0,0.24 0,-0.08 0,-0.16 0,-0.24"
         style="fill:#ece8c8;fill-opacity:1;fill-rule:nonzero;stroke:none"
         id="path60" /><path
         d="m 7010.01,2849.58 c 0,0.07 0,0.15 0,0.22 0,-0.07 0,-0.15 0,-0.22"
         style="fill:#ece8c8;fill-opacity:1;fill-rule:nonzero;stroke:none"
         id="path62" /><path
         d="m 7010.02,2850.03 c 0,0.07 0,0.14 0,0.21 0,-0.07 0,-0.14 0,-0.21"
         style="fill:#ece8c8;fill-opacity:1;fill-rule:nonzero;stroke:none"
         id="path64" /><path
         d="m 7010.02,2850.47 c 0.01,0.07 0.01,0.14 0.01,0.21 0,-0.07 0,-0.14 -0.01,-0.21"
         style="fill:#ece8c8;fill-opacity:1;fill-rule:nonzero;stroke:none"
         id="path66" /><path
         d="m 7010.03,2850.93 c 0,0.07 0,0.12 0,0.19 0,-0.06 0,-0.13 0,-0.19"
         style="fill:#ece8c8;fill-opacity:1;fill-rule:nonzero;stroke:none"
         id="path68" /><path
         d="m 7010.03,2851.37 c 0,0.06 0,0.13 0.01,0.2 -0.01,-0.07 -0.01,-0.13 -0.01,-0.2"
         style="fill:#ece8c8;fill-opacity:1;fill-rule:nonzero;stroke:none"
         id="path70" /><path
         d="m 7010.04,2851.83 c 0,0.06 0,0.12 0,0.18 0,-0.06 0,-0.12 0,-0.18"
         style="fill:#ece8c8;fill-opacity:1;fill-rule:nonzero;stroke:none"
         id="path72" /><path
         d="m 6003.32,2279.02 h -870 c -78.85,0 -143.36,64.51 -143.36,143.36 h 1013.36 v -143.36"
         style="fill:#ece8c8;fill-opacity:1;fill-rule:nonzero;stroke:none"
         id="path74" /><path
         d="m 6514.02,2042.56 c 0.02,0.02 0.03,0.03 0.05,0.05 -0.02,-0.01 -0.03,-0.03 -0.05,-0.05 m 0.8,0.77 c 0.04,0.04 0.07,0.08 0.12,0.12 -0.04,-0.03 -0.09,-0.08 -0.12,-0.12 m 0.79,0.77 c 0.07,0.08 0.16,0.16 0.23,0.23 -0.08,-0.08 -0.15,-0.14 -0.23,-0.23 m 0.79,0.78 c 0.12,0.12 0.23,0.22 0.35,0.34 -0.12,-0.11 -0.23,-0.22 -0.35,-0.34 m 0.79,0.78 c 0.15,0.14 0.29,0.28 0.43,0.42 -0.14,-0.14 -0.28,-0.29 -0.43,-0.42 m 0.8,0.78 c 0.15,0.15 0.3,0.29 0.45,0.44 -0.15,-0.15 -0.3,-0.29 -0.45,-0.44 m 0.8,0.79 c 0.14,0.14 0.28,0.27 0.42,0.42 -0.14,-0.14 -0.28,-0.28 -0.42,-0.42 m 0.8,0.79 c 0.16,0.15 0.32,0.32 0.48,0.48 -0.15,-0.16 -0.32,-0.33 -0.48,-0.48 m 0.79,0.78 c 0.16,0.16 0.32,0.32 0.48,0.48 -0.16,-0.16 -0.32,-0.32 -0.48,-0.48 m 0.8,0.8 c 0.53,0.53 1.05,1.05 1.58,1.58 v 0 c -0.52,-0.53 -1.05,-1.06 -1.58,-1.58 m 210.67,91.04 c 0.03,0.02 0.05,0.05 0.09,0.07 -0.04,-0.02 -0.06,-0.05 -0.09,-0.07 m 0.65,0.56 c 0.05,0.05 0.11,0.1 0.17,0.15 -0.06,-0.05 -0.11,-0.1 -0.17,-0.15 m 0.67,0.59 c 0.08,0.06 0.15,0.13 0.23,0.2 -0.08,-0.07 -0.16,-0.14 -0.23,-0.2 m 0.68,0.59 c 0.1,0.09 0.19,0.18 0.29,0.26 -0.09,-0.08 -0.2,-0.17 -0.29,-0.26 m 0.69,0.61 c 0.11,0.1 0.22,0.2 0.33,0.29 -0.11,-0.09 -0.22,-0.19 -0.33,-0.29 m 0.7,0.62 c 0.13,0.12 0.26,0.24 0.39,0.35 -0.13,-0.11 -0.26,-0.23 -0.39,-0.35 m 0.7,0.63 c 0.23,0.21 0.46,0.41 0.7,0.62 l 4.89,4.41 c 0.18,0.15 0.35,0.31 0.52,0.46 -0.17,-0.15 -0.34,-0.31 -0.52,-0.46 l -4.89,-4.41 c -0.23,-0.2 -0.47,-0.42 -0.7,-0.62 m 6.23,5.6 c 0.14,0.12 0.27,0.24 0.4,0.36 -0.13,-0.12 -0.26,-0.24 -0.4,-0.36 m 0.56,0.5 c 0.11,0.11 0.23,0.22 0.35,0.32 -0.12,-0.1 -0.24,-0.21 -0.35,-0.32 m 0.53,0.49 c 0.1,0.09 0.21,0.19 0.32,0.29 -0.11,-0.1 -0.21,-0.2 -0.32,-0.29 m 0.55,0.5 c 0.09,0.08 0.17,0.15 0.25,0.23 -0.08,-0.08 -0.16,-0.15 -0.25,-0.23 m 0.52,0.47 c 0.07,0.07 0.15,0.14 0.22,0.2 -0.08,-0.06 -0.15,-0.13 -0.22,-0.2 m 0.54,0.49 c 0.03,0.04 0.06,0.07 0.1,0.1 -0.03,-0.03 -0.07,-0.06 -0.1,-0.1 m 121.81,126.73 h -26.48 v 0 h 26.48 c 78.85,0 143.36,64.51 143.36,143.36 v 0 0 c 0,0.15 0,0.29 0,0.44 0,-0.14 0,-0.29 0,-0.44 v 0 c 0,-78.85 -64.51,-143.36 -143.36,-143.36 m 143.36,143.94 c 0,0.1 0,0.21 0,0.31 0,-0.1 0,-0.21 0,-0.31 m -0.01,0.46 c 0,0.1 0,0.2 0,0.3 0,-0.1 0,-0.2 0,-0.3 m 0,0.44 c 0,0.1 0,0.21 0,0.31 0,-0.1 0,-0.21 0,-0.31 m 0,0.46 c -0.01,0.09 -0.01,0.2 -0.01,0.29 0,-0.1 0,-0.19 0.01,-0.29 m -0.01,0.45 c 0,0.09 -0.01,0.19 -0.01,0.29 0,-0.1 0.01,-0.2 0.01,-0.29 m -0.01,0.45 c 0,0.09 0,0.19 -0.01,0.29 0.01,-0.1 0.01,-0.2 0.01,-0.29 m -0.01,0.44 c 0,0.1 0,0.2 -0.01,0.29 0.01,-0.1 0.01,-0.19 0.01,-0.29 m -0.01,0.45 c 0,0.1 -0.01,0.2 -0.01,0.3 0,-0.1 0.01,-0.2 0.01,-0.3 m -0.01,0.44 c -0.01,0.11 -0.01,0.22 -0.01,0.32 0,-0.1 0,-0.21 0.01,-0.32 m -0.02,0.45 c -0.01,0.29 -0.02,0.58 -0.03,0.87 0.01,-0.29 0.02,-0.58 0.03,-0.87 m -0.03,1.06 c -0.01,0.08 -0.01,0.18 -0.01,0.26 0,-0.09 0,-0.17 0.01,-0.26 m -0.02,0.46 c -0.01,0.08 -0.01,0.15 -0.01,0.23 0,-0.07 0,-0.16 0.01,-0.23 m -0.02,0.45 c -0.01,0.07 -0.01,0.14 -0.01,0.22 0,-0.08 0,-0.14 0.01,-0.22 m -0.03,0.47 c 0,0.05 0,0.11 0,0.16 0,-0.05 0,-0.11 0,-0.16 m -0.02,0.45 c 0,0.04 0,0.09 -0.01,0.14 0.01,-0.05 0.01,-0.09 0.01,-0.14 m -0.02,0.44 c 0,0.04 -0.01,0.08 -0.01,0.11 0,-0.04 0.01,-0.07 0.01,-0.11 m -0.03,0.43 c 0,0.04 0,0.07 0,0.1 0,-0.03 0,-0.06 0,-0.1 m -0.02,0.45 c 0,0.01 0,0.02 0,0.03 0,-0.02 0,-0.02 0,-0.03"
         style="fill:#993424;fill-opacity:1;fill-rule:nonzero;stroke:none"
         id="path76" /><path
         d="m 6003.32,1838 v 219.44 h 505.35 c 7.02,0 14,0.21 20.97,0.64 l -6.88,-6.9 c -0.53,-0.53 -1.05,-1.05 -1.58,-1.58 -0.11,-0.11 -0.22,-0.22 -0.32,-0.32 -0.16,-0.16 -0.32,-0.32 -0.48,-0.48 -0.11,-0.1 -0.2,-0.2 -0.31,-0.3 -0.16,-0.16 -0.32,-0.33 -0.48,-0.48 -0.13,-0.13 -0.24,-0.24 -0.38,-0.37 -0.14,-0.15 -0.28,-0.28 -0.42,-0.42 -0.12,-0.12 -0.24,-0.24 -0.35,-0.35 -0.15,-0.15 -0.3,-0.29 -0.45,-0.44 -0.12,-0.12 -0.24,-0.24 -0.37,-0.36 -0.14,-0.14 -0.28,-0.28 -0.43,-0.42 -0.15,-0.15 -0.29,-0.29 -0.44,-0.44 -0.12,-0.12 -0.23,-0.22 -0.35,-0.34 -0.18,-0.18 -0.38,-0.37 -0.56,-0.55 -0.07,-0.07 -0.16,-0.15 -0.23,-0.23 -0.23,-0.21 -0.45,-0.43 -0.67,-0.65 -0.05,-0.04 -0.08,-0.08 -0.12,-0.12 -0.25,-0.24 -0.5,-0.48 -0.75,-0.72 -0.02,-0.02 -0.03,-0.03 -0.05,-0.05 C 6380.23,1913 6196.16,1839.2 6003.32,1838"
         style="fill:#333335;fill-opacity:1;fill-rule:nonzero;stroke:none"
         id="path78" /><path
         d="m 6508.67,2057.44 h -505.35 v 221.58 h 836.88 v 0 h -0.1 c -23.49,-47.18 -55.51,-90.23 -95.13,-126.63 -0.04,-0.03 -0.07,-0.06 -0.1,-0.1 -0.11,-0.09 -0.22,-0.19 -0.32,-0.29 -0.07,-0.06 -0.15,-0.13 -0.22,-0.2 -0.09,-0.08 -0.18,-0.16 -0.27,-0.24 -0.08,-0.08 -0.16,-0.15 -0.25,-0.23 -0.07,-0.07 -0.15,-0.14 -0.23,-0.21 -0.11,-0.1 -0.22,-0.2 -0.32,-0.29 -0.06,-0.06 -0.12,-0.11 -0.18,-0.17 -0.12,-0.1 -0.24,-0.21 -0.35,-0.32 -0.05,-0.04 -0.11,-0.09 -0.16,-0.14 -0.13,-0.12 -0.26,-0.24 -0.4,-0.36 -0.04,-0.03 -0.08,-0.07 -0.12,-0.11 -0.17,-0.15 -0.34,-0.31 -0.52,-0.46 l -4.89,-4.41 c -0.24,-0.21 -0.47,-0.41 -0.7,-0.62 -0.11,-0.1 -0.2,-0.18 -0.31,-0.28 -0.13,-0.11 -0.26,-0.23 -0.39,-0.35 -0.12,-0.11 -0.25,-0.22 -0.37,-0.33 -0.11,-0.09 -0.22,-0.19 -0.33,-0.29 -0.13,-0.11 -0.26,-0.23 -0.4,-0.35 -0.1,-0.08 -0.19,-0.17 -0.29,-0.26 -0.15,-0.13 -0.3,-0.26 -0.45,-0.39 -0.08,-0.07 -0.15,-0.14 -0.23,-0.2 -0.17,-0.15 -0.33,-0.29 -0.5,-0.44 -0.06,-0.05 -0.12,-0.1 -0.17,-0.15 -0.19,-0.16 -0.38,-0.33 -0.56,-0.49 -0.04,-0.02 -0.06,-0.05 -0.09,-0.07 -56.6,-49.01 -127.67,-77.87 -202.13,-82.47 l -0.08,-0.09 c -6.97,-0.43 -13.95,-0.64 -20.97,-0.64 m 377.15,507.01 c -6.27,0.85 -12.65,1.28 -19.14,1.28 h -863.36 v 143.36 h 863.36 c 6.49,0 12.87,0.44 19.14,1.28 v -145.92"
         style="fill:#f5efc6;fill-opacity:1;fill-rule:nonzero;stroke:none"
         id="path80" /><path
         d="M 7010.04,2422.38 H 6003.32 v 143.35 h 863.36 c 6.49,0 12.87,-0.43 19.14,-1.28 v 0 -0.15 c 66.99,-9.07 119.72,-64.72 123.95,-133.06 0,-0.01 0,-0.02 0,-0.03 0,-0.11 0.01,-0.23 0.02,-0.35 0,-0.03 0,-0.06 0,-0.1 0.01,-0.1 0.02,-0.21 0.02,-0.32 0,-0.03 0.01,-0.07 0.01,-0.11 0,-0.1 0.01,-0.2 0.01,-0.3 0.01,-0.05 0.01,-0.1 0.01,-0.14 0.01,-0.1 0.01,-0.19 0.02,-0.29 0,-0.05 0,-0.11 0,-0.16 0.01,-0.08 0.01,-0.17 0.02,-0.25 0,-0.08 0,-0.15 0.01,-0.22 0,-0.07 0,-0.15 0.01,-0.22 0,-0.08 0,-0.15 0.01,-0.23 0,-0.07 0,-0.13 0.01,-0.2 0,-0.08 0,-0.18 0.01,-0.26 0,-0.06 0,-0.12 0,-0.19 0.01,-0.29 0.02,-0.58 0.03,-0.87 0.01,-0.05 0.01,-0.09 0.01,-0.13 0,-0.1 0,-0.21 0.01,-0.32 0,-0.05 0,-0.1 0,-0.14 0,-0.1 0.01,-0.2 0.01,-0.3 0,-0.05 0,-0.1 0,-0.16 0.01,-0.09 0.01,-0.19 0.01,-0.29 0,-0.05 0,-0.11 0,-0.15 0.01,-0.1 0.01,-0.2 0.01,-0.29 0,-0.06 0,-0.11 0,-0.16 0,-0.1 0.01,-0.2 0.01,-0.29 0,-0.06 0,-0.1 0,-0.16 0,-0.09 0,-0.2 0.01,-0.29 0,-0.05 0,-0.1 0,-0.15 0,-0.1 0,-0.21 0,-0.31 0,-0.05 0,-0.09 0,-0.14 0,-0.1 0,-0.2 0,-0.3 0,-0.05 0,-0.1 0.01,-0.15 0,-0.1 0,-0.21 0,-0.31 0,-0.05 0,-0.09 0,-0.14 0,-0.15 0,-0.29 0,-0.44 v 0"
         style="fill:#fff8cb;fill-opacity:1;fill-rule:nonzero;stroke:none"
         id="path82" /><path
         d="m 7009.88,2845.7 v 0.01 -0.01 m 0.09,2.44 c 0,0.04 0.01,0.06 0.01,0.1 0,-0.03 -0.01,-0.07 -0.01,-0.1 m 0.01,0.39 c 0.01,0.05 0.01,0.1 0.01,0.15 0,-0.05 0,-0.1 -0.01,-0.15 m 0.02,0.41 c 0,0.07 0,0.12 0,0.19 0,-0.06 0,-0.12 0,-0.19 m 0,0.43 c 0.01,0.07 0.01,0.13 0.01,0.21 0,-0.07 0,-0.14 -0.01,-0.21 m 0.01,0.43 c 0.01,0.08 0.01,0.15 0.01,0.23 0,-0.08 0,-0.15 -0.01,-0.23 m 0.01,0.44 c 0,0.08 0,0.16 0,0.23 0,-0.07 0,-0.15 0,-0.23 m 0.01,0.44 c 0,0.08 0,0.17 0,0.25 0,-0.08 0,-0.17 0,-0.25 m 0,0.44 c 0,0.08 0,0.17 0,0.25 0,-0.08 0,-0.17 0,-0.25 m 0.01,0.45 c 0,0.08 0,0.17 0,0.26 0,-0.09 0,-0.18 0,-0.26 m 0,0.44 c 0,0.14 0,0.29 0,0.44 v 0 c 0,-0.15 0,-0.3 0,-0.44 m 0,0.44 c 0,0.14 0,0.29 0,0.44 0,-0.15 0,-0.3 0,-0.44 m 0,0.62 c 0,0.08 0,0.18 0,0.26 0,-0.09 0,-0.18 0,-0.26 m -0.01,0.45 c 0,0.09 0,0.18 0,0.26 0,-0.09 0,-0.17 0,-0.26 m 0,0.44 c 0,0.09 0,0.18 0,0.26 0,-0.08 0,-0.17 0,-0.26 m -0.01,0.46 c 0,0.08 0,0.16 0,0.24 0,-0.08 0,-0.16 0,-0.24 m 0,0.45 c 0,0.08 0,0.15 -0.01,0.23 0.01,-0.08 0.01,-0.15 0.01,-0.23 m -0.01,0.45 c 0,0.07 0,0.14 -0.01,0.21 0.01,-0.07 0.01,-0.14 0.01,-0.21 m -0.01,0.44 c 0,0.07 0,0.13 0,0.2 0,-0.07 0,-0.13 0,-0.2 m -0.01,0.46 c 0,0.04 0,0.1 -0.01,0.15 0.01,-0.05 0.01,-0.1 0.01,-0.15 m -0.01,0.43 c 0,0.04 -0.01,0.08 -0.01,0.12 0,-0.03 0.01,-0.08 0.01,-0.12 m -0.1,2.52 c 0,0.01 0,0.02 0,0.03 0,-0.01 0,-0.01 0,-0.03 m 0,416.6 v 0.01 -0.01 m 0.09,2.44 c 0,0.04 0.01,0.06 0.01,0.1 0,-0.04 -0.01,-0.07 -0.01,-0.1 m 0.01,0.39 c 0.01,0.05 0.01,0.1 0.01,0.15 0,-0.05 0,-0.1 -0.01,-0.15 m 0.02,0.41 c 0,0.07 0,0.12 0,0.19 0,-0.07 0,-0.12 0,-0.19 m 0,0.43 c 0.01,0.07 0.01,0.13 0.01,0.21 0,-0.08 0,-0.14 -0.01,-0.21 m 0.01,0.43 c 0.01,0.08 0.01,0.15 0.01,0.22 0,-0.07 0,-0.14 -0.01,-0.22 m 0.01,0.44 c 0,0.08 0,0.16 0,0.23 0,-0.07 0,-0.15 0,-0.23 m 0.01,0.43 c 0,0.09 0,0.18 0,0.26 0,-0.08 0,-0.17 0,-0.26 m 0,0.45 c 0,0.08 0,0.17 0,0.25 0,-0.08 0,-0.17 0,-0.25 m 0.01,0.44 c 0,0.09 0,0.18 0,0.27 0,-0.09 0,-0.18 0,-0.27 m 0,0.45 c 0,0.14 0,0.29 0,0.44 v 0 c 0,-0.15 0,-0.3 0,-0.44 m 0,0.44 c 0,0.14 0,0.29 0,0.44 0,-0.15 0,-0.3 0,-0.44 m 0,0.62 c 0,0.08 0,0.17 0,0.26 0,-0.09 0,-0.18 0,-0.26 m -0.01,0.45 c 0,0.08 0,0.18 0,0.26 0,-0.09 0,-0.17 0,-0.26 m 0,0.44 c 0,0.09 0,0.18 0,0.26 0,-0.08 0,-0.17 0,-0.26 m -0.01,0.46 c 0,0.08 0,0.16 0,0.24 0,-0.08 0,-0.16 0,-0.24 m 0,0.45 c 0,0.08 0,0.15 -0.01,0.23 0.01,-0.08 0.01,-0.15 0.01,-0.23 m -0.01,0.45 c 0,0.07 0,0.14 -0.01,0.21 0.01,-0.07 0.01,-0.14 0.01,-0.21 m -0.01,0.44 c 0,0.07 0,0.13 0,0.2 0,-0.07 0,-0.13 0,-0.2 m -0.01,0.45 c 0,0.05 0,0.11 -0.01,0.16 0.01,-0.05 0.01,-0.1 0.01,-0.16 m -0.01,0.44 c 0,0.04 -0.01,0.08 -0.01,0.12 0,-0.04 0.01,-0.08 0.01,-0.12 m -0.1,2.52 c 0,0.01 0,0.02 0,0.03 0,-0.01 0,-0.01 0,-0.03 m 52.46,434.59 c 0.01,0.02 0.01,0.05 0.02,0.07 0,-0.02 -0.01,-0.05 -0.02,-0.07 m 0.1,0.42 c 0.02,0.07 0.03,0.13 0.05,0.2 -0.02,-0.06 -0.03,-0.14 -0.05,-0.2 m 0.11,0.45 c 0.02,0.11 0.04,0.2 0.07,0.31 -0.03,-0.1 -0.05,-0.21 -0.07,-0.31 m 0.12,0.53 c 0.02,0.1 0.05,0.22 0.07,0.32 -0.02,-0.1 -0.05,-0.22 -0.07,-0.32 m 0.12,0.54 c 0.02,0.11 0.05,0.21 0.07,0.33 -0.02,-0.12 -0.05,-0.22 -0.07,-0.33 m 0.12,0.54 c 0.02,0.11 0.05,0.23 0.08,0.34 -0.03,-0.11 -0.05,-0.22 -0.08,-0.34 m 0.12,0.53 c 0.02,0.12 0.05,0.25 0.08,0.37 -0.03,-0.12 -0.06,-0.25 -0.08,-0.37 m 0.11,0.54 c 0.03,0.13 0.06,0.26 0.09,0.39 -0.03,-0.13 -0.06,-0.26 -0.09,-0.39 m 0.12,0.54 c 0.03,0.14 0.06,0.27 0.08,0.4 -0.02,-0.13 -0.05,-0.27 -0.08,-0.4 m 0.12,0.55 c 0.03,0.15 0.06,0.3 0.09,0.45 -0.03,-0.15 -0.06,-0.3 -0.09,-0.45 m 0.1,0.53 c 0.04,0.16 0.07,0.33 0.11,0.49 -0.04,-0.17 -0.07,-0.33 -0.11,-0.49 m 0.12,0.55 c 0.03,0.17 0.07,0.35 0.11,0.53 -0.04,-0.18 -0.08,-0.36 -0.11,-0.53 m 0.11,0.54 c 0.34,1.68 0.65,3.36 0.95,5.06 -0.3,-1.69 -0.62,-3.38 -0.95,-5.06 m 0.96,5.12 c 0.03,0.17 0.05,0.33 0.08,0.5 -0.03,-0.17 -0.05,-0.33 -0.08,-0.5 m 0.1,0.58 c 0.02,0.15 0.05,0.31 0.08,0.46 -0.03,-0.15 -0.06,-0.31 -0.08,-0.46 m 0.1,0.58 c 0.02,0.15 0.05,0.3 0.07,0.45 -0.02,-0.15 -0.05,-0.3 -0.07,-0.45 m 0.09,0.56 c 0.02,0.15 0.05,0.29 0.07,0.44 -0.02,-0.14 -0.05,-0.29 -0.07,-0.44 m 0.09,0.57 c 0.03,0.15 0.05,0.29 0.07,0.44 -0.02,-0.15 -0.04,-0.29 -0.07,-0.44 m 0.09,0.56 c 0.02,0.14 0.05,0.3 0.07,0.44 -0.02,-0.15 -0.04,-0.29 -0.07,-0.44 m 0.09,0.56 c 0.02,0.15 0.05,0.29 0.07,0.43 -0.03,-0.14 -0.05,-0.28 -0.07,-0.43 m 0.09,0.58 c 0.02,0.13 0.04,0.27 0.06,0.41 -0.02,-0.14 -0.04,-0.27 -0.06,-0.41 m 0.08,0.56 c 0.03,0.14 0.05,0.27 0.07,0.42 -0.02,-0.14 -0.04,-0.28 -0.07,-0.42 m 0.09,0.56 c 0.02,0.14 0.04,0.29 0.06,0.42 -0.02,-0.14 -0.04,-0.28 -0.06,-0.42 m 0.08,0.57 c 0.02,0.15 0.04,0.29 0.06,0.44 -0.02,-0.15 -0.04,-0.29 -0.06,-0.44 m 0.08,0.56 c 0.03,0.18 0.05,0.38 0.08,0.56 l 7.65,55.09 c 50.96,367.23 214.01,709.62 466.19,981.4 347.59,374.62 560.14,876.3 560.14,1427.66 v 0 c 0,-551.36 -212.55,-1053.04 -560.14,-1427.66 -252.18,-271.78 -415.23,-614.17 -466.19,-981.4 l -7.65,-55.09 c -0.03,-0.18 -0.05,-0.37 -0.08,-0.56"
         style="fill:#993424;fill-opacity:1;fill-rule:nonzero;stroke:none"
         id="path84" /><path
         d="m 6885.82,3571.82 v 0.47 h -569.84 l 119.85,1452.74 h 316.89 l 2.52,0.06 c 215.91,9.08 384.19,192.13 375.11,408.05 -8.85,210.28 -182.68,375.47 -391.24,375.47 -5.59,0 -11.18,-0.12 -16.82,-0.36 -199.68,-8.4 -353.84,-172.89 -374.96,-400.62 l -21.69,-262.94 h -322.32 v 3161.05 c 22.83,-0.03 45.71,-0.3 68.7,-1.08 1126.29,-37.96 2027.69,-962.96 2027.69,-2098.5 0,-551.36 -212.55,-1053.04 -560.14,-1427.66 -252.18,-271.78 -415.23,-614.17 -466.19,-981.4 l -7.65,-55.09 c -0.03,-0.18 -0.05,-0.38 -0.08,-0.56 0,-0.04 -0.01,-0.08 -0.02,-0.12 -0.02,-0.15 -0.04,-0.29 -0.06,-0.44 -0.01,-0.05 -0.01,-0.1 -0.02,-0.15 -0.02,-0.13 -0.04,-0.28 -0.06,-0.42 -0.01,-0.04 -0.02,-0.1 -0.02,-0.14 -0.02,-0.15 -0.04,-0.28 -0.07,-0.42 0,-0.05 -0.01,-0.1 -0.02,-0.15 -0.02,-0.14 -0.04,-0.28 -0.06,-0.41 -0.01,-0.05 -0.02,-0.1 -0.02,-0.15 -0.02,-0.14 -0.05,-0.28 -0.07,-0.43 -0.01,-0.03 -0.01,-0.08 -0.02,-0.12 -0.02,-0.14 -0.05,-0.3 -0.07,-0.44 0,-0.04 -0.01,-0.08 -0.02,-0.12 -0.02,-0.15 -0.04,-0.29 -0.07,-0.44 -0.01,-0.05 -0.01,-0.08 -0.02,-0.13 -0.02,-0.15 -0.05,-0.29 -0.07,-0.44 -0.01,-0.04 -0.01,-0.07 -0.02,-0.11 -0.02,-0.15 -0.05,-0.3 -0.07,-0.45 -0.01,-0.04 -0.02,-0.08 -0.02,-0.12 -0.03,-0.15 -0.06,-0.31 -0.08,-0.46 -0.01,-0.03 -0.01,-0.06 -0.02,-0.08 -0.03,-0.17 -0.05,-0.33 -0.08,-0.5 -0.01,-0.02 -0.01,-0.04 -0.01,-0.06 -0.3,-1.7 -0.61,-3.38 -0.95,-5.06 0,0 0,0 0,-0.01 -0.04,-0.18 -0.08,-0.36 -0.11,-0.53 -0.01,-0.02 -0.01,-0.04 -0.01,-0.06 -0.04,-0.16 -0.07,-0.33 -0.11,-0.49 0,-0.03 -0.01,-0.06 -0.01,-0.08 -0.03,-0.15 -0.06,-0.3 -0.09,-0.45 -0.02,-0.05 -0.02,-0.09 -0.04,-0.15 -0.02,-0.13 -0.05,-0.26 -0.08,-0.4 -0.01,-0.05 -0.02,-0.1 -0.03,-0.15 -0.03,-0.13 -0.06,-0.26 -0.09,-0.39 -0.01,-0.06 -0.02,-0.11 -0.03,-0.17 -0.03,-0.12 -0.06,-0.25 -0.08,-0.37 -0.02,-0.07 -0.03,-0.12 -0.04,-0.19 -0.03,-0.11 -0.06,-0.23 -0.08,-0.34 -0.02,-0.07 -0.03,-0.14 -0.05,-0.21 -0.02,-0.12 -0.05,-0.22 -0.07,-0.33 -0.02,-0.07 -0.03,-0.15 -0.05,-0.22 -0.02,-0.1 -0.05,-0.22 -0.07,-0.32 -0.02,-0.08 -0.04,-0.14 -0.05,-0.22 -0.03,-0.11 -0.05,-0.2 -0.07,-0.31 -0.02,-0.08 -0.04,-0.16 -0.06,-0.25 -0.02,-0.07 -0.03,-0.13 -0.05,-0.2 -0.03,-0.12 -0.05,-0.23 -0.08,-0.35 -0.01,-0.02 -0.01,-0.05 -0.02,-0.07 -19.57,-83.38 -90.99,-144.92 -176.52,-151.92 v -0.09 0 m -689.91,0.47 h -192.59 v 1452.74 h 312.45 L 6195.91,3572.29 m 555.49,1572.4 h -305.7 l 20.84,252.5 c 12.99,140.18 98.67,284.68 260.78,291.5 3.78,0.16 7.55,0.24 11.29,0.24 145.05,0 266.02,-114.6 272.18,-260.82 6.29,-149.59 -109.98,-276.47 -259.39,-283.42"
         style="fill:#ffc940;fill-opacity:1;fill-rule:nonzero;stroke:none"
         id="path86" /><path
         d="m 6315.98,3572.29 h -120.07 l 119.86,1452.74 h -312.45 v 119.66 h 322.32 l 21.69,262.94 c 21.12,227.73 175.28,392.22 374.96,400.62 5.64,0.24 11.23,0.36 16.82,0.36 208.56,0 382.39,-165.19 391.24,-375.47 9.08,-215.92 -159.2,-398.97 -375.11,-408.05 l -2.52,-0.06 H 6435.83 L 6315.98,3572.29 m 422.63,2116.64 c -3.74,0 -7.51,-0.08 -11.29,-0.24 -162.11,-6.82 -247.79,-151.32 -260.78,-291.5 l -20.84,-252.5 h 305.7 c 149.41,6.95 265.68,133.83 259.39,283.42 -6.16,146.22 -127.13,260.82 -272.18,260.82"
         style="fill:#d28d2a;fill-opacity:1;fill-rule:nonzero;stroke:none"
         id="path88" /><path
         d="m 6885.82,2994.52 c -6.27,0.85 -12.65,1.28 -19.14,1.28 h -863.36 v 143.36 h 863.36 c 6.49,0 12.87,0.44 19.14,1.28 v -145.92 m 0,430.07 c -6.27,0.85 -12.65,1.28 -19.14,1.28 h -863.36 v 146.42 h 882.5 v -147.7"
         style="fill:#f5efc6;fill-opacity:1;fill-rule:nonzero;stroke:none"
         id="path90" /><path
         d="M 7010.04,3282.52 H 6003.32 v 143.35 h 863.36 c 6.49,0 12.87,-0.43 19.14,-1.28 v 0 -0.16 c 67.67,-9.15 120.8,-65.86 124.06,-135.16 0,-0.01 0,-0.02 0,-0.03 0.04,-0.8 0.07,-1.6 0.09,-2.4 0,-0.04 0.01,-0.08 0.01,-0.12 0,-0.09 0,-0.18 0,-0.28 0.01,-0.05 0.01,-0.11 0.01,-0.16 0,-0.08 0,-0.17 0.01,-0.25 0,-0.07 0,-0.13 0,-0.2 0,-0.07 0,-0.15 0,-0.23 0.01,-0.07 0.01,-0.14 0.01,-0.21 0,-0.08 0,-0.15 0,-0.22 0.01,-0.08 0.01,-0.15 0.01,-0.23 0,-0.07 0,-0.14 0,-0.21 0,-0.08 0,-0.16 0,-0.24 0.01,-0.07 0.01,-0.13 0.01,-0.2 0,-0.08 0,-0.17 0,-0.26 0,-0.06 0,-0.12 0,-0.18 0,-0.08 0,-0.18 0,-0.26 0,-0.06 0,-0.13 0.01,-0.19 0,-0.09 0,-0.18 0,-0.26 0,-0.07 0,-0.12 0,-0.18 0,-0.15 0,-0.3 0,-0.44 v 0"
         style="fill:#fff8cb;fill-opacity:1;fill-rule:nonzero;stroke:none"
         id="path92" /><path
         d="M 7010.04,2852.45 H 6003.32 v 143.35 h 863.36 c 6.49,0 12.87,-0.43 19.14,-1.28 v 0 -0.16 c 67.67,-9.15 120.8,-65.86 124.06,-135.16 0,-0.01 0,-0.02 0,-0.03 0.04,-0.8 0.07,-1.6 0.09,-2.4 0,-0.04 0.01,-0.08 0.01,-0.12 0,-0.09 0,-0.18 0,-0.28 0.01,-0.05 0.01,-0.11 0.01,-0.15 0,-0.09 0,-0.18 0.01,-0.26 0,-0.07 0,-0.13 0,-0.2 0,-0.07 0,-0.15 0,-0.23 0.01,-0.07 0.01,-0.14 0.01,-0.21 0,-0.07 0,-0.15 0,-0.22 0.01,-0.08 0.01,-0.15 0.01,-0.23 0,-0.07 0,-0.14 0,-0.21 0,-0.08 0,-0.16 0,-0.24 0.01,-0.06 0.01,-0.13 0.01,-0.2 0,-0.08 0,-0.17 0,-0.26 0,-0.06 0,-0.12 0,-0.18 0,-0.08 0,-0.17 0,-0.26 0,-0.06 0,-0.13 0.01,-0.19 0,-0.08 0,-0.18 0,-0.26 0,-0.07 0,-0.12 0,-0.18 0,-0.15 0,-0.3 0,-0.44 v 0"
         style="fill:#fff8cb;fill-opacity:1;fill-rule:nonzero;stroke:none"
         id="path94" /><path
         d="m 6866.68,3139.16 h -863.36 v 143.36 h 1006.72 v 0 c 0,-0.15 0,-0.3 0,-0.44 0,-0.06 0,-0.12 0,-0.18 0,-0.09 0,-0.18 0,-0.27 -0.01,-0.06 -0.01,-0.13 -0.01,-0.19 0,-0.08 0,-0.17 0,-0.25 0,-0.07 0,-0.12 0,-0.19 0,-0.08 0,-0.17 0,-0.26 0,-0.06 0,-0.13 -0.01,-0.2 0,-0.07 0,-0.15 0,-0.23 0,-0.07 0,-0.15 0,-0.22 0,-0.07 0,-0.14 -0.01,-0.22 0,-0.07 0,-0.15 0,-0.22 0,-0.08 0,-0.14 -0.01,-0.21 0,-0.08 0,-0.16 0,-0.24 0,-0.07 0,-0.12 0,-0.19 -0.01,-0.08 -0.01,-0.18 -0.01,-0.26 0,-0.05 0,-0.1 -0.01,-0.15 0,-0.1 0,-0.19 0,-0.29 0,-0.04 -0.01,-0.06 -0.01,-0.1 -0.02,-0.81 -0.05,-1.62 -0.09,-2.43 v -0.01 c -3.25,-69.31 -56.38,-126.01 -124.06,-135.17 v -0.16 c -6.27,-0.84 -12.65,-1.28 -19.14,-1.28"
         style="fill:#e7e2bc;fill-opacity:1;fill-rule:nonzero;stroke:none"
         id="path96" /><path
         d="m 6866.68,2709.09 h -863.36 v 143.36 h 1006.72 v 0 c 0,-0.15 0,-0.3 0,-0.44 0,-0.06 0,-0.12 0,-0.18 0,-0.09 0,-0.18 0,-0.26 -0.01,-0.07 -0.01,-0.14 -0.01,-0.2 0,-0.08 0,-0.17 0,-0.25 0,-0.07 0,-0.12 0,-0.19 0,-0.08 0,-0.17 0,-0.25 0,-0.07 0,-0.14 -0.01,-0.21 0,-0.07 0,-0.15 0,-0.23 0,-0.07 0,-0.14 0,-0.21 0,-0.08 0,-0.15 -0.01,-0.23 0,-0.07 0,-0.15 0,-0.22 0,-0.08 0,-0.14 -0.01,-0.21 0,-0.08 0,-0.16 0,-0.24 0,-0.07 0,-0.12 0,-0.19 -0.01,-0.08 -0.01,-0.18 -0.01,-0.26 0,-0.05 0,-0.1 -0.01,-0.15 0,-0.1 0,-0.19 0,-0.29 0,-0.04 -0.01,-0.06 -0.01,-0.1 -0.02,-0.81 -0.05,-1.62 -0.09,-2.43 v -0.01 c -3.25,-69.31 -56.38,-126.01 -124.06,-135.17 v -0.16 c -6.27,-0.84 -12.65,-1.28 -19.14,-1.28"
         style="fill:#e7e2bc;fill-opacity:1;fill-rule:nonzero;stroke:none"
         id="path98" /><path
         d="m 6866.68,2279.02 h -863.36 v 143.36 h 1006.72 c 0,-78.85 -64.51,-143.36 -143.36,-143.36"
         style="fill:#e7e2bc;fill-opacity:1;fill-rule:nonzero;stroke:none"
         id="path100" /><path
         d="m 5997.92,9135.71 c -82.84,0 -150,67.15 -150,150 v 899.99 c 0,82.9 67.16,150 150,150 82.84,0 150,-67.1 150,-150 v -899.99 c 0,-82.85 -67.16,-150 -150,-150"
         style="fill:#ffd34e;fill-opacity:1;fill-rule:nonzero;stroke:none"
         id="path102" /><path
         d="m 10032.9,6000.72 h -899.99 c -82.84,0 -150,67.16 -150,150 0,82.84 67.16,150 150,150 h 899.99 c 82.9,0 150,-67.16 150,-150 0,-82.84 -67.1,-150 -150,-150"
         style="fill:#ffd34e;fill-opacity:1;fill-rule:nonzero;stroke:none"
         id="path104" /><path
         d="m 2862.93,6000.72 h -900 c -82.84,0 -150,67.16 -150,150 0,82.84 67.16,150 150,150 h 900 c 82.85,0 150,-67.16 150,-150 0,-82.84 -67.15,-150 -150,-150"
         style="fill:#ffd34e;fill-opacity:1;fill-rule:nonzero;stroke:none"
         id="path106" /><path
         d="m 8851.08,3147.55 c -38.38,0 -76.77,14.65 -106.06,43.94 l -636.4,636.39 c -58.58,58.58 -58.58,153.56 0,212.13 58.58,58.58 153.56,58.58 212.13,0 l 636.4,-636.39 c 58.58,-58.58 58.58,-153.56 0,-212.13 -29.29,-29.29 -67.68,-43.94 -106.07,-43.94"
         style="fill:#ffd34e;fill-opacity:1;fill-rule:nonzero;stroke:none"
         id="path108" /><path
         d="m 3781.15,8217.49 c -38.39,0 -76.77,14.64 -106.06,43.93 l -636.4,636.4 c -58.58,58.58 -58.58,153.55 0,212.13 58.58,58.58 153.56,58.58 212.13,0 l 636.4,-636.4 c 58.58,-58.58 58.58,-153.55 0,-212.13 -29.29,-29.29 -67.68,-43.93 -106.07,-43.93"
         style="fill:#ffd34e;fill-opacity:1;fill-rule:nonzero;stroke:none"
         id="path110" /><path
         d="m 8214.69,8217.49 c -38.39,0 -76.78,14.64 -106.07,43.93 -58.58,58.58 -58.58,153.55 0,212.13 l 636.4,636.4 c 58.57,58.58 153.55,58.58 212.13,0 58.58,-58.58 58.58,-153.55 0,-212.13 l -636.4,-636.4 c -29.29,-29.29 -67.67,-43.93 -106.06,-43.93"
         style="fill:#ffd34e;fill-opacity:1;fill-rule:nonzero;stroke:none"
         id="path112" /><path
         d="m 3144.76,3147.55 c -38.39,0 -76.78,14.65 -106.07,43.94 -58.58,58.57 -58.58,153.55 0,212.13 l 636.4,636.39 c 58.57,58.58 153.55,58.58 212.13,0 58.58,-58.57 58.58,-153.55 0,-212.13 l -636.4,-636.39 c -29.29,-29.29 -67.68,-43.94 -106.06,-43.94"
         style="fill:#ffd34e;fill-opacity:1;fill-rule:nonzero;stroke:none"
         id="path114" /></g></g></svg>
