<?xml version="1.0" encoding="UTF-8" standalone="no"?>
<!-- Created with Inkscape (http://www.inkscape.org/) -->

<svg
   version="1.1"
   id="svg2"
   xml:space="preserve"
   width="2666.6667"
   height="3466.6667"
   viewBox="0 0 2666.6667 3466.6667"
   sodipodi:docname="magic_4_01.eps"
   xmlns:inkscape="http://www.inkscape.org/namespaces/inkscape"
   xmlns:sodipodi="http://sodipodi.sourceforge.net/DTD/sodipodi-0.dtd"
   xmlns="http://www.w3.org/2000/svg"
   xmlns:svg="http://www.w3.org/2000/svg"><defs
     id="defs6" /><sodipodi:namedview
     id="namedview4"
     pagecolor="#ffffff"
     bordercolor="#666666"
     borderopacity="1.0"
     inkscape:pageshadow="2"
     inkscape:pageopacity="0.0"
     inkscape:pagecheckerboard="0" /><g
     id="g8"
     inkscape:groupmode="layer"
     inkscape:label="ink_ext_XXXXXX"
     transform="matrix(1.3333333,0,0,-1.3333333,0,3466.6667)"><g
       id="g10"
       transform="scale(0.1)"><path
         d="M 20000,0 H 0 V 26000 H 20000 V 0"
         style="fill:#ffffff;fill-opacity:1;fill-rule:nonzero;stroke:none"
         id="path12" /><path
         d="m 10671.5,11063.1 c 0,0 -1277.31,1284.9 -1693.36,2308.4 -415.32,1022.8 -1429.09,2026 -1805.94,2395.9 -376.89,371.3 -745.64,856.7 -1201.99,2191.5 -455.65,1335.5 -1767.06,3410.3 -2121.55,3783.8 0,0 405.86,630.6 431.14,1314.3 0,0 1377.67,-2244.8 1841.76,-3287.2 735.17,-1651.4 1168.41,-2286 2396.61,-3895.8 C 9747.05,14264.8 11375,11403.2 11375,11403.2 l -703.5,-340.1"
         style="fill:#70625a;fill-opacity:1;fill-rule:nonzero;stroke:none"
         id="path14" /><path
         d="m 7864.68,15340.4 c -4.79,-3 -10.39,-5 -16.4,-5.4 -19.81,-1.4 -37.03,13.4 -38.47,33.2 -0.52,6.5 -51.23,654.4 -321.55,931.8 -297.76,306.9 -397.63,603.9 -485.8,865.9 -43.87,132 -177.06,184.6 -285.88,168.4 -103.25,-15.4 -215.76,-97.6 -220.57,-282.8 -0.44,-19.9 -17,-35.5 -36.92,-35 -19.81,0.5 -35.47,17 -34.98,36.9 5.96,229.6 149.31,332.3 281.9,352 138.56,20.6 308.2,-47.2 364.61,-216.6 85.67,-254.7 182.87,-543.6 469.15,-838.6 288.64,-296.3 339.72,-949.1 341.69,-976.7 1.05,-13.8 -5.83,-26.3 -16.78,-33.1"
         style="fill:#121212;fill-opacity:1;fill-rule:nonzero;stroke:none"
         id="path16" /><path
         d="m 7546.7,15686.7 c -1.24,-0.7 -2.55,-1.4 -3.93,-2.1 -17.97,-8.3 -39.34,-0.6 -47.77,17.4 -1.7,3.7 -173.93,371 -360.17,625.3 -54.8,74.8 -111.36,175.9 -166.05,273.8 -61.7,110.3 -165,295.1 -204.48,297 0.34,-0.3 -19.83,-13.8 -33.3,-114.1 -2.67,-19.6 -20.8,-33.5 -40.41,-30.8 -19.67,2.7 -33.51,20.7 -30.83,40.4 10.07,75.3 29.56,163.8 91.57,175.1 81.14,15.5 155.63,-109.8 280.19,-332.6 53.67,-95.9 109.11,-195.1 161.28,-266.3 190.48,-260 365.62,-633.7 367.39,-637.4 7.74,-16.6 1.65,-36.2 -13.49,-45.7"
         style="fill:#121212;fill-opacity:1;fill-rule:nonzero;stroke:none"
         id="path18" /><path
         d="m 9358.58,11647.9 c 0,0 221.24,-432.4 711.82,-630.7 491.3,-199.1 947.7,-433.9 1174.4,-1027.5 226.7,-593.5 -436.2,-2212.5 1113.2,-4511 1549.4,-2297.1 2299,-2459.7 2480.6,-3306.6 0,0 383.3,874.6 226.5,1784.5 0,0 326.8,-375.1 330.3,-1020 0,0 375.2,1366.6 43.6,2423.4 0,0 400.3,-686 523.5,-1148.6 0,0 -16.5,1172.9 -248.2,1579.5 0,0 415.1,-475.4 458.7,-674.8 0,0 266.3,1008.5 -19.9,1561.8 0,0 184.7,-355.8 221.3,-580.2 0,0 550.7,861.8 205.2,1599.2 l 284.6,-401.3 c 0,0 181.6,941.2 -1876.5,2348.2 -2058,1406.9 -2496.6,638.7 -3136.3,1229.5 -641.2,590.7 -369.5,1713.3 -1050,2734.9 0,0 -100.9,-778.7 219.1,-1556.4 0,0 -454.6,286.5 -737.2,379.5 0,0 584.2,-644.3 690.8,-1073.6 0,0 -520.7,482.4 -978.01,616.8 0,0 551.51,-576.8 587.11,-790.7 0,0 -771.69,61.5 -1224.62,464.1"
         style="fill:#ffb649;fill-opacity:1;fill-rule:nonzero;stroke:none"
         id="path20" /><path
         d="m 11710.7,10142.1 c -181.2,-113.3 -338.6,-141.2 -349.7,-143 -19.5,-3.3 -38,9.8 -41.3,29.4 -3.3,19.6 9.7,37.9 29.4,41.5 4.2,0.7 437.5,78.6 682,506.5 9.5,17 31.7,23.2 49,13.4 17.2,-9.9 23.2,-31.8 13.3,-49.1 -109.5,-191.7 -252.3,-317.3 -382.7,-398.7"
         style="fill:#121212;fill-opacity:1;fill-rule:nonzero;stroke:none"
         id="path22" /><path
         d="m 11440.5,10347.5 c -95.5,-59.6 -172,-90.4 -179.2,-93.3 -18.4,-7.3 -39.3,1.8 -46.6,20.2 -7.3,18.5 0.9,39.5 20.2,46.7 3.8,1.5 388.5,157 506.1,455.2 7.3,18.5 28.2,27.5 46.7,20.3 18.4,-7.3 27.5,-28.1 20.2,-46.7 -74.3,-188.3 -238.3,-321.8 -367.4,-402.4"
         style="fill:#121212;fill-opacity:1;fill-rule:nonzero;stroke:none"
         id="path24" /><path
         d="m 11262.9,10683.5 c -108.1,-67.4 -201,-93.7 -208.4,-95.8 -19,-5.2 -38.8,6 -44.1,25.1 -5.3,19.3 6.1,39.1 25.1,44.2 3.2,0.9 315.4,90.2 445.7,365.2 8.5,17.8 29.9,25.6 47.9,17 17.9,-8.4 25.5,-29.9 17,-47.8 -69.6,-147 -182.9,-245.2 -283.2,-307.9"
         style="fill:#121212;fill-opacity:1;fill-rule:nonzero;stroke:none"
         id="path26" /><path
         d="m 11579.8,10738.2 c -283.7,-177.1 -813.5,46.7 -836,56.4 -18.2,7.9 -26.7,29 -18.8,47.2 7.5,18.2 28.8,26.7 47.1,18.9 5.2,-2.3 517.8,-218.8 769.6,-61.6 1,0.7 2,1.4 3.4,2.2 16.6,10.5 38.6,5.5 49.3,-11.1 10.7,-16.6 5.8,-38.9 -10.9,-49.7 -1.2,-0.7 -2.5,-1.5 -3.7,-2.3"
         style="fill:#121212;fill-opacity:1;fill-rule:nonzero;stroke:none"
         id="path28" /><path
         d="m 11860.9,10512.1 c -256,-159.9 -639.1,-68.2 -656.3,-63.9 -19.3,4.7 -31,24.2 -26.3,43.5 4.8,19.1 24.2,31 43.5,26.2 4.2,-1 418.1,-100.5 643.7,85.8 14.6,12.5 37.9,10.5 50.6,-4.8 12.6,-15.2 10.5,-37.9 -4.9,-50.6 -16,-13.3 -32.9,-25.3 -50.3,-36.2"
         style="fill:#121212;fill-opacity:1;fill-rule:nonzero;stroke:none"
         id="path30" /><path
         d="m 14574.5,4584.3 c -2.1,-1.3 -4.4,-2.4 -6.8,-3.3 -18.7,-6.7 -39.3,2.8 -46.1,21.5 -444.5,1219.2 -2220.4,3486.4 -2238.3,3509.2 -12.2,15.6 -9.5,38.2 6.1,50.5 13.6,11.5 38.1,9.5 50.5,-6.1 17.9,-22.9 1800.8,-2299.1 2249.2,-3529 5.9,-16.2 -0.5,-34 -14.6,-42.8"
         style="fill:#121212;fill-opacity:1;fill-rule:nonzero;stroke:none"
         id="path32" /><path
         d="m 14669.5,6884.3 c -2.1,-1.4 -4.5,-2.5 -7,-3.5 -18.7,-6.6 -39.3,3.2 -46,21.9 -491.7,1381.8 -1816.7,2581 -2252.1,2975.2 -99.4,89.9 -140.2,127.1 -153.6,146.4 -11.3,16.2 -7.4,38.7 8.9,50 19.8,11.4 38.7,7.4 50,-8.9 9.3,-13.3 71.2,-69.4 143,-134.3 438.6,-397.1 1773.8,-1605.5 2271.6,-3004.3 5.8,-16.2 -0.8,-33.8 -14.8,-42.5"
         style="fill:#121212;fill-opacity:1;fill-rule:nonzero;stroke:none"
         id="path34" /><path
         d="m 15359.3,7650.4 c -2.5,-1.6 -5.3,-2.9 -8.3,-3.8 -19,-5.9 -39.2,4.7 -45.1,23.6 -216.8,697.4 -1282.2,1638.1 -1292.9,1647.5 -14.9,13.1 -16.4,35.9 -3.4,50.8 13.6,15.2 35.9,16.4 50.8,3.3 44.4,-39 1091.3,-963.5 1314.2,-1680.2 5,-15.9 -1.7,-32.8 -15.3,-41.2"
         style="fill:#121212;fill-opacity:1;fill-rule:nonzero;stroke:none"
         id="path36" /></g></g></svg>
