<?xml version="1.0" encoding="UTF-8" standalone="no"?>
<!-- Created with Inkscape (http://www.inkscape.org/) -->

<svg
   version="1.1"
   id="svg2"
   xml:space="preserve"
   width="2666.6667"
   height="2666.6667"
   viewBox="0 0 2666.6667 2666.6667"
   sodipodi:docname="magic_4_12.eps"
   xmlns:inkscape="http://www.inkscape.org/namespaces/inkscape"
   xmlns:sodipodi="http://sodipodi.sourceforge.net/DTD/sodipodi-0.dtd"
   xmlns="http://www.w3.org/2000/svg"
   xmlns:svg="http://www.w3.org/2000/svg"><defs
     id="defs6" /><sodipodi:namedview
     id="namedview4"
     pagecolor="#ffffff"
     bordercolor="#666666"
     borderopacity="1.0"
     inkscape:pageshadow="2"
     inkscape:pageopacity="0.0"
     inkscape:pagecheckerboard="0" /><g
     id="g8"
     inkscape:groupmode="layer"
     inkscape:label="ink_ext_XXXXXX"
     transform="matrix(1.3333333,0,0,-1.3333333,0,2666.6667)"><g
       id="g10"
       transform="scale(0.1)"><path
         d="M 20000,0 H 0 V 20000 H 20000 V 0"
         style="fill:#ffffff;fill-opacity:1;fill-rule:nonzero;stroke:none"
         id="path12" /><path
         d="m 8728.19,10117.4 c 0,0 -3280.53,272 -4840.16,-1330.5 -1559.62,-1602.5 -1284.44,-5873.1 6417.07,-5859 7700.8,14.1 9521.6,5608.7 4148.3,6472.1 -5373.22,863.3 -5725.21,717.4 -5725.21,717.4"
         style="fill:#2a2420;fill-opacity:1;fill-rule:nonzero;stroke:none"
         id="path14" /><path
         d="m 7011.76,7128 c 0,0 1209.56,3278 2791.58,5397.4 1581.36,2119.6 2037.66,3651.7 5739.96,4546.8 0,0 -2118.3,-1474.3 -2414.6,-3510.4 -297,-2036.5 320,-2241.2 -274.6,-4258.5 -594.5,-2017.2 -545.2,-2648.8 -545.2,-2648.8 0,0 -2947.14,-1231.3 -5297.14,473.5"
         style="fill:#3f3630;fill-opacity:1;fill-rule:nonzero;stroke:none"
         id="path16" /><path
         d="M 7398.95,8073.9 C 7173.68,7537.6 7013.04,7128 7012.4,7128 c 2350.64,-1705.5 5296.5,-474.2 5296.5,-474.2 -0.7,0 -5.2,327.7 157.4,1116.1 -2749.99,-887.6 -4429.93,-109.4 -5067.35,304"
         style="fill:#fab739;fill-opacity:1;fill-rule:nonzero;stroke:none"
         id="path18" /></g></g></svg>
